<svg xmlns="http://www.w3.org/2000/svg" xmlns:xlink="http://www.w3.org/1999/xlink" width="388.645" height="155.677" viewBox="0 0 388.645 155.677"><defs><linearGradient id="a" y1="0.5" x2="1" y2="0.5" gradientUnits="objectBoundingBox"><stop offset="0" stop-color="#3864fa"/><stop offset="0.97" stop-color="#8fffff"/></linearGradient></defs><g transform="translate(-382.052 -265.72)"><g transform="translate(550.308 329.985)"><path d="M397.76,1501.018c0-3.367,1.753-4.428,4.428-4.428h9.226c8.258,0,15.822,3.6,15.822,16.607,0,10.517-5.855,16.607-15.961,16.607H402.2c-2.675,0-4.428-1.061-4.428-4.428v-24.358Zm7.564,22.689h6.366c6.038,0,7.98-5.4,7.98-10.518,0-6.551-2.49-10.517-8.025-10.517h-6.32v21.042Z" transform="translate(-397.76 -1495.805)" fill="#5a9ffb"/><path d="M597.82,1492.3c10.885,0,16.79,7.242,16.79,16.975,0,9.365-5.444,17.805-16.79,17.805-11.893,0-16.79-7.749-16.79-17.805C581.025,1499.542,586.935,1492.3,597.82,1492.3Zm0,28.692c6.873,0,9.226-5.35,9.226-11.71s-3.045-10.887-9.226-10.887-9.226,4.521-9.226,10.887S590.722,1520.992,597.82,1520.992Z" transform="translate(-547.496 -1492.3)" fill="#5a9ffb"/><path d="M794,1497.046c0-3.045,2.075-3.736,4.106-3.736h2.214c2.353,0,3.46.915,4.243,3.46l6.6,21.311h.091l6.5-21.311c.785-2.538,1.892-3.46,4.243-3.46h2.122c2.029,0,4.106.691,4.106,3.736v26.985c0,1.892-.915,3.69-3.367,3.69s-3.367-1.8-3.367-3.69v-20.574H821.4l-7.057,22.049a3.462,3.462,0,0,1-6.459,0l-7.057-22.049h-.091v20.574c0,1.892-.915,3.69-3.367,3.69s-3.367-1.8-3.367-3.69v-26.985Z" transform="translate(-721.498 -1493.125)" fill="#5a9ffb"/><path d="M1012.277,1495.618c.646-1.707,1.844-2.307,3.691-2.307h1.8a3.735,3.735,0,0,1,4.058,2.768l9.134,25.417a10.3,10.3,0,0,1,.732,2.906,3.451,3.451,0,0,1-3.552,3.321,3.239,3.239,0,0,1-3.412-2.075l-1.938-5.535h-12.177l-1.98,5.528c-.507,1.477-1.568,2.075-3.367,2.075a3.223,3.223,0,0,1-3.506-3.321,10.537,10.537,0,0,1,.732-2.906Zm4.575,5.9h-.092l-4.483,13.322h8.856Z" transform="translate(-891.242 -1493.125)" fill="#4570b3"/><path d="M1182.26,1546.154c0-2.075.968-3.184,3.045-3.184,1.984,0,3.045,1.107,3.045,3.184v1.061h.091c1.107-2.86,3.828-4.243,7.1-4.243,5.628,0,10.563,4.106,10.563,12.823,0,6.457-3.275,12.5-10.378,12.5-3.091,0-5.4-1.246-6.642-3.414H1189v8.995a3.367,3.367,0,0,1-6.734,0v-27.723Zm11.762,2.075c-3.921,0-5.4,3.506-5.4,7.334,0,3.46,1.292,7.519,5.4,7.473,4.291,0,5.35-4.337,5.35-7.473C1199.374,1551.6,1197.621,1548.322,1194.022,1548.229Z" transform="translate(-1038.715 -1533.699)" fill="#4570b3"/><path d="M1336.28,1546.154c0-2.075.968-3.184,3.045-3.184,1.984,0,3.045,1.107,3.045,3.184v1.061h.092c1.107-2.86,3.828-4.243,7.1-4.243,5.628,0,10.563,4.106,10.563,12.823,0,6.457-3.276,12.5-10.378,12.5-3.091,0-5.4-1.246-6.642-3.414h-.092v8.995a3.367,3.367,0,0,1-6.734,0v-27.723Zm11.762,2.075c-3.921,0-5.4,3.506-5.4,7.334,0,3.46,1.292,7.519,5.4,7.473,4.291,0,5.35-4.337,5.35-7.473,0-3.965-1.751-7.24-5.348-7.334Z" transform="translate(-1164.553 -1533.699)" fill="#4570b3"/><path d="M1494.6,1543c5.123,0,10.287,2.029,10.287,5.124a2.8,2.8,0,0,1-2.814,2.951c-2.63,0-2.721-3.09-6.966-3.09-2.353,0-3.875.646-3.875,2.075,0,1.568,1.522,1.938,3.6,2.4l2.814.646c3.828.876,8.4,2.49,8.4,7.2,0,5.489-5.307,8.027-10.379,8.027-6.089,0-11.161-2.721-11.161-6.038a2.585,2.585,0,0,1,2.721-2.814c2.906,0,3.182,4.152,8.164,4.152,2.4,0,3.921-1.061,3.921-2.445,0-1.707-1.476-1.984-3.875-2.584l-3.967-.968c-3.921-.968-6.966-2.584-6.966-7.1C1484.5,1545.026,1489.946,1543,1494.6,1543Z" transform="translate(-1285.652 -1533.723)" fill="#4570b3"/></g><path d="M550.079,269.72a77.839,77.839,0,1,0,77.839,77.839A77.842,77.842,0,0,0,550.079,269.72Zm37.369,110.094h-7.364a6.725,6.725,0,1,1,0-6.387h7.43a9.943,9.943,0,0,0,10.017-9.406,9.793,9.793,0,0,0-9.777-10.161,9.973,9.973,0,0,0-1.408.1,3.2,3.2,0,0,1-3.354-1.819,3.359,3.359,0,0,1-.2-2.1,29.285,29.285,0,0,0-57.273-12.248,3.167,3.167,0,0,1-3.642,2.425,16.916,16.916,0,0,0-2.809-.235,16.742,16.742,0,0,0-16.718,17.129,16.933,16.933,0,0,0,17.031,16.322h25.983v-2.48a2.245,2.245,0,0,1,3.366-1.936l9.814,5.66a2.245,2.245,0,0,1,0,3.888l-9.814,5.66a2.245,2.245,0,0,1-3.366-1.936v-2.473H519.45a23.113,23.113,0,1,1-.387-46.222q.478,0,.956.019a35.672,35.672,0,0,1,69.752,10.532c0,1.145-.055,2.292-.164,3.426a16.2,16.2,0,0,1,14.317,15.814,16.431,16.431,0,0,1-16.475,16.429Z" transform="translate(-90.188 -4)" fill="url(#a)"/></g></svg>