<svg xmlns="http://www.w3.org/2000/svg" xmlns:xlink="http://www.w3.org/1999/xlink" width="443.393" height="429.373" viewBox="0 0 443.393 429.373"><defs><linearGradient id="a" x1="0.502" y1="1.014" x2="0.502" y2="0.014" gradientUnits="objectBoundingBox"><stop offset="0" stop-color="gray" stop-opacity="0.251"/><stop offset="0.54" stop-color="gray" stop-opacity="0.122"/><stop offset="1" stop-color="gray" stop-opacity="0.102"/></linearGradient><linearGradient id="b" x1="1.068" y1="0.668" x2="1.068" y2="-0.332" xlink:href="#a"/><linearGradient id="c" x1="2.842" y1="0.652" x2="2.842" y2="-0.351" xlink:href="#a"/><linearGradient id="d" x1="1.073" y1="0.27" x2="1.073" y2="-0.729" xlink:href="#a"/><linearGradient id="e" x1="0.251" y1="0.451" x2="0.251" y2="-0.549" xlink:href="#a"/><linearGradient id="f" x1="5.173" y1="0.029" x2="5.173" y2="-0.871" xlink:href="#a"/><linearGradient id="g" x1="0.5" y1="1" x2="0.5" y2="0" xlink:href="#a"/></defs><g transform="translate(0 -0.013)"><g transform="translate(37.641 0.013)" opacity="0.5"><rect width="256.787" height="354.799" transform="translate(0 106.569) rotate(-24.52)" fill="url(#a)"/></g><rect width="250.253" height="346.958" transform="translate(41.695 107.604) rotate(-24.52)" fill="#fff"/><rect width="124.147" height="30.072" transform="translate(95.56 72.96) rotate(-24.52)" fill="url(#b)"/><path d="M426.2,60.21a17.774,17.774,0,1,0,23.163,8.964A17.565,17.565,0,0,0,426.2,60.21ZM437.826,85.7a10.256,10.256,0,1,1,4.855-13.483,10.136,10.136,0,0,1-4.855,13.488Z" transform="translate(-286.363 -39.751)" fill="url(#c)"/><rect width="121.532" height="28.75" transform="translate(96.755 72.438) rotate(-24.52)" fill="#1c7fc3"/><path d="M427.386,62.591A16.99,16.99,0,1,0,449.892,71,16.99,16.99,0,0,0,427.386,62.591ZM438.5,86.966a19.488,19.488,0,1,0,0-.005Z" transform="translate(-287.01 -40.94)" fill="#1c7fc3"/><rect width="53.581" height="53.581" transform="translate(75.719 153.849) rotate(-24.52)" fill="url(#d)"/><rect width="53.581" height="53.581" transform="translate(119.95 250.379) rotate(-24.52)" fill="url(#e)"/><rect width="49.658" height="49.658" transform="translate(78.314 154.819) rotate(-24.52)" fill="#69f0ae"/><rect width="49.658" height="49.658" transform="translate(121.973 250.527) rotate(-24.52)" fill="#1c7fc3"/><rect width="68.066" height="4.75" transform="translate(159.579 134.6) rotate(-24.52)" fill="#e0e0e0"/><rect width="112.388" height="4.75" transform="translate(162.54 141.081) rotate(-24.52)" fill="#e0e0e0"/><rect width="104.471" height="4.75" transform="translate(165.491 147.562) rotate(-24.52)" fill="#e0e0e0"/><rect width="68.066" height="4.75" transform="translate(203.24 230.312) rotate(-24.52)" fill="#e0e0e0"/><rect width="112.388" height="4.75" transform="translate(206.199 236.789) rotate(-24.52)" fill="#e0e0e0"/><rect width="104.471" height="4.75" transform="translate(209.152 243.275) rotate(-24.52)" fill="#e0e0e0"/><path d="M196.261,318.924l11.634,3.778,3.828-22.391,5.662,1.548-6.368,27.682L193.47,321.85Z" transform="translate(-96.534 -149.837)" fill="url(#f)"/><path d="M199.58,320.749,209.7,324.03l3.327-19.47,4.92,1.348-5.536,24.07-15.257-6.684Z" transform="translate(-98.371 -151.958)" fill="#fff"/><path d="M287.26,512.958l10.116,3.282,3.327-19.47,4.92,1.348-5.536,24.07L284.83,515.5Z" transform="translate(-142.12 -247.863)" fill="#fff"/><rect width="158.779" height="52.925" transform="translate(194.898 333.25) rotate(-24.52)" fill="#e0e0e0"/><path d="M710.258,630.3c-5.552-1.583-11.233-1.283-13,5.065-.6,2.139-.666,5.461-2.961,6.564-3.377,1.623-7.45-1.623-10.381-2.946a10.757,10.757,0,0,0-14.229,4.394,24.841,24.841,0,0,0-2.836,8.638,18.5,18.5,0,0,1-.812,4.124c-1.047,2.34-4.324,2.129-6.473,2.039a13.964,13.964,0,0,1-1.433-.105,12.692,12.692,0,0,0,2.4-8.082c-.14-4.745-3.222-9.936-8.608-9.354a8.926,8.926,0,0,0-7.681,9.875,12.106,12.106,0,0,0,6.418,9.019c-1.643.727-3.4,1.293-4.95,2.044a20.773,20.773,0,0,0-2.109,1.177c-4.695-2.265-10.862-2.691-15.086-.381-2.044,1.117-.551,4.439,1.5,3.312,3.217-1.759,6.764-1.318,10.126-.2l.281.1a9.047,9.047,0,0,0-.877,1.358c-1.9,3.688,0,9.52,4.62,9.921,6.514.556,6.819-8.052,3.282-11.479-.15-.145-.3-.286-.461-.421,1.463-.706,3.046-1.238,4.444-1.834a18.488,18.488,0,0,0,3.457-1.924l.251.065c4.975,1.127,12.741,1.478,14.53-4.549,1.533-5.231,1.678-16.339,9.946-15.312,3.372.416,6.138,3.006,9.344,3.943,2.871.857,6.193.892,8.548-1.223,1.944-1.744,2.38-4.319,2.976-6.724.306-1.243.606-2.726,1.618-3.613,1.829-1.6,4.85-.656,6.889-.075C711.225,634.346,712.518,630.939,710.258,630.3Zm-64.634,42.383c-1.1,1.087-2.26.225-2.846-.912a3.576,3.576,0,0,1,.5-3.963,6.885,6.885,0,0,1,.476-.571c2.169,1.4,3.943,3.412,1.889,5.446Zm3.848-27.056a4.045,4.045,0,0,1,6.739,1.243,9.953,9.953,0,0,1-1.132,9.47,7.643,7.643,0,0,1-.827.932,10.557,10.557,0,0,1-3.572-2.039c-2.666-2.4-4.174-6.849-1.187-9.62Z" transform="translate(-391.844 -324.569)" fill="#1c7fc3"/><path d="M505.581,171.852,465.138,187.62c-7.606-.566-23.609-2.63-39.492-10.121a62.506,62.506,0,0,0-55.114.416c-39.582.947-61.367-4.124-72.991-8.923l3.066-6.293-40.995-15.983L157.12,100.78V289.05l35.869,15.983,19.24-46.156,42.252,19.54,8.112-20.613,27.742,20.588,1.889,1.588-2.6,2.7a13.558,13.558,0,0,0,0,18.644h0a12.346,12.346,0,0,0,17.937,0l-1.423,1.5a13.558,13.558,0,0,0,0,18.644h0a12.346,12.346,0,0,0,17.937,0l8.217-8.543h0l-5.642,5.862a13.558,13.558,0,0,0,0,18.644h0a12.346,12.346,0,0,0,17.937,0L352.7,329h0l-3.412,3.547a9.469,9.469,0,0,0,0,13.027,8.623,8.623,0,0,0,12.526,0l5.411-5.622c9.294,6.789,16.815,11.744,20.5,13.027,15.347,5.321,15.347-5.336,15.347-5.336,20.5,10.652,30.749-10.652,30.749-10.652,25.623,10.652,25.623-15.983,25.623-15.983,6.4,4.439,11.023,2.4,14.25-1.5a17.361,17.361,0,0,0,1.914-18.784L500.1,278.092l10.592,21.655,42.252-19.54,19.24,42.653,28.334-12.651v-186.3Z" transform="translate(-157.12 -60.761)" fill="url(#g)"/><path d="M602.939,374.062l-44.6,39.642L523.65,349.281l79.289-19.821Z" transform="translate(-261.282 -164.382)" fill="#be7c5e"/><path d="M384.112,231.69s14.315,19.821,99.11,14.866l49.558,74.334,33.209,37.362a15.8,15.8,0,0,1,.391,20.728c-3.111,3.612-7.586,5.511-13.779,1.378,0,0,0,24.776-24.776,14.866,0,0-9.911,19.821-29.732,9.911,0,0,0,9.911-14.866,4.955s-94.16-69.374-94.16-69.374L354.38,315.939Z" transform="translate(-255.545 -126.08)" fill="#fda57d"/><path d="M641.488,265.832a115.32,115.32,0,0,1-42.588-9.615c-19.255-8.733-41.676-7.621-59.443,3.843-14.48,9.344-27.026,24.816-26.79,50.369,0,0,19.27,19.821,39.642-19.821h14.866s14.315,49.558,54.513,44.592,49.558-9.91,49.558-9.91Z" transform="translate(-334.523 -135.441)" fill="#be7c5e"/><rect width="24.531" height="38.545" rx="12.265" transform="translate(167.389 218.766) rotate(45)" fill="#be7c5e"/><rect width="24.531" height="38.545" rx="12.265" transform="translate(151.417 200.046) rotate(45)" fill="#be7c5e"/><rect width="24.531" height="42.047" rx="12.265" transform="translate(189.685 231.151) rotate(45)" fill="#be7c5e"/><rect width="17.13" height="28.033" rx="8.565" transform="translate(204.28 251.252) rotate(45)" fill="#be7c5e"/><path d="M691.97,334.625l-44.6,19.821-44.6-109.021,39.647-14.866Z" transform="translate(-300.76 -115.034)" fill="#fff"/><path d="M108.25,285.17l44.6,19.821,44.6-109.021L157.8,181.1Z" transform="translate(-54.013 -90.356)" fill="#fff"/><path d="M9.34,92.09l99.11,44.6L44.032,285.355,9.34,270.489Z" transform="translate(-4.66 -45.943)" fill="#333"/><path d="M781.01,141.54l-99.11,44.6,64.423,148.663,34.687-14.866Z" transform="translate(-340.243 -70.617)" fill="#4d8af0"/></g></svg>