<svg xmlns="http://www.w3.org/2000/svg" xmlns:xlink="http://www.w3.org/1999/xlink" width="713" height="559" viewBox="0 0 713 559"><defs><filter id="a" x="0" y="0" width="713" height="559" filterUnits="userSpaceOnUse"><feOffset dx="-2" dy="4" input="SourceAlpha"/><feGaussianBlur stdDeviation="12" result="b"/><feFlood flood-opacity="0.161"/><feComposite operator="in" in2="b"/><feComposite in="SourceGraphic"/></filter><linearGradient id="c" x1="0.5" y1="1" x2="0.5" gradientUnits="objectBoundingBox"><stop offset="0" stop-color="gray" stop-opacity="0.251"/><stop offset="0.535" stop-color="gray" stop-opacity="0.122"/><stop offset="1" stop-color="gray" stop-opacity="0.102"/></linearGradient><linearGradient id="f" x1="0.5" y1="1" x2="0.5" gradientUnits="objectBoundingBox"><stop offset="0" stop-color="#b3b3b3" stop-opacity="0.251"/><stop offset="0.535" stop-color="#b3b3b3" stop-opacity="0.102"/><stop offset="1" stop-color="#b3b3b3" stop-opacity="0.051"/></linearGradient><linearGradient id="g" x1="0.5" y1="1" x2="0.5" gradientUnits="objectBoundingBox"><stop offset="0" stop-opacity="0.122"/><stop offset="0.551" stop-opacity="0.09"/><stop offset="1" stop-opacity="0.02"/></linearGradient><linearGradient id="i" x1="0.5" y1="1" x2="0.5" gradientUnits="objectBoundingBox"><stop offset="0.005" stop-opacity="0.122"/><stop offset="0.551" stop-opacity="0.09"/><stop offset="1" stop-opacity="0.051"/></linearGradient></defs><g transform="translate(-52 -34)"><g transform="matrix(1, 0, 0, 1, 52, 34)" filter="url(#a)"><rect width="641" height="487" transform="translate(38 32)" fill="#fff"/></g><g transform="translate(178 100.963)"><path d="M155.939,432.736,0,447.386V80.283L155.939,65.634Z" transform="translate(0 -31.267)" fill="url(#c)"/><path d="M297.81,432.736l155.939,14.649V80.283L297.81,65.634Z" transform="translate(-141.871 -31.267)" fill="url(#c)"/><path d="M748.5,432.736,595.621,447.386V80.283L748.5,65.634Z" transform="translate(-283.743 -31.267)" fill="url(#c)"/><path d="M161.011,426.355,9.488,440.431V87.7L161.011,73.629Z" transform="translate(-4.52 -35.076)" fill="#f5f5f5"/><path d="M298.865,426.355l151.523,14.076V87.7L298.865,73.629Z" transform="translate(-142.374 -35.076)" fill="#fff"/><path d="M739.764,426.355,588.242,440.431V87.7L739.764,73.629Z" transform="translate(-280.228 -35.076)" fill="#f5f5f5"/><path d="M194.156,135.494,79.065,139.532v52.992h97.7v-19.16l17.388-.61,26.5,8.178v-37.26Z" transform="translate(-37.665 -64.547)" fill="#1c7fc3" opacity="0.3"/><path d="M181.35,658.465,52.183,670.885v-47.2l129.167-12.42Z" transform="translate(-24.859 -291.198)" fill="#1c7fc3" opacity="0.3"/><path d="M154.35,379.465,25.183,391.885v-47.2l129.167-12.42Z" transform="translate(-11.997 -158.287)" fill="#1c7fc3" opacity="0.3"/><rect width="56.304" height="43.056" transform="translate(232.667 330.835)" fill="#1c7fc3" opacity="0.3"/><rect width="56.304" height="43.056" transform="translate(214.34 229.777)" fill="#1c7fc3" opacity="0.3"/><rect width="56.304" height="43.056" transform="translate(237.379 95.207)" fill="#1c7fc3" opacity="0.3"/><path d="M756.655,624.124l-87.767,7.452V574.445l87.767-7.452Z" transform="translate(-318.646 -270.105)" fill="#1c7fc3" opacity="0.3"/><path d="M736.655,240.124l-87.767,7.452V190.445l87.767-7.452Z" transform="translate(-309.118 -87.175)" fill="#1c7fc3" opacity="0.3"/><path d="M893.13,108.3c0,20.484-35.806,78.49-35.806,78.49s-35.806-58.006-35.806-78.49,16.031-37.089,35.806-37.089S893.13,87.812,893.13,108.3Z" transform="translate(-473.148 -61.49)" fill="url(#f)"/><ellipse cx="10.825" cy="11.213" rx="10.825" ry="11.213" transform="translate(373.351 33.004)" fill="url(#g)"/><path d="M892.889,112.021c0,18.3-33.133,70.119-33.133,70.119s-33.133-51.82-33.133-70.119a33.133,33.133,0,0,1,66.266,0Z" transform="translate(-475.58 -65.15)" fill="#1c7fc3"/><circle cx="10.017" cy="10.017" r="10.017" transform="translate(374.159 34.543)" fill="#fff"/><path d="M314.472,551.341c0,20.628-36.869,79.045-36.869,79.045s-36.869-58.416-36.869-79.045S257.242,513.99,277.6,513.99,314.472,530.712,314.472,551.341Z" transform="translate(-196.473 -272.424)" fill="url(#f)"/><ellipse cx="11.146" cy="11.292" rx="11.146" ry="11.292" transform="translate(69.984 265.018)" fill="url(#i)"/><path d="M314.135,554.783c0,18.3-33.133,70.119-33.133,70.119s-33.133-51.82-33.133-70.119a33.133,33.133,0,1,1,66.266,0Z" transform="translate(-199.872 -276.073)" fill="#1c7fc3"/><circle cx="10.017" cy="10.017" r="10.017" transform="translate(71.113 266.381)" fill="#fff"/><path d="M657.135,559.783c0,18.3-33.133,70.119-33.133,70.119s-33.133-51.82-33.133-70.119a33.133,33.133,0,1,1,66.266,0Z" transform="translate(-363.271 -278.455)" fill="#1c7fc3"/><circle cx="10.017" cy="10.017" r="10.017" transform="translate(250.714 268.999)" fill="#fff"/><path d="M905.135,519.783c0,18.3-33.133,70.119-33.133,70.119s-33.133-51.82-33.133-70.119a33.133,33.133,0,1,1,66.266,0Z" transform="translate(-481.414 -259.4)" fill="#1c7fc3"/><circle cx="10.017" cy="10.017" r="10.017" transform="translate(380.571 248.054)" fill="#fff"/><path d="M346.135,85.783c0,18.3-33.133,70.119-33.133,70.119s-33.133-51.82-33.133-70.119a33.133,33.133,0,1,1,66.266,0Z" transform="translate(-215.116 -52.65)" fill="#1c7fc3"/><circle cx="10.017" cy="10.017" r="10.017" transform="translate(87.869 20.804)" fill="#fff"/></g></g></svg>