<svg xmlns="http://www.w3.org/2000/svg" xmlns:xlink="http://www.w3.org/1999/xlink" width="722" height="566" viewBox="0 0 722 566"><defs><filter id="a" x="0" y="0" width="722" height="566" filterUnits="userSpaceOnUse"><feOffset dx="-2" dy="4" input="SourceAlpha"/><feGaussianBlur stdDeviation="12" result="b"/><feFlood flood-opacity="0.161"/><feComposite operator="in" in2="b"/><feComposite in="SourceGraphic"/></filter></defs><g transform="translate(-1185.122 -490.197)" style="isolation:isolate"><g transform="matrix(1, 0, 0, 1, 1185.12, 490.2)" filter="url(#a)"><rect width="650" height="494" transform="translate(38 32)" fill="#fff"/></g><g transform="translate(1237.32 596.341)"><circle cx="35.611" cy="35.611" r="35.611" transform="translate(127.42 36.822)" fill="#ff6584"/><path d="M473.8,401.7H299.1a3.561,3.561,0,0,1-.653-.052l82.624-143.118a5.785,5.785,0,0,1,10.07,0L446.6,354.574l2.657,4.6Z" transform="translate(-199.096 -219.525)" fill="#3f3d56"/><path d="M366.2,239.628H306.558l29.28-42.531,2.107-3.064L339,192.5l2.657,4.6Z" transform="translate(-91.5 -57.453)" opacity="0.2"/><path d="M622.775,419.646h-151.1l29.28-42.531,2.107-3.064,38.155-55.425c2.5-3.633,8.519-3.859,11.46-.685a6.9,6.9,0,0,1,.549.685Z" transform="translate(-250.799 -237.471)" fill="#3f3d56"/><circle cx="10.731" cy="10.731" r="10.731" transform="translate(405.599 137.169)" fill="#1c7fc3"/><path d="M594,242.454h-2.2l1-33.938Z" transform="translate(-176.639 -62.233)" fill="#3f3d56"/><path d="M593.385,216.3l2.36-3.265-2.392,4.073-.258-.452Z" transform="translate(-177.024 -63.58)" fill="#3f3d56"/><path d="M592.137,221l-2.36-3.264,2.392,4.072.258-.452Z" transform="translate(-176.033 -64.983)" fill="#3f3d56"/><circle cx="10.731" cy="10.731" r="10.731" transform="translate(504.035 137.169)" fill="#1c7fc3"/><path d="M734.319,242.454h-2.2l1-33.938Z" transform="translate(-218.519 -62.233)" fill="#3f3d56"/><path d="M733.7,216.3l2.36-3.265L733.67,217.1l-.259-.452Z" transform="translate(-218.904 -63.58)" fill="#3f3d56"/><path d="M732.454,221l-2.36-3.264,2.392,4.072.258-.452Z" transform="translate(-217.914 -64.983)" fill="#3f3d56"/><circle cx="15.849" cy="15.849" r="15.849" transform="translate(431.567 116.636)" fill="#1c7fc3"/><path d="M638.571,235.568h-3.246l1.48-50.124Z" transform="translate(-189.628 -55.346)" fill="#3f3d56"/><path d="M637.66,196.934l3.484-4.821-3.532,6.015-.382-.669Z" transform="translate(-190.197 -57.337)" fill="#3f3d56"/><path d="M635.815,203.875l-3.484-4.821,3.532,6.014.382-.668Z" transform="translate(-188.735 -59.409)" fill="#3f3d56"/><circle cx="15.849" cy="15.849" r="15.849" transform="translate(470.216 116.636)" fill="#1c7fc3"/><path d="M693.665,235.568h-3.246l1.48-50.124Z" transform="translate(-206.072 -55.346)" fill="#3f3d56"/><path d="M692.753,196.934l3.485-4.821-3.533,6.015-.382-.669Z" transform="translate(-206.641 -57.337)" fill="#3f3d56"/><path d="M690.909,203.875l-3.485-4.821,3.533,6.014.382-.668Z" transform="translate(-205.178 -59.409)" fill="#3f3d56"/><circle cx="15.849" cy="15.849" r="15.849" transform="translate(369.969 116.636)" fill="#1c7fc3"/><path d="M550.765,235.568h-3.246L549,185.444Z" transform="translate(-163.42 -55.346)" fill="#3f3d56"/><path d="M549.854,196.934l3.484-4.821-3.532,6.015-.382-.669Z" transform="translate(-163.989 -57.337)" fill="#3f3d56"/><path d="M548.01,203.875l-3.485-4.821,3.533,6.014.382-.668Z" transform="translate(-162.527 -59.409)" fill="#3f3d56"/><path d="M732.907,624.359H215.7a49.622,49.622,0,0,1,0-99.244H731.762a19.085,19.085,0,1,0,0-38.171H198.519V456.409H731.762a49.622,49.622,0,1,1,0,99.243H215.7a19.085,19.085,0,0,0,0,38.171H732.907Z" transform="translate(-159.585 -279.463)" fill="#e6e6e6"/><rect width="23.666" height="1.527" transform="translate(58.019 191.45)" fill="#fff"/><rect width="23.666" height="1.527" transform="translate(125.199 191.45)" fill="#fff"/><rect width="23.666" height="1.527" transform="translate(192.379 191.45)" fill="#fff"/><rect width="23.666" height="1.527" transform="translate(259.56 191.45)" fill="#fff"/><rect width="23.666" height="1.527" transform="translate(326.74 191.45)" fill="#fff"/><rect width="23.666" height="1.527" transform="translate(393.92 191.45)" fill="#fff"/><rect width="23.666" height="1.527" transform="translate(461.1 191.45)" fill="#fff"/><rect width="23.666" height="1.527" transform="translate(528.28 191.45)" fill="#fff"/><rect width="23.666" height="1.527" transform="translate(58.019 260.157)" fill="#fff"/><rect width="23.666" height="1.527" transform="translate(125.199 260.157)" fill="#fff"/><rect width="23.666" height="1.527" transform="translate(192.379 260.157)" fill="#fff"/><rect width="23.666" height="1.527" transform="translate(259.56 260.157)" fill="#fff"/><rect width="23.666" height="1.527" transform="translate(326.74 260.157)" fill="#fff"/><rect width="23.666" height="1.527" transform="translate(393.92 260.157)" fill="#fff"/><rect width="23.666" height="1.527" transform="translate(461.1 260.157)" fill="#fff"/><rect width="23.666" height="1.527" transform="translate(528.28 260.157)" fill="#fff"/><rect width="23.666" height="1.527" transform="translate(58.019 328.864)" fill="#fff"/><rect width="23.666" height="1.527" transform="translate(125.199 328.864)" fill="#fff"/><rect width="23.666" height="1.527" transform="translate(192.379 328.864)" fill="#fff"/><rect width="23.666" height="1.527" transform="translate(259.56 328.864)" fill="#fff"/><rect width="23.666" height="1.527" transform="translate(326.74 328.864)" fill="#fff"/><rect width="23.666" height="1.527" transform="translate(393.92 328.864)" fill="#fff"/><rect width="23.666" height="1.527" transform="translate(461.1 328.864)" fill="#fff"/><rect width="23.666" height="1.527" transform="translate(528.28 328.864)" fill="#fff"/><path d="M730.206,297.177a20.342,20.342,0,0,0-4.241-4h8.856A14.812,14.812,0,0,0,730.206,297.177Z" transform="translate(-326.698 -230.742)" fill="none"/><path d="M690.743,293.176h1.527c-.328.23-.657.46-.97.709C691.12,293.643,690.93,293.411,690.743,293.176Z" transform="translate(-316.185 -230.742)" fill="none"/><path d="M745.677,290.559a14.614,14.614,0,0,1,7.106,1.836H738.589a14.55,14.55,0,0,1,7.088-1.836Z" transform="translate(-330.466 -229.961)" fill="#e6e6e6"/><path d="M704.5,287.941a20.079,20.079,0,0,1,11.6,3.672H692.919A20.075,20.075,0,0,1,704.5,287.941Z" transform="translate(-316.835 -229.18)" fill="#e6e6e6"/><path d="M487.018,239.7a37.641,37.641,0,0,1,73.852-7.936c.456-.016.912-.035,1.372-.035a37.648,37.648,0,0,1,36.114,27.029,26.6,26.6,0,0,1,31.568,7.859H512.508a25.461,25.461,0,0,1-25.517-26.361Q487,239.974,487.018,239.7Z" transform="translate(-255.366 -204.179)" fill="#e6e6e6"/><path d="M775.623,336.353a20.338,20.338,0,0,1,4.241-4h-8.856A14.811,14.811,0,0,1,775.623,336.353Z" transform="translate(-340.142 -242.435)" fill="none"/><path d="M818.2,332.352h-1.527c.328.23.657.46.97.709C817.827,332.819,818.018,332.587,818.2,332.352Z" transform="translate(-353.774 -242.435)" fill="none"/><path d="M757.882,329.734a14.615,14.615,0,0,0-7.106,1.836h14.194A14.551,14.551,0,0,0,757.882,329.734Z" transform="translate(-334.104 -241.654)" fill="#e6e6e6"/><path d="M795.231,327.117a20.08,20.08,0,0,0-11.6,3.672h23.182A20.075,20.075,0,0,0,795.231,327.117Z" transform="translate(-343.91 -240.873)" fill="#e6e6e6"/><path d="M961.759,278.872a37.641,37.641,0,0,0-73.852-7.936c-.456-.016-.912-.035-1.372-.035a37.648,37.648,0,0,0-36.114,27.029,26.6,26.6,0,0,0-31.567,7.859H936.27a25.46,25.46,0,0,0,25.517-26.361Q961.773,279.15,961.759,278.872Z" transform="translate(-354.423 -215.872)" fill="#e6e6e6"/><rect width="13.646" height="2.166" transform="matrix(-1, -0.001, 0.001, -1, 542.701, 323.567)" fill="#3f3d56"/><path d="M770.332,640.451l2.816.651,107.006.057.962-2.242a22.629,22.629,0,0,0,1.664-12.236c-.461-3.1-1.616-6.173-4.239-7.509l-4.749-31.628-59.2-.106-22.9,18.474s-10.8-.194-16.674,7.113a17.152,17.152,0,0,0-3.588,9.447l-.232,3.8Z" transform="translate(-339.941 -318.572)" fill="#1c7fc3"/><circle cx="13.213" cy="13.213" r="13.213" transform="translate(440.68 308.137)" fill="#3f3d56"/><circle cx="6.954" cy="6.954" r="6.954" transform="translate(446.939 314.396)" fill="#ccc"/><circle cx="13.213" cy="13.213" r="13.213" transform="translate(505.881 308.171)" fill="#3f3d56"/><circle cx="6.954" cy="6.954" r="6.954" transform="translate(512.14 314.43)" fill="#ccc"/><path d="M656.92,401.076l31.964.013h3.9l6.587,0v-.481l0-5.793,0-6.5H695l-3.9,0-6.911,0h-3.9l-7.979,0Z" transform="translate(-196.074 -115.894)" fill="#fff"/><path d="M724.849,401.107l16.893.009,0-3.315v-5.793l0-3.67h-2.474l-3.9,0-10.521,0Z" transform="translate(-216.349 -115.902)" fill="#fff"/><rect width="2.166" height="4.116" transform="matrix(-1, -0.001, 0.001, -1, 503.291, 298.851)" fill="#3f3d56"/><rect width="2.166" height="4.116" transform="matrix(-0.001, 1, -1, -0.001, 469.51, 288.869)" fill="#3f3d56"/><path d="M0,0H.238A4.527,4.527,0,0,1,4.765,4.527h0A4.527,4.527,0,0,1,.238,9.054H0Z" transform="matrix(-1, -0.001, 0.001, -1, 467.988, 289.821)" fill="#3f3d56"/><path d="M771.559,637.16a7,7,0,0,0,3.819-13.248,17.153,17.153,0,0,0-3.588,9.447Z" transform="translate(-340.307 -329.459)" fill="#3f3d56"/><path d="M705.639,388.316l8.275,12.3,0-5.793-4.378-6.5Z" transform="translate(-210.615 -115.899)" fill="#f2f2f2"/><path d="M739.854,388.335l6.371,9.468V392.01l-2.469-3.67Z" transform="translate(-220.827 -115.904)" fill="#f2f2f2"/><path d="M690.225,388.309l8.6,12.783h3.9l-8.6-12.783Z" transform="translate(-206.014 -115.896)" fill="#f2f2f2"/><circle cx="35.117" cy="35.117" r="35.117" transform="translate(0 147.936)" fill="#3f3d56"/><path d="M199.233,455.873,181.66,438.3a3.054,3.054,0,0,1,4.319-4.319l12.962,12.963,41.365-47.17A3.054,3.054,0,0,1,244.9,403.8Z" transform="translate(-163.97 -262.248)" fill="#1c7fc3"/></g></g></svg>