<svg xmlns="http://www.w3.org/2000/svg" xmlns:xlink="http://www.w3.org/1999/xlink" width="680" height="534" viewBox="0 0 680 534"><defs><filter id="a" x="0" y="0" width="680" height="534" filterUnits="userSpaceOnUse"><feOffset dx="-2" dy="4" input="SourceAlpha"/><feGaussianBlur stdDeviation="12" result="b"/><feFlood flood-opacity="0.161"/><feComposite operator="in" in2="b"/><feComposite in="SourceGraphic"/></filter><linearGradient id="c" x1="0.501" y1="1" x2="0.501" gradientUnits="objectBoundingBox"><stop offset="0" stop-color="gray" stop-opacity="0.251"/><stop offset="0.54" stop-color="gray" stop-opacity="0.122"/><stop offset="1" stop-color="gray" stop-opacity="0.102"/></linearGradient></defs><g transform="translate(-1185 -490)"><g transform="matrix(1, 0, 0, 1, 1185, 490)" filter="url(#a)"><rect width="608" height="462" transform="translate(38 32)" fill="#fff"/></g><g transform="translate(1259.918 556.954)"><path d="M392.656,103.264c-31.515-1.1-61.531-11.268-90.192-22.4S245.413,57.4,214.634,51.5c-19.765-3.793-42.394-4.329-58.336,6.272C140.959,68,136,85.6,133.338,101.95c-2.006,12.305-3.185,25.248,2.308,36.764,3.818,8,10.586,14.715,15.271,22.4,16.3,26.646,4.777,59.5-12.88,85.522-8.278,12.2-17.9,23.86-24.289,36.842s-9.349,27.878-3.754,41.128c5.541,13.148,18.752,23,33.064,29.947,29.066,14.092,63.3,18.129,96.712,20.413,73.933,5.059,148.256,2.868,222.383.677,27.435-.813,54.986-1.636,81.973-5.877,14.988-2.357,30.459-6.1,41.337-15.1,13.815-11.458,17.238-30.863,7.981-45.228-15.524-24.1-58.434-30.088-69.3-55.95-5.97-14.233.161-30.093,8.843-43.294,18.621-28.326,49.829-53.17,51.47-85.547,1.13-22.234-13.873-44.5-37.071-55.025-24.313-11.029-58.034-9.642-75.964,8.614C452.945,97,420.485,104.229,392.656,103.264Z" transform="translate(-80.124 -49.02)" fill="#1c7fc3" opacity="0.1"/><g transform="translate(201.454 54.605)" opacity="0.9"><rect width="4.314" height="35.557" rx="2.157" transform="translate(143.464 66.536)" fill="#3a3768"/><rect width="2.42" height="11.706" rx="1.21" transform="translate(0.088 38.683)" fill="#3a3768"/><rect width="2.727" height="20.374" rx="1.363" transform="translate(0 60.113)" fill="#3a3768"/><rect width="2.595" height="20.549" rx="1.298" transform="translate(0.044 87.616)" fill="#3a3768"/><rect width="144.331" height="293.331" rx="18" transform="translate(1.461)" fill="#3a3768"/><rect width="20.155" height="4.09" rx="2.045" transform="translate(59.7 8.755)" fill="#e6e8ec"/><circle cx="2.323" cy="2.323" r="2.323" transform="translate(82.903 8.483)" fill="#e6e8ec"/></g><ellipse cx="97.375" cy="9.924" rx="97.375" ry="9.924" transform="translate(18.538 344.761)" fill="#1c7fc3" opacity="0.1"/><ellipse cx="45.617" cy="4.65" rx="45.617" ry="4.65" transform="translate(286.811 383.162)" fill="#1c7fc3" opacity="0.1"/><ellipse cx="45.617" cy="4.65" rx="45.617" ry="4.65" transform="translate(442.683 359.73)" fill="#1c7fc3" opacity="0.1"/><path d="M602.4,176.84H585.808v1.975a9.423,9.423,0,0,1-9.485,9.358H523.375a9.422,9.422,0,0,1-9.485-9.358V176.84H498.307a11.44,11.44,0,0,0-11.517,11.367V441.2a11.44,11.44,0,0,0,11.517,11.367H602.4A11.445,11.445,0,0,0,613.922,441.2V188.207A11.445,11.445,0,0,0,602.4,176.84Z" transform="translate(-273.814 -113.421)" fill="#e6e6e6"/><path d="M828.968,134.674s-41-2.474-36.165,26.256c0,0-.974,5.079,3.642,7.382,0,0,.073-2.128,4.2-1.407a18.72,18.72,0,0,0,4.456.214,9.252,9.252,0,0,0,5.449-2.245h0s11.521-4.762,16.006-23.6c0,0,3.316-4.11,3.185-5.167l-6.92,2.956s2.362,4.991.487,9.14c0,0-.224-8.96-1.553-8.765-.273.039-3.6,1.729-3.6,1.729s4.071,8.692.974,15.013c0,0,1.164-10.713-2.269-14.384l-4.869,2.844s4.753,8.979,1.534,16.308c0,0,.823-11.239-2.557-15.616l-4.412,3.443s4.465,8.848,1.743,14.925c0,0-.36-13.079-2.7-14.068,0,0-3.861,3.409-4.451,4.8,0,0,3.058,6.428,1.164,9.817,0,0-1.164-8.716-2.118-8.765,0,0-3.847,5.775-4.246,9.739,0,0,.166-5.887,3.311-10.284a11.586,11.586,0,0,0-5.887,3.048s.6-4.081,6.817-4.441c0,0,3.18-4.383,4.032-4.645,0,0-6.209-.521-9.973,1.149,0,0,3.311-3.852,11.112-2.1l4.353-3.56s-8.171-1.115-11.638.117c0,0,3.993-3.409,12.817-.925l4.743-2.834s-6.968-1.5-11.122-.974c0,0,4.383-2.362,12.51.2l3.409-1.524s-5.108-1-6.6-1.164-1.573-.57-1.573-.57a17.7,17.7,0,0,1,9.656,1.1S829.09,135.127,828.968,134.674Z" transform="translate(-431.756 -92.939)" fill="#3ca8b4"/><path d="M763.727,108.465s-18.5-1.115-16.342,11.867a3.167,3.167,0,0,0,1.646,3.336s.034-.974,1.9-.638a8.528,8.528,0,0,0,2.011.1,4.2,4.2,0,0,0,2.464-1.013h0s5.205-2.152,7.231-10.664c0,0,1.5-1.855,1.461-2.332l-3.126,1.334a5.6,5.6,0,0,1,.224,4.129s-.1-4.047-.7-3.954c-.122,0-1.622.784-1.622.784s1.836,3.925.448,6.783c0,0,.526-4.84-1.023-6.5l-2.2,1.286s2.147,4.056.691,7.367c0,0,.375-5.079-1.154-7.056l-2,1.558s2.021,4,.789,6.744c0,0-.161-5.912-1.217-6.36a12.033,12.033,0,0,0-2.011,2.172s1.378,2.922.521,4.436c0,0-.526-3.939-.974-3.959a13.108,13.108,0,0,0-1.919,4.382,9.475,9.475,0,0,1,1.495-4.645A5.215,5.215,0,0,0,747.662,119s.268-1.846,3.087-2.006a12.161,12.161,0,0,1,1.821-2.1,11.418,11.418,0,0,0-4.5.521s1.495-1.738,5.02-.974l1.948-1.607s-3.691-.487-5.259.054c0,0,1.807-1.539,5.79-.419l2.143-1.281a19.466,19.466,0,0,0-5.021-.433s1.977-1.066,5.649.088l1.534-.687s-2.3-.453-2.98-.526-.711-.258-.711-.258a7.967,7.967,0,0,1,4.329.487S763.78,108.669,763.727,108.465Z" transform="translate(-408.568 -79.507)" fill="#3ca8b4"/><ellipse cx="19.58" cy="3.311" rx="19.58" ry="3.311" transform="translate(0 327.115)" fill="#3ca8b4"/><path d="M89.507,706.953a5.662,5.662,0,0,0,1.87-2.815,2.524,2.524,0,0,0-1.305-2.868c-1.2-.463-2.479.37-3.448,1.208s-2.084,1.8-3.355,1.617a5.1,5.1,0,0,0,1.563-4.777,1.948,1.948,0,0,0-.438-.974c-.662-.711-1.87-.4-2.668.156-2.532,1.782-3.238,5.22-3.248,8.317a15.345,15.345,0,0,1-.049-3.409,3.512,3.512,0,0,0-1.286-3.029,3.9,3.9,0,0,0-1.948-.463,4.074,4.074,0,0,0-3.185.906,3.132,3.132,0,0,0,.127,3.9,12.731,12.731,0,0,0,3.292,2.639,7.265,7.265,0,0,1,2.357,2.245,2.15,2.15,0,0,1,.175.4H85.1a19.854,19.854,0,0,0,4.412-3.048Z" transform="translate(-61.834 -381.947)" fill="#1c7fc3"/><path d="M870.128,632.54s4.212,5.512-1.948,13.829S856.946,661.708,859,666.894c0,0,9.291-15.446,16.853-15.665S878.445,641.831,870.128,632.54Z" transform="translate(-465.685 -348.399)" fill="#3ca8b4"/><path d="M870.381,632.54a6.947,6.947,0,0,1,.862,1.729c7.377,8.668,11.307,16.761,4.212,16.96-6.6.19-14.53,12-16.425,14.983a5.588,5.588,0,0,0,.224.682s9.291-15.446,16.853-15.665S878.7,641.831,870.381,632.54Z" transform="translate(-465.938 -348.399)" opacity="0.1"/><path d="M897.394,645.691c0,1.948-.219,3.511-.487,3.511s-.487-1.573-.487-3.511.273-1.023.54-1.023S897.394,643.743,897.394,645.691Z" transform="translate(-485.121 -354.509)" fill="#ffd037"/><path d="M900.436,650.317c-1.7.925-3.185,1.49-3.316,1.252s1.149-1.179,2.854-2.109,1.027-.248,1.159,0S902.141,649.387,900.436,650.317Z" transform="translate(-485.475 -356.836)" fill="#ffd037"/><path d="M826.682,632.54s-4.212,5.512,1.948,13.829,11.234,15.339,9.184,20.525c0,0-9.291-15.446-16.853-15.665S818.365,641.831,826.682,632.54Z" transform="translate(-444.492 -348.399)" fill="#3ca8b4"/><path d="M826.678,632.54a6.742,6.742,0,0,0-.862,1.729c-7.377,8.668-11.307,16.761-4.217,16.96,6.608.19,14.53,12,16.429,14.983a6.548,6.548,0,0,1-.224.682s-9.291-15.446-16.853-15.665S818.361,641.831,826.678,632.54Z" transform="translate(-444.489 -348.399)" opacity="0.1"/><path d="M820.55,645.691c0,1.948.219,3.511.487,3.511s.487-1.573.487-3.511-.273-1.023-.54-1.023S820.55,643.743,820.55,645.691Z" transform="translate(-446.196 -354.509)" fill="#ffd037"/><path d="M813.916,650.317c1.7.925,3.185,1.49,3.311,1.252s-1.144-1.179-2.849-2.109-1.032-.248-1.159,0S812.231,649.387,813.916,650.317Z" transform="translate(-442.264 -356.836)" fill="#ffd037"/><path d="M823.31,694.9s11.779-.365,15.329-2.892,18.119-5.546,18.991-1.49,17.7,20.164,4.383,20.272-30.9-2.074-34.442-4.232S823.31,694.9,823.31,694.9Z" transform="translate(-447.612 -377.128)" fill="#a8a8a8"/><path d="M862.28,716.072c-13.3.107-30.9-2.074-34.442-4.232-2.7-1.641-3.774-7.538-4.134-10.26h-.395s.745,9.5,4.29,11.657,21.143,4.339,34.442,4.232c3.837-.034,5.167-1.4,5.094-3.409C866.6,715.283,865.139,716.047,862.28,716.072Z" transform="translate(-447.612 -383.82)" opacity="0.2"/><rect width="37.996" height="37.996" transform="translate(284.635 237.565)" fill="#3a3768" opacity="0.3"/><rect width="37.996" height="37.996" transform="translate(228.636 187.41)" fill="#3a3768" opacity="0.3"/><rect width="37.996" height="37.996" transform="translate(232.288 286.863)" fill="#3a3768" opacity="0.3"/><rect width="37.996" height="37.996" transform="translate(223.81 94.116)" fill="#fff"/><rect width="37.996" height="37.996" transform="matrix(0.742, -0.671, 0.671, 0.742, 286.837, 249.363)" fill="#fff"/><rect width="37.996" height="37.996" transform="translate(284.006 139.903)" fill="#fff"/><rect width="37.996" height="37.996" transform="translate(235.974 182.267)" fill="#fff"/><path d="M1022.589,776.12a14.812,14.812,0,0,0,6.623-.224c.326-.1.7-.326.657-.662a.778.778,0,0,0-.151-.321,20.674,20.674,0,0,1-2.011-3.813.313.313,0,0,0-.122-.171.3.3,0,0,0-.214,0c-.974.253-1.821.886-2.795,1.154a3.989,3.989,0,0,1-1.519.117c-.438-.049-1.042-.414-1.437-.37C1021.863,773.276,1022.419,774.644,1022.589,776.12Z" transform="translate(-549.355 -419.389)" fill="#1c7fc3"/><path d="M1106.985,766.027a11.316,11.316,0,0,0,3.832-3.6.592.592,0,0,0,.1-.307.632.632,0,0,0-.122-.3,12.478,12.478,0,0,0-3.111-3.36,9.186,9.186,0,0,0-1.739,1.6c-.365.385-1.378,1.018-1.388,1.592,0,.346.385.721.565.974.243.36.487.73.7,1.1A18.281,18.281,0,0,1,1106.985,766.027Z" transform="translate(-591.908 -413.002)" fill="#1c7fc3"/><path d="M1017.627,783.056a1.46,1.46,0,0,1-.263.974,1.3,1.3,0,0,1-.56.326c-3.1,1.105-6.661-.278-9.739.818-.638.224-1.237.545-1.875.76a10.16,10.16,0,0,1-2.323.414c-1.1.107-2.191.17-3.287.2a7.948,7.948,0,0,1-2.474-.214,3,3,0,0,1-1.9-1.5,1.461,1.461,0,0,1-.092-1.071,1.2,1.2,0,0,1,.2-.346,2.964,2.964,0,0,1,.73-.589l1.139-.735a7.62,7.62,0,0,1,1.724-.915c.448-.146.93-.209,1.383-.341a9.551,9.551,0,0,0,3.954-2.956l1.548-1.651a1.517,1.517,0,0,1,.536-.428,1.462,1.462,0,0,1,.662-.068,8.946,8.946,0,0,1,4.222,1.422,6.1,6.1,0,0,0,1.042.614,3.72,3.72,0,0,0,2.922-.365c.4-.209.312-.341.487-.716s.575-.618.925-.273a1.02,1.02,0,0,1,.219.419,11.616,11.616,0,0,1,.209,3.443,1.533,1.533,0,0,0,.068.536,3.257,3.257,0,0,0,.3.487.767.767,0,0,1,.063.127A3.378,3.378,0,0,1,1017.627,783.056Z" transform="translate(-535.726 -421.855)" fill="#514e7f"/><path d="M1017.627,789.071a1.46,1.46,0,0,1-.263.974,1.3,1.3,0,0,1-.56.326c-3.1,1.105-6.661-.278-9.739.818-.638.224-1.237.546-1.875.76a10.159,10.159,0,0,1-2.323.414c-1.1.107-2.191.17-3.287.2a7.948,7.948,0,0,1-2.474-.214,3,3,0,0,1-1.9-1.5,1.461,1.461,0,0,1-.092-1.071,1.2,1.2,0,0,1,.2-.346c.185.38.316.876.428,1.057a2.162,2.162,0,0,0,1.461,1.047,3.708,3.708,0,0,0,1.32-.171c2.8-.7,5.785-.706,8.473-1.758a20.243,20.243,0,0,1,2.776-1.066,22.053,22.053,0,0,1,3-.244c1.583-.127,3.112-.6,4.675-.852A3.376,3.376,0,0,1,1017.627,789.071Z" transform="translate(-535.726 -427.871)" fill="#464353"/><path d="M1105.62,767.936a5.62,5.62,0,0,1-1.709,3.043,19.544,19.544,0,0,0-2.386,2.615c-.808,1.227-1.164,2.741-2.206,3.779a5.968,5.968,0,0,1-1.325.974,9.156,9.156,0,0,1-1.719.789,13.159,13.159,0,0,1-4.87.268,4.323,4.323,0,0,1-1.539-.3,4.46,4.46,0,0,1-.653-.394,3.1,3.1,0,0,1-.974-1.008,1.011,1.011,0,0,1-.093-.726,1.651,1.651,0,0,1,.487-.711,10.98,10.98,0,0,1,1.173-1.057,6.967,6.967,0,0,0,1.529-1.344,4.388,4.388,0,0,0,.589-1.344,12.035,12.035,0,0,0,.428-2.557,8.077,8.077,0,0,1,.18-1.709c.248-.876.9-1.67.823-2.581a.661.661,0,0,1,.034-.39.607.607,0,0,1,.307-.19,5.547,5.547,0,0,1,1.6-.365,1.842,1.842,0,0,1,1.461.579c.229.273.375.653.711.774a1.177,1.177,0,0,0,.487,0,4.142,4.142,0,0,0,2.318-.716,2.922,2.922,0,0,0,.974-2.128c0-.3-.136-.618.326-.682.355-.049.633.321.813.565a7.944,7.944,0,0,1,1.563,2.849.79.79,0,0,1,.3-.058,1.271,1.271,0,0,1,1.062.545A2.1,2.1,0,0,1,1105.62,767.936Z" transform="translate(-583.473 -415.101)" fill="#514e7f"/><path d="M1105.749,771.506a5.619,5.619,0,0,1-1.709,3.043,19.52,19.52,0,0,0-2.386,2.615c-.808,1.227-1.164,2.741-2.206,3.779a5.984,5.984,0,0,1-1.324.974,9.151,9.151,0,0,1-1.719.789,13.157,13.157,0,0,1-4.87.268,4.33,4.33,0,0,1-1.539-.3,4.487,4.487,0,0,1-.652-.394,3.1,3.1,0,0,1-.974-1.008,2.37,2.37,0,0,1,1-.239c.725.039,1.251.721,1.948.93.974.3,1.948-.4,2.965-.638.652-.151,1.344-.107,1.982-.316a4.9,4.9,0,0,0,1.461-.886,7.411,7.411,0,0,0,1.563-1.51,9.615,9.615,0,0,0,.92-1.831,26.154,26.154,0,0,1,1.855-3.55,2.366,2.366,0,0,1,.38-.487c.151-.141.341-.243.487-.37a3.873,3.873,0,0,0,1.178-2.147,3.617,3.617,0,0,1,.263-.716,1.271,1.271,0,0,1,1.062.545A2.106,2.106,0,0,1,1105.749,771.506Z" transform="translate(-583.602 -418.671)" fill="#464353"/><path d="M979.023,551.288a7.071,7.071,0,0,1,1.987,2.323c.487.915,3.16,8.025,3,9.043.876-.886,4.353-1.032,5.225-1.914.37-.37,2.371-2.22,2.668-2.649s2.527-1.349,2.771-1.787c.911-1.631-6.457-7.791-5.517-9.427a.4.4,0,0,0,.078-.253.389.389,0,0,0-.121-.195,11.733,11.733,0,0,0-2.133-1.461,3.407,3.407,0,0,1-1.626-1.948,7,7,0,0,0-1.885,1.276q-2.021,1.729-3.983,3.545c-.516.487-1.5,1.105-1.738,1.782S978.531,550.889,979.023,551.288Z" transform="translate(-526.831 -302.47)" fill="#a1616a"/><path d="M995.1,554.61a21.33,21.33,0,0,0-3.156,2.581,6.313,6.313,0,0,0-2.011,3.219c-.092.487-.078,1-.156,1.5-.326,2.181-2.22,3.784-3.053,5.843a10.01,10.01,0,0,0-.536,1.948,22.946,22.946,0,0,0-.38,3.827c0,1.247,1.2,2.1,1.646,3.267a19.808,19.808,0,0,1,.794,3.54,43.13,43.13,0,0,0,1.992,6.574c1.646,4.543,6.978,17.107,8.624,21.655,5.04-1.266,18.46-4.173,22.921-6.817,1.49-.886-10.323-10.9-8.731-11.589a.8.8,0,0,0,.443-.336.767.767,0,0,0,0-.487c-1.587-6.958-6.569-12.661-8.823-19.478-.784-2.352-2.191-4.358-3.263-6.6-.974-2.026-1.485-4.261-2.639-6.184a4.133,4.133,0,0,0-.842-1.057,5.159,5.159,0,0,0-.935-.56C996.357,555.121,995.744,554.931,995.1,554.61Z" transform="translate(-530.983 -308.416)" fill="#514e7f"/><circle cx="7.889" cy="7.889" r="7.889" transform="translate(444.572 232.248)" fill="#a1616a"/><path d="M997.43,549.044a2.644,2.644,0,0,1,2.965-.424,1.461,1.461,0,0,1,.881,1.422l3.9.058a8.148,8.148,0,0,1,1.855.17,2.7,2.7,0,0,1,1.548.974c.049.063.1.136.18.151a.31.31,0,0,0,.18-.063,3.433,3.433,0,0,1,1.948-.351,10.528,10.528,0,0,1,5.726,2.517,1.856,1.856,0,0,1,.682.833c.136.443,0,1.013.321,1.315,0,3.677,1.261,7.1,2.1,10.679a4.735,4.735,0,0,0,1.183,1.7,6.822,6.822,0,0,1,1.266,1.889c.711,1.855-.273,4.032.423,5.9a9.5,9.5,0,0,0,1.344,2.118,5.461,5.461,0,0,1,1.144,2.736c.029.448-.029.9,0,1.349a8.21,8.21,0,0,0,.321,1.772c.282,1.076.584,2.152.9,3.224.487,1.734,1.169,3.608,2.722,4.534-3.754.638-7.708,1.256-11.287-.044a5.841,5.841,0,0,1-1.407-.706,8.106,8.106,0,0,1-2.469-3.983,18.729,18.729,0,0,1-1.383-5.142,5.881,5.881,0,0,0-.234-1.68,4.7,4.7,0,0,0-2.216-2.089,10.656,10.656,0,0,1-2.664-2.074,4.138,4.138,0,0,1-1.081-3.116c.068-.55.282-1.081.307-1.636a1.31,1.31,0,0,0-.76-1.349c-2.732-.828-4.037-4.061-4.645-6.851a21.85,21.85,0,0,1-.351-4.383l-.034-2.819a3.74,3.74,0,0,1-1.227-2.7,3.036,3.036,0,0,0,0-.891,2.5,2.5,0,0,0-.623-.974,8.233,8.233,0,0,1-1.515-2.065Z" transform="translate(-536.944 -305.202)" fill="#464353"/><path d="M979.592,565.821a20.86,20.86,0,0,1-.088,2.649c-.078.331-.209.648-.307.974a5.746,5.746,0,0,0,.365,3.71,20.586,20.586,0,0,0,1.894,3.287,5,5,0,0,1,.609,1.135,5.872,5.872,0,0,1,.234,1.3,39.575,39.575,0,0,0,.93,5.23,10.274,10.274,0,0,0,1.84,4.2,1.276,1.276,0,0,0,.76.516,1.372,1.372,0,0,0,.647-.136l2.016-.765a1.41,1.41,0,0,0,.487-.253,1.223,1.223,0,0,0,.282-.789,11.6,11.6,0,0,0-.886-4.777c-1.636-4.645-3.808-9.12-4.87-13.927-.3-1.344-.453-3.409-1.432-4.456-.4-.438-.268-.253-.75,0a6.116,6.116,0,0,0-.706.375,2.314,2.314,0,0,0-1.027,1.724Z" transform="translate(-527.511 -312.956)" fill="#464353"/><path d="M1059.24,627.68" transform="translate(-568.656 -345.905)" fill="#464353"/><path d="M992.137,572.009q.8,4.251,1.641,8.507l7.83-2.055a5.485,5.485,0,0,0-.677-2.342c-.716-1.792-.73-3.784-1.31-5.624-.438-1.4-1.2-2.693-1.607-4.1-.238-.818-.355-1.675-.589-2.5a19.039,19.039,0,0,0-.92-2.381,15.169,15.169,0,0,0-1.709-3.17,4.994,4.994,0,0,0-2.639,1.709,3.632,3.632,0,0,0-.487,1.685c-.136,1.763.487,3.53.287,5.274A15.572,15.572,0,0,0,992.137,572.009Z" transform="translate(-533.979 -310.33)" fill="#1c7fc3"/><path d="M1007.785,646.222c.438,1.675-.2,3.409-.716,5.074a39.407,39.407,0,0,0-1.6,7.64,6.327,6.327,0,0,1-.395,1.948,18.231,18.231,0,0,1-.949,1.558,7.805,7.805,0,0,0-.6,4.689c.112,1.052.282,2.1.487,3.136a7.906,7.906,0,0,1,.2,3.818c.618-.136,1.042.662,1.018,1.3s-.248,1.32.054,1.88c.77.278.779,1.334.755,2.147a18.119,18.119,0,0,0,.531,4.207q1.743,8.37,3.7,16.7c2.819.876,6.111,1.787,8.8.575a1.729,1.729,0,0,0,1.115-1.12,2.018,2.018,0,0,0-.107-.862l-1.276-4.636a8.533,8.533,0,0,1-.458-3.409c.126-.862.487-1.787.078-2.542a7.362,7.362,0,0,0-.536-.711c-.672-.974-.321-2.284-.263-3.472a2.718,2.718,0,0,0-.058-.794,4.188,4.188,0,0,0-.375-.872,13.309,13.309,0,0,1-1.461-6.622,1.626,1.626,0,0,0-.117-.867,1.98,1.98,0,0,1-.214-.351.94.94,0,0,1,.068-.638,5.545,5.545,0,0,1-1.027-.974,1.461,1.461,0,0,0,.243-2.25.75.75,0,0,0,.36-1.29c-.166-.117-.38-.166-.487-.331-.18-.244-.034-.589.112-.852l.779-1.407c.579-1.042.711-2.333,1.334-3.35a25.14,25.14,0,0,0,2.055-4.689l2.22-6.184,1.51,1.31a4.725,4.725,0,0,1,1.242,1.417,5.969,5.969,0,0,1,.4,1.695c.555,3.36,2.673,6.272,3.457,9.588a6.454,6.454,0,0,0,.711,2.143,4.664,4.664,0,0,1,.409.614,3.225,3.225,0,0,1,.171,1.018,4.744,4.744,0,0,0,2,3.409c.74.487,1.68.862,2.07,1.67a3.309,3.309,0,0,0,.341.711c.36.433,1.14.487,1.3,1.027.083.307-.078.667.1.935a.853.853,0,0,0,.365.273l2.177,1.091c2.435,1.213,3.662,3.993,5.459,6.033a12.53,12.53,0,0,1,1.631,2.162c.774,1.383,1.134,3.121,2.435,4.012a3.785,3.785,0,0,1,.945.7c.414.541.263,1.3.3,1.982s.56,1.49,1.208,1.286a4.7,4.7,0,0,0,0,2.518,12.69,12.69,0,0,0,7.694-3.116,3.035,3.035,0,0,0,1.251-2.1.811.811,0,0,0-.093-.419,1.137,1.137,0,0,0-.487-.37c-2.031-1.1-2.644-3.652-3.662-5.726a47.991,47.991,0,0,0-3.35-5.1c-2.435-3.652-4.061-8.069-7.718-10.484a5.23,5.23,0,0,1-2.138-1.88,15.035,15.035,0,0,1-.429-1.558,1.309,1.309,0,0,0-1.144-.974,6.953,6.953,0,0,0,.263-2.435,3.028,3.028,0,0,0-.122-1.047,4.949,4.949,0,0,0-.536-1.032,10.007,10.007,0,0,1-1.378-5.357,8.621,8.621,0,0,0-.093-2.878c-.146-.487-.4-.891-.579-1.344a8.38,8.38,0,0,1-.419-2.508l-.2-3.209a15.357,15.357,0,0,0-.414-3.17c-.677-2.488-1.325-12.914-3.618-14.087s-6.209,6.847-8.765,7.007a11.681,11.681,0,0,0-3.35.643,16.233,16.233,0,0,0-4.543,3.014l-4.733,3.973a17.24,17.24,0,0,1-2.936,2.118Z" transform="translate(-540.024 -346.761)" fill="#464353"/><path d="M963.592,521.82a5.951,5.951,0,0,1,4.592-2.24,10.712,10.712,0,0,1,5.074,1.276,6.541,6.541,0,0,0,1.461.609c.838.17,1.763-.059,2.518.341,1,.531,1.193,1.885,1.105,3.014s-.3,2.367.3,3.336a9.272,9.272,0,0,1,.579.867,2.892,2.892,0,0,1-.054,1.855,14.928,14.928,0,0,1-.974-1.222,1.133,1.133,0,0,0-1.378-.36c-.428.287-.428.818-.448,1.29s-.146,1.042-.594,1.2a.974.974,0,0,1-.974-.39c-.765-.935-.458-2.435-1.213-3.37-.433-.536-1.149-.794-1.549-1.354-.312-.438-.39-1.008-.662-1.461s-.911-.823-1.339-.487a1.82,1.82,0,0,0-.355.487,2.05,2.05,0,0,1-2.435.73,4.275,4.275,0,0,0-1.057-.453,1.3,1.3,0,0,0-1.2.653,2.589,2.589,0,0,0-.316,1.393,3.24,3.24,0,0,1-.263,1.914,1.976,1.976,0,0,1-.565.487,1.672,1.672,0,0,1-1.851.19,1.393,1.393,0,0,1-.414-1.3,10.654,10.654,0,0,1,.394-1.368c.292-1.032-.088-2.2.234-3.17A9.981,9.981,0,0,1,963.592,521.82Z" transform="translate(-518.537 -290.444)" fill="#464353"/><path d="M974.393,557.553a1.22,1.22,0,0,0,.073.726,1.18,1.18,0,0,0,.395.38,8.169,8.169,0,0,0,3.72,1.2,1.121,1.121,0,0,1,.487.131.921.921,0,0,1,.219,1.037,2.755,2.755,0,0,0-.234,1.1c.1.7.92,1.013,1.622,1.1a3.76,3.76,0,0,0,2.819-.545,4.35,4.35,0,0,0,1.164-1.748c1.914-4.383,2.585-9.252,4.524-13.634a2.778,2.778,0,0,0,.292-.911.906.906,0,0,0-.36-.842c-.36-.224-.92-.1-1.164-.443-.122-.18-.107-.419-.214-.6-.224-.4-.808-.351-1.213-.565-.312-.171-.531-.487-.876-.58a1.12,1.12,0,0,0-.915.394,11.768,11.768,0,0,0-2.367,3.988,47.342,47.342,0,0,1-3.409,6.286,3.632,3.632,0,0,0-1.062-2.079c-.594-.122-1.363.925-1.685,1.32A8.357,8.357,0,0,0,974.393,557.553Z" transform="translate(-525.113 -302.643)" fill="#1c7fc3"/><rect width="37.996" height="37.996" transform="translate(453.264 261.143)" fill="#fff"/><path d="M1057.229,626.267a15.346,15.346,0,0,0-1.8,1.889,3.764,3.764,0,0,0-.828,2.435,1.251,1.251,0,0,0,.234.711.609.609,0,0,0,.677.209.974.974,0,0,0,.331-.3,15.621,15.621,0,0,1,1.12-1.217c.146-.141.331-.292.526-.239a.553.553,0,0,1,.229.151,1.55,1.55,0,0,1,.487.735,1.742,1.742,0,0,1-.516,1.417,3.673,3.673,0,0,0-.872,1.29.551.551,0,0,0,0,.414.677.677,0,0,0,.258.224,3.759,3.759,0,0,0,3.151.2c.677-.268,1.261-.735,1.948-.974a4.686,4.686,0,0,0,.862-.321,1.771,1.771,0,0,0,.764-1.14,4.865,4.865,0,0,0,.054-1.407,16.071,16.071,0,0,0-1.174-5.308.633.633,0,0,0-.19-.282.666.666,0,0,0-.322-.092c-.852-.088-2.255-.526-3.077-.209a2.1,2.1,0,0,0-.725.648C1058.173,625.279,1057.229,626.043,1057.229,626.267Z" transform="translate(-566.275 -344.195)" fill="#a1616a"/><path d="M1046.8,593.882c0-.818-1.013-2.78.589-2.922,0-.867-1.232-1.412-1.008-2.328.078-.312.326-.56.365-.872.1-.891-1.5-1.373-1.242-2.23.1-.326.453-.526.531-.857.18-.769-1.2-1.115-1.222-1.9,0-.268.146-.521.136-.784,0-.336-.292-.589-.453-.877-.414-.745-.214-1.9-.974-2.279.487.039.677-.706.463-1.164s-.633-.852-.633-1.359a2.161,2.161,0,0,0,0-.56c-.141-.487-.94-.521-1.071-1.008a5.235,5.235,0,0,1,0-.55c-.049-.38-.438-.614-.8-.726a3.2,3.2,0,0,1-1.071-.38c-.234-.18-.487-.487-.755-.317-.092.054-.141.161-.214.243-.3.346-.867.195-1.247-.063a5.157,5.157,0,0,1-1.909-3.438c-.243-1.325-.229-2.693-.521-4.008a9.176,9.176,0,0,0-.355-1.2,6.2,6.2,0,0,1-.565-1.2c-.058-.765,1.529-.244,2.133-.166a9.461,9.461,0,0,1,1.734.326,18.356,18.356,0,0,1,1.768.774c2.435,1.066,5.317,1.2,7.255,2.985a6.031,6.031,0,0,0,2,1.622,10.163,10.163,0,0,1,1.12.292c.92.433,1.062,1.651,1.563,2.532a5.435,5.435,0,0,1,.414.73,2.89,2.89,0,0,1,.131.935l.068,2.313a85.44,85.44,0,0,1-.185,11.609,9.579,9.579,0,0,0,.044,3.8c.1.331.239.648.321.974a6.612,6.612,0,0,1,.127,1.2l.054,1.495a.361.361,0,0,1-.477.443c-2.089-.185-4.192-1.363-6.165-.652" transform="translate(-556.136 -312.565)" fill="#464353"/><path d="M979.07,613.641a.643.643,0,0,0-.234.195,1.661,1.661,0,0,0,0,1.977.663.663,0,0,1,.117.195.576.576,0,0,1-.058.331,1.1,1.1,0,0,0,.151,1.227c.151.127.355.19.453.356.17.282-.068.643-.029.974.048.433.56.648.974.7a1.037,1.037,0,0,0,.95-.253.788.788,0,0,0,0-.862,2.309,2.309,0,0,0-.643-.643.974.974,0,0,0,.92-.891,1.382,1.382,0,0,0-.555-1.213c-.088-.073-.195-.146-.219-.263s.093-.278.2-.39c.487-.487.862-1.68-.054-1.948a2.254,2.254,0,0,0-.974.044c-.234.073-.234.214-.414.312S979.275,613.539,979.07,613.641Z" transform="translate(-527.237 -338.425)" fill="#a1616a"/><path d="M995.411,545.14a1.607,1.607,0,0,0-1.237.623,3.56,3.56,0,0,0-.516,1.656,14.513,14.513,0,0,1-1.948,5.288" transform="translate(-534.01 -303.558)" opacity="0.1"/><path d="M998.967,547.88a1.889,1.889,0,0,0-1.617.974,5.406,5.406,0,0,0-.409,1.651,8.972,8.972,0,0,1-1.622,3.462" transform="translate(-535.862 -304.963)" opacity="0.1"/><path d="M333.024,606.174c.282,3.078-2.04,6.058-1.363,9.067.146.643.424,1.252.526,1.9.278,1.787-.789,3.482-1.807,4.976l-8.736,12.826a8.307,8.307,0,0,1-1.251,1.544c-1.675,1.461-4.178,1.329-6.374,1.772a10.936,10.936,0,0,0-4.266,1.889.278.278,0,0,0-.058.385,3.677,3.677,0,0,0,3.175,1.49c.229.3,0,.745-.317.974-.487.326-1.115.409-1.208,1.208a1.3,1.3,0,0,0,.161.8,2.469,2.469,0,0,0,1.529,1.062c3.024.925,6.3-.7,8.556-2.922s3.9-5,6.116-7.255c1.232-1.242,2.629-2.313,3.9-3.521A44.822,44.822,0,0,0,338,624.089a9.187,9.187,0,0,0,1.383-2.815c.234-1,.127-2.06.4-3.053a11.013,11.013,0,0,1,2.094-3.409,11.316,11.316,0,0,0,2.381-7.377,7.063,7.063,0,0,0-4.314-6.121,3.861,3.861,0,0,0-2.435-.151,5.876,5.876,0,0,0-2.464,1.948l-1.656,1.918a4.423,4.423,0,0,0-.974,1.461,1.534,1.534,0,0,0,.341,1.631" transform="translate(-184.072 -332.234)" fill="#fbbebe"/><path d="M333.024,606.174c.282,3.078-2.04,6.058-1.363,9.067.146.643.424,1.252.526,1.9.278,1.787-.789,3.482-1.807,4.976l-8.736,12.826a8.307,8.307,0,0,1-1.251,1.544c-1.675,1.461-4.178,1.329-6.374,1.772a10.936,10.936,0,0,0-4.266,1.889.278.278,0,0,0-.058.385,3.677,3.677,0,0,0,3.175,1.49c.229.3,0,.745-.317.974-.487.326-1.115.409-1.208,1.208a1.3,1.3,0,0,0,.161.8,2.469,2.469,0,0,0,1.529,1.062c3.024.925,6.3-.7,8.556-2.922s3.9-5,6.116-7.255c1.232-1.242,2.629-2.313,3.9-3.521A44.822,44.822,0,0,0,338,624.089a9.187,9.187,0,0,0,1.383-2.815c.234-1,.127-2.06.4-3.053a11.013,11.013,0,0,1,2.094-3.409,11.316,11.316,0,0,0,2.381-7.377,7.063,7.063,0,0,0-4.314-6.121,3.861,3.861,0,0,0-2.435-.151,5.876,5.876,0,0,0-2.464,1.948l-1.656,1.918a4.423,4.423,0,0,0-.974,1.461,1.534,1.534,0,0,0,.341,1.631" transform="translate(-184.072 -332.234)" opacity="0.05"/><path d="M216.159,617.719c.487,1.539.974,3.078,1.563,4.577a38.731,38.731,0,0,0,4.047,7.382,53.176,53.176,0,0,0,3.345,4.382c1.49,1.758,3.155,3.526,3.681,5.77a29.228,29.228,0,0,1,.331,3.978,4.858,4.858,0,0,0,1.631,3.525,6.062,6.062,0,0,0,2.688.886c.672.107,1.514.141,1.865-.443a1.662,1.662,0,0,0,.185-.77l.166-1.948c.034-.419.18-.974.6-.974s.633.54.974.789a1.057,1.057,0,0,0,1.461-.487,2.435,2.435,0,0,0,.039-1.7,8.093,8.093,0,0,0-4.154-5.147,12.484,12.484,0,0,1-2.026-1.057,6.889,6.889,0,0,1-1.592-2.006c-3.681-6.063-7.382-12.174-9.982-18.752a13.873,13.873,0,0,1-1.027-3.7,23.863,23.863,0,0,1,.161-3.9,22.3,22.3,0,0,0-.643-6.954,5.47,5.47,0,0,0-.667-1.69,3.781,3.781,0,0,0-5.171-.745,5.327,5.327,0,0,0-2.055,3.759c-.117,1.31.643,2.678,1.027,3.9Q214.392,612.056,216.159,617.719Z" transform="translate(-133.754 -330.704)" fill="#a1616a"/><path d="M216.159,617.719c.487,1.539.974,3.078,1.563,4.577a38.731,38.731,0,0,0,4.047,7.382,53.176,53.176,0,0,0,3.345,4.382c1.49,1.758,3.155,3.526,3.681,5.77a29.228,29.228,0,0,1,.331,3.978,4.858,4.858,0,0,0,1.631,3.525,6.062,6.062,0,0,0,2.688.886c.672.107,1.514.141,1.865-.443a1.662,1.662,0,0,0,.185-.77l.166-1.948c.034-.419.18-.974.6-.974s.633.54.974.789a1.057,1.057,0,0,0,1.461-.487,2.435,2.435,0,0,0,.039-1.7,8.093,8.093,0,0,0-4.154-5.147,12.484,12.484,0,0,1-2.026-1.057,6.889,6.889,0,0,1-1.592-2.006c-3.681-6.063-7.382-12.174-9.982-18.752a13.873,13.873,0,0,1-1.027-3.7,23.863,23.863,0,0,1,.161-3.9,22.3,22.3,0,0,0-.643-6.954,5.47,5.47,0,0,0-.667-1.69,3.781,3.781,0,0,0-5.171-.745,5.327,5.327,0,0,0-2.055,3.759c-.117,1.31.643,2.678,1.027,3.9Q214.392,612.056,216.159,617.719Z" transform="translate(-133.754 -330.704)" opacity="0.05"/><path d="M364.7,753.446a10.2,10.2,0,0,1-6.506.974c-.355-.044-.779-.073-1.008.2-.331.4.058.974.463,1.315a9.679,9.679,0,0,0,4.47,1.836,30.5,30.5,0,0,0,4.383.292,74.12,74.12,0,0,0,11.945-.443,1.583,1.583,0,0,0,.652-.19,1.237,1.237,0,0,0,.487-.75,2.985,2.985,0,0,0-1.042-2.844,8.766,8.766,0,0,0-2.785-1.495L372.294,751c-.813-.317-2.123-1.159-3-1.091C367.653,750.013,366.08,752.638,364.7,753.446Z" transform="translate(-208.402 -408.612)" fill="#3f3d56"/><path d="M383.134,769a8.516,8.516,0,0,1-5.819,2.172c-.545,0-1.3.1-1.3.648a.857.857,0,0,0,.156.453,5.355,5.355,0,0,0,3.009,2.357,10.712,10.712,0,0,0,3.633.229l3.555-.185c.672-.034,1.349-.068,2.016-.151s1.393-.219,2.089-.326a27.868,27.868,0,0,1,5.176-.243,1.5,1.5,0,0,0,1.276-.341c.317-.4.132-.974.029-1.461-.214-1.027,0-2.109-.2-3.146a5.53,5.53,0,0,0-3.628-3.862c-1.6-.609-4.431-1.305-5.946-.292C385.549,765.925,384.571,767.7,383.134,769Z" transform="translate(-218.123 -416.017)" fill="#3f3d56"/><path d="M373.448,658.7c-1.461,1.923-2.922,4.144-2.581,6.52a14.7,14.7,0,0,0,1.436,3.6,25.364,25.364,0,0,1,1.461,5.055c.541,2.518,1.081,5.04,1.417,7.591a47.4,47.4,0,0,1,.317,8.716,2.94,2.94,0,0,1-.609,1.948c-.195.195-.448.355-.531.618a1.047,1.047,0,0,0,.112.73,8.088,8.088,0,0,0,4.334,3.988,16.6,16.6,0,0,0,5.892,1.1,1.656,1.656,0,0,0,.789-.1,1.52,1.52,0,0,0,.609-.7c1.461-2.776.648-6.126.672-9.252,0-2.615.633-5.205.521-7.82-.093-2.094-.653-4.139-.857-6.228a36.862,36.862,0,0,1,.92-10.25c.487-2.591.974-5.186,1.583-7.752a14.783,14.783,0,0,1,1.675-4.5c.682-1.076,1.607-1.977,2.386-2.99a13.571,13.571,0,0,0,2.668-9.919c-.049-.351-5.016,1.256-5.444,1.461a16.881,16.881,0,0,0-4.869,3.121,40.332,40.332,0,0,0-3.058,3.779q-2.133,2.6-4.2,5.22Q375.737,655.648,373.448,658.7Z" transform="translate(-215.458 -351.717)" fill="#464353"/><path d="M373.448,658.7c-1.461,1.923-2.922,4.144-2.581,6.52a14.7,14.7,0,0,0,1.436,3.6,25.364,25.364,0,0,1,1.461,5.055c.541,2.518,1.081,5.04,1.417,7.591a47.4,47.4,0,0,1,.317,8.716,2.94,2.94,0,0,1-.609,1.948c-.195.195-.448.355-.531.618a1.047,1.047,0,0,0,.112.73,8.088,8.088,0,0,0,4.334,3.988,16.6,16.6,0,0,0,5.892,1.1,1.656,1.656,0,0,0,.789-.1,1.52,1.52,0,0,0,.609-.7c1.461-2.776.648-6.126.672-9.252,0-2.615.633-5.205.521-7.82-.093-2.094-.653-4.139-.857-6.228a36.862,36.862,0,0,1,.92-10.25c.487-2.591.974-5.186,1.583-7.752a14.783,14.783,0,0,1,1.675-4.5c.682-1.076,1.607-1.977,2.386-2.99a13.571,13.571,0,0,0,2.668-9.919c-.049-.351-5.016,1.256-5.444,1.461a16.881,16.881,0,0,0-4.869,3.121,40.332,40.332,0,0,0-3.058,3.779q-2.133,2.6-4.2,5.22Q375.737,655.648,373.448,658.7Z" transform="translate(-215.458 -351.717)" opacity="0.05"/><path d="M390.362,641.258c.312,1.49,1.758,2.63,1.8,4.154.034,1.217-.833,2.24-1.461,3.287a22.048,22.048,0,0,0-1.49,3.379,51.528,51.528,0,0,1-4.382,8.7c-.833,1.325-1.768,2.761-1.573,4.314a6.368,6.368,0,0,0,.755,2.06l2.5,4.972a14.267,14.267,0,0,1,1.276,3.141c.219.945.239,1.948.365,2.883.394,3.048,1.821,6.116.974,9.072-.073.253-.341.56-.54.385a9.473,9.473,0,0,1,1.427,4.869,6.779,6.779,0,0,0,.029,2.732,2.982,2.982,0,0,1,.38,1.042c0,.248-.117.487-.141.735a1.628,1.628,0,0,0,1.247,1.514c.672.224,1.4.209,2.079.409,1.3.39,2.23,1.51,3.35,2.289a7.037,7.037,0,0,0,3.842,1.251.973.973,0,0,0,.565-.112.925.925,0,0,0,.316-.686,3.818,3.818,0,0,0-1.378-3.316,1.535,1.535,0,0,1-.487-.535,1.3,1.3,0,0,1-.049-.6,44.4,44.4,0,0,0-.146-8.205,12.662,12.662,0,0,1-.127-2.61,10.674,10.674,0,0,0,.209-2.177,11.112,11.112,0,0,0-.667-2.079,14.578,14.578,0,0,1-.317-3.9,34.146,34.146,0,0,0-1.1-6.666,5.06,5.06,0,0,0-1.037-2.406c-.521-.545-1.363-1.062-1.164-1.787a2.064,2.064,0,0,1,.487-.711,2.854,2.854,0,0,0,.6-2.177.974.974,0,0,0,1.12-.526,17.53,17.53,0,0,0,8.8-10.012,3.253,3.253,0,0,1,.394-.891,4.063,4.063,0,0,1,1.612-1.047,12.221,12.221,0,0,0,4.232-4.314,10.036,10.036,0,0,0,1.636-3.131,10.312,10.312,0,0,0,.224-2.26l.1-3.9a2.237,2.237,0,0,0-.073-.765,1.948,1.948,0,0,0-.424-.623,7.563,7.563,0,0,0-4.159-2.24c-1.066-.19-2.157-.156-3.238-.243-2.094-.175-4.163-.823-6.262-.672a10.074,10.074,0,0,0-7.791,5.439C392.105,640.347,391.531,641.224,390.362,641.258Z" transform="translate(-221.825 -349.067)" fill="#464353"/><path d="M172.713,759.561a5.3,5.3,0,0,0,2.24.268c.054-.618.886-.755,1.5-.726a1.729,1.729,0,0,1,.886.195c.156.1.273.243.424.346a1.824,1.824,0,0,0,.876.224l3.224.273a9.653,9.653,0,0,0,4.275-.282,1.4,1.4,0,0,0,.687-.458c.365-.521,0-1.271-.487-1.651s-1.154-.555-1.66-.945c-1.12-.852-1.271-2.435-1.865-3.72a10.737,10.737,0,0,0-1.539-2.235,8.551,8.551,0,0,0-1.524-1.558c-1.29-.935-2.78-.915-4.295-1.047-1.071-.1-2.079-.161-2.849.789-.95,1.178-.57,3.555-.511,4.962a35.523,35.523,0,0,0,.614,5.566Z" transform="translate(-113.442 -407.735)" fill="#514e7f"/><path d="M172.713,759.561a5.3,5.3,0,0,0,2.24.268c.054-.618.886-.755,1.5-.726a1.729,1.729,0,0,1,.886.195c.156.1.273.243.424.346a1.824,1.824,0,0,0,.876.224l3.224.273a9.653,9.653,0,0,0,4.275-.282,1.4,1.4,0,0,0,.687-.458c.365-.521,0-1.271-.487-1.651s-1.154-.555-1.66-.945c-1.12-.852-1.271-2.435-1.865-3.72a10.737,10.737,0,0,0-1.539-2.235,8.551,8.551,0,0,0-1.524-1.558c-1.29-.935-2.78-.915-4.295-1.047-1.071-.1-2.079-.161-2.849.789-.95,1.178-.57,3.555-.511,4.962a35.523,35.523,0,0,0,.614,5.566Z" transform="translate(-113.442 -407.735)" opacity="0.05"/><path d="M168.21,640.11a2.257,2.257,0,0,0-1.232,2.566,9.213,9.213,0,0,0,1.3,2.8c1.432,2.566,2.055,5.5,3.258,8.181.9,2,2.118,3.852,3.009,5.843a9.831,9.831,0,0,1,.9,6.4c-.263,1.037-.769,1.992-1.11,3a17.046,17.046,0,0,0-.653,3.409,64.6,64.6,0,0,0-.234,11.765,3.574,3.574,0,0,0,.3,1.393c.2.39.55.8.38,1.2-.068.161-.214.278-.287.438-.2.448.209.915.584,1.232a1.008,1.008,0,0,1-.633.487,1.5,1.5,0,0,1,.638,1.665c-.336.049-.355.56-.141.828s.541.438.691.74a1.037,1.037,0,0,1-.57,1.305,2.67,2.67,0,0,1-1.553.117,16.842,16.842,0,0,1-2.6-.57,2.336,2.336,0,0,1-.8-.365,2.372,2.372,0,0,1-.716-1.578,28.513,28.513,0,0,1-.18-4.869c.141-7.869,0-15.748-.341-23.612a27.036,27.036,0,0,0-2.318-9.174,47.05,47.05,0,0,0-2.259-4.383c-1.763-3.243-3.331-6.817-2.922-10.494.044-.394.19-.872.579-.935a.843.843,0,0,1,.448.073,20.693,20.693,0,0,1,2.362,1.3,8.951,8.951,0,0,0,4.1,1.227Z" transform="translate(-107.634 -350.943)" fill="#464353"/><path d="M168.21,640.11a2.257,2.257,0,0,0-1.232,2.566,9.213,9.213,0,0,0,1.3,2.8c1.432,2.566,2.055,5.5,3.258,8.181.9,2,2.118,3.852,3.009,5.843a9.831,9.831,0,0,1,.9,6.4c-.263,1.037-.769,1.992-1.11,3a17.046,17.046,0,0,0-.653,3.409,64.6,64.6,0,0,0-.234,11.765,3.574,3.574,0,0,0,.3,1.393c.2.39.55.8.38,1.2-.068.161-.214.278-.287.438-.2.448.209.915.584,1.232a1.008,1.008,0,0,1-.633.487,1.5,1.5,0,0,1,.638,1.665c-.336.049-.355.56-.141.828s.541.438.691.74a1.037,1.037,0,0,1-.57,1.305,2.67,2.67,0,0,1-1.553.117,16.842,16.842,0,0,1-2.6-.57,2.336,2.336,0,0,1-.8-.365,2.372,2.372,0,0,1-.716-1.578,28.513,28.513,0,0,1-.18-4.869c.141-7.869,0-15.748-.341-23.612a27.036,27.036,0,0,0-2.318-9.174,47.05,47.05,0,0,0-2.259-4.383c-1.763-3.243-3.331-6.817-2.922-10.494.044-.394.19-.872.579-.935a.843.843,0,0,1,.448.073,20.693,20.693,0,0,1,2.362,1.3,8.951,8.951,0,0,0,4.1,1.227Z" transform="translate(-107.634 -350.943)" opacity="0.05"/><path d="M140.3,622.641a2.6,2.6,0,0,0-3.579.385,19.55,19.55,0,0,0-1.85,1.626,9.9,9.9,0,0,0-2.211,9.792,19.568,19.568,0,0,0,2.707,4.8l2.143,3.077c3.267,4.694,6.54,9.388,9.963,13.971a.526.526,0,0,0,.37.487c.127.034.278.029.355.132a.38.38,0,0,1,.044.209,3.179,3.179,0,0,1-.19.974.453.453,0,0,0-.039.336c.107.258.579.112.726.355a.387.387,0,0,1-.156.487.563.563,0,0,0-.268.487c.024.2.351.385.336.628,0,.136-.117.239-.2.346a.881.881,0,0,0,.107,1.125c.224,2.24-.974,4.358-1.232,6.6-.385,3.521,1.208,6.959,1.4,10.494a2.809,2.809,0,0,0,.219,1.159c.331.609,1.178.974,1.149,1.67a6.374,6.374,0,0,1-.239.842,6.776,6.776,0,0,0,.127,1.2c0,.4-.341.886-.716.73q.424,1.4.75,2.829l7.5.618a6.734,6.734,0,0,0-.068-2.026c-.156-.721-.487-1.4-.652-2.118a2.5,2.5,0,0,1,.3-2.118.828.828,0,0,1-.828-.682,3.339,3.339,0,0,1,0-1.164c.2-1.948-.623-3.9-.6-5.843a28.148,28.148,0,0,1,.842-4.553c.584-3.253-.024-6.783,1.422-9.739.877-1.792,2.089-3.779,1.105-5.512-.487-.857-1.339-1.461-1.894-2.25a9.141,9.141,0,0,1-1.018-2.435,82.243,82.243,0,0,0-4.665-10.284,10.824,10.824,0,0,1-1-2.7,13.734,13.734,0,0,1-.122-2.493,38.22,38.22,0,0,0-.278-4.48,3.265,3.265,0,0,0-1.714-2.922C145.889,625.007,142.958,624.038,140.3,622.641Z" transform="translate(-93.031 -343.042)" fill="#464353"/><path d="M166.485,765.206a5.3,5.3,0,0,0,2.24.268c.058-.618.886-.755,1.5-.726a1.73,1.73,0,0,1,.862.2c.156.1.273.243.429.346a1.792,1.792,0,0,0,.877.224l3.219.273a9.678,9.678,0,0,0,4.28-.282,1.407,1.407,0,0,0,.682-.458c.365-.521,0-1.271-.487-1.651s-1.154-.555-1.665-.945c-1.115-.852-1.271-2.435-1.865-3.72a10.735,10.735,0,0,0-1.539-2.235,8.528,8.528,0,0,0-1.519-1.558c-1.3-.935-2.78-.916-4.295-1.047-1.076-.1-2.084-.161-2.849.789-.974,1.178-.575,3.555-.516,4.962a36.178,36.178,0,0,0,.643,5.561Z" transform="translate(-110.229 -410.633)" fill="#514e7f"/><rect width="37.996" height="37.996" transform="translate(96.917 298.092)" fill="#fff"/><circle cx="7.426" cy="7.426" r="7.426" transform="translate(82.06 251.764)" fill="#a1616a"/><path d="M206.059,584.309c-1.066.92-2.591.974-3.988,1.13a24.927,24.927,0,0,0-8.58,2.483,3.063,3.063,0,0,0-.974.682,2.81,2.81,0,0,0-.487,1.061,7.022,7.022,0,0,0-.282,2.581,7.44,7.44,0,0,0,.716,2.435,13.069,13.069,0,0,0,4.607,5.249,3.345,3.345,0,0,0,1.12.536c.974.2,1.923-.365,2.883-.618a4.722,4.722,0,0,1,2.664.088c.808.268,1.661.76,2.435.433a2.542,2.542,0,0,0,1.11-1.261,42.8,42.8,0,0,0,2.026-4.436,16.81,16.81,0,0,1,.735-1.724c.862-1.641,2.352-2.922,3.092-4.606a1.013,1.013,0,0,0,.068-.867,1.2,1.2,0,0,0-.545-.419,13.013,13.013,0,0,1-2.966-2.328c-.487-.487-1.388-1.734-2.089-1.846C206.834,582.78,206.6,583.852,206.059,584.309Z" transform="translate(-123.576 -322.918)" fill="#a1616a"/><path d="M183.476,604.817a4.432,4.432,0,0,1-2.81.034,31.009,31.009,0,0,1-7.061-2.055,3.779,3.779,0,0,1-1.734-1.329,4.252,4.252,0,0,1-.487-1.665l-.409-2.761a16.738,16.738,0,0,1,.127-2.834.828.828,0,0,0-.161-.619.667.667,0,0,0-.487-.151c-1.115,0-1.787,1.183-2.571,1.977a4.748,4.748,0,0,1-1.578,1.062c-.716.292-1.6.487-1.884,1.213-.122.3-.107.638-.229.935-.487,1.188-2.629.794-3.17,1.948-.156.331-.146.75-.4,1.013s-.73.253-1.12.321c-1.548.253-2.3,2.045-3.628,2.888-1.115.711-2.552.7-3.749,1.251a14.349,14.349,0,0,1-1.948.974,9.2,9.2,0,0,1-2.259.112.609.609,0,0,0-.453.146.623.623,0,0,0-.073.487,13.668,13.668,0,0,0,8.449,10.581,2.986,2.986,0,0,1,.721.346c.677.487.794,1.592,1.558,1.948a1.612,1.612,0,0,0,1.626-.351,14.15,14.15,0,0,0,1.174-1.3,4.676,4.676,0,0,1,2.615-1.373c.92-.146,1.948-.039,2.693-.6a8.293,8.293,0,0,0,.847-.906,5.313,5.313,0,0,1,1.948-1.149,19.477,19.477,0,0,1,6.087-1.286c1.948-.112,3.969.068,5.814-.57a3.41,3.41,0,0,0,1.3-.73,3.9,3.9,0,0,0,.867-1.5A11.487,11.487,0,0,0,183.476,604.817Z" transform="translate(-100.817 -328.335)" fill="#514e7f"/><path d="M197.485,594.171c.55-.049,1.1,0,1.651,0,.648,0,1.286-.156,1.948-.161a4.8,4.8,0,0,1,4.529,3.448.877.877,0,0,1,.029.487.346.346,0,0,1-.375.253,8.234,8.234,0,0,0-.833-1.67,4.728,4.728,0,0,0-2.493-1.733,6.472,6.472,0,0,0-3.068-.112c-.419.078-.833.19-1.247.307l-2.021.545c-.365.1-.73.2-1.086.331-.273.1-.745.487-1.013.487-.365,0-.068-.317.093-.531a2.6,2.6,0,0,1,1.3-.94A10.894,10.894,0,0,1,197.485,594.171Z" transform="translate(-124.399 -328.63)" fill="#514e7f"/><path d="M207.33,619.414c.487,1.539.974,3.077,1.563,4.577a38.733,38.733,0,0,0,4.051,7.382,53.208,53.208,0,0,0,3.345,4.383c1.49,1.758,3.155,3.525,3.681,5.77a29.222,29.222,0,0,1,.331,3.978,4.858,4.858,0,0,0,1.631,3.526,6.061,6.061,0,0,0,2.688.886c.672.107,1.514.141,1.865-.443a1.66,1.66,0,0,0,.185-.769l.161-1.948c.039-.419.185-.974.6-.974s.633.541.974.789a1.057,1.057,0,0,0,1.461-.487,2.469,2.469,0,0,0,.039-1.7,8.093,8.093,0,0,0-4.144-5.152,12.478,12.478,0,0,1-2.026-1.057,6.817,6.817,0,0,1-1.592-2.006c-3.686-6.062-7.387-12.174-9.982-18.752a13.875,13.875,0,0,1-1.027-3.7,23.856,23.856,0,0,1,.161-3.9,22.3,22.3,0,0,0-.628-6.963,5.469,5.469,0,0,0-.667-1.69,3.781,3.781,0,0,0-5.171-.745,5.327,5.327,0,0,0-2.055,3.759c-.117,1.31.643,2.678,1.027,3.9Q205.567,613.75,207.33,619.414Z" transform="translate(-129.239 -331.566)" fill="#a1616a"/><path d="M230.071,563.837c.058-.618-.487-1.178-1.125-1.573a15.7,15.7,0,0,1-1.909-1.169c-.565-.487-.872-1.125-1.436-1.612a6.333,6.333,0,0,0-2.143-1.066,16.269,16.269,0,0,0-5.123-.92,9.022,9.022,0,0,0-4.9,1.3,2.923,2.923,0,0,0-.833.774,3.41,3.41,0,0,0-.4,1.232,24.356,24.356,0,0,1-1.281,3.9,9.038,9.038,0,0,1-2.435,3.935c-1.388,1.159-3.516,1.826-4.431,3.224a1.047,1.047,0,0,0-.2.9c.131.351.555.589.94.813a12.762,12.762,0,0,1,5.2,4.977,5.77,5.77,0,0,1-.458,6.209c-.521.682-1.242,1.49-.73,2.177.774,1.042,3.448.448,4.061,1.549a2.2,2.2,0,0,1,.083,1.139c0,1.154,1.115,2.186,2.469,2.717a13.769,13.769,0,0,0,4.441.73,3.838,3.838,0,0,0,.112-2.873,1.149,1.149,0,0,1-.112-.653,1.568,1.568,0,0,1,.487-.628c1.631-1.539,1.286-3.8.307-5.629s-2.5-3.5-3.063-5.425a2.755,2.755,0,0,1,.487-2.824,9.827,9.827,0,0,1,1.4-1.023,5.313,5.313,0,0,0,1.948-2.435c.453-1.266.385-2.79,1.719-3.628s3.063-.565,4.47-1.105A4.791,4.791,0,0,0,230.071,563.837Z" transform="translate(-129.779 -309.896)" fill="#464353"/><circle cx="8.098" cy="8.098" r="8.098" transform="translate(133.832 248.468)" fill="#fbbebe"/><path d="M350.06,573.574a10.5,10.5,0,0,0,6.72,4.7l-.609,2.211c-1.052,3.808-2.24,7.84-5.181,10.479a4.9,4.9,0,0,0-.823-3.789,14.346,14.346,0,0,0-2.746-2.873l-4.66-4.056a1.27,1.27,0,0,1-.351-.39,1.188,1.188,0,0,1,0-.886c.594-1.85,2.289-3,3.662-4.251a12.919,12.919,0,0,0,1.846-2.147C348.871,571.256,349.47,572.585,350.06,573.574Z" transform="translate(-200.84 -317.349)" fill="#fbbebe"/><path d="M356.5,587.611a4.382,4.382,0,0,1-.239,1.787,1.256,1.256,0,0,1-1.461.75c.17-.385-.278-.823-.7-.774a1.309,1.309,0,0,0-.925.784,2.922,2.922,0,0,0-.268,1.811,7.408,7.408,0,0,1,.458,2.274c-.092.638-.565,1.276-.312,1.875a3.015,3.015,0,0,0,.6.721,2.045,2.045,0,0,1-.219,2.8l6.33.122a4.441,4.441,0,0,0,.784,3.073,19.346,19.346,0,0,0,14.423,9.418,1.256,1.256,0,0,0-.3,1.919,1.776,1.776,0,0,0,2.026.117,15.36,15.36,0,0,0,1.738-1.3,5.313,5.313,0,0,1,3.564-.974c.794.073,1.558.326,2.352.37,2.337.127,4.348-1.558,6.583-2.245,1.641-.487,3.5-.487,4.869-1.529a1.93,1.93,0,0,0,.906-1.88,3.062,3.062,0,0,0-.682-1.1,19.6,19.6,0,0,1-1.826-3.409,20.349,20.349,0,0,0-4.563-6.106,40.286,40.286,0,0,0-4.519-3.433,7.642,7.642,0,0,0-1.227-.735,12.579,12.579,0,0,1-1.675-.682,9.348,9.348,0,0,1-1.738-1.948c-1.251-1.461-3.175-2.128-4.719-3.277a11.307,11.307,0,0,0-3.18-2.157c-.6-.18-1.242-.195-1.841-.375-1.363-.414-2.357-1.626-3.7-2.113a14.956,14.956,0,0,0-3.345-.428,7.791,7.791,0,0,1-3.438-1.3,4.138,4.138,0,0,0-1.11-.652c-1.69-.487-1.826,2.639-1.987,3.73A31.264,31.264,0,0,0,356.5,587.611Z" transform="translate(-206.251 -320.912)" fill="#3f3d56"/><path d="M339.059,613.013c.282,3.073-2.04,6.053-1.363,9.067.146.643.419,1.251.521,1.9.282,1.787-.784,3.477-1.8,4.972l-8.765,12.826a7.791,7.791,0,0,1-1.247,1.544c-1.675,1.485-4.178,1.329-6.374,1.777a10.911,10.911,0,0,0-4.271,1.889.278.278,0,0,0-.054.38,3.662,3.662,0,0,0,3.175,1.49c.229.3,0,.75-.316.974-.487.326-1.115.414-1.208,1.208a1.353,1.353,0,0,0,.156.8,2.493,2.493,0,0,0,1.534,1.062c3.024.925,6.291-.7,8.556-2.922s3.9-5,6.116-7.255c1.232-1.247,2.63-2.313,3.9-3.521a46.034,46.034,0,0,0,6.394-8.278,9.215,9.215,0,0,0,1.383-2.819c.234-1,.127-2.06.4-3.048a10.819,10.819,0,0,1,2.094-3.409,11.328,11.328,0,0,0,2.381-7.382,7.071,7.071,0,0,0-4.314-6.121,3.861,3.861,0,0,0-2.435-.146,5.8,5.8,0,0,0-2.464,1.948l-1.66,1.918a4.559,4.559,0,0,0-.974,1.461,1.534,1.534,0,0,0,.341,1.631" transform="translate(-187.156 -335.742)" fill="#fbbebe"/><path d="M366.844,592.39a4.9,4.9,0,0,0-3.228.974,4.512,4.512,0,0,0-.808,1.276,12.6,12.6,0,0,0-1.612,5.069,22.853,22.853,0,0,0,.584,4.236,16.16,16.16,0,0,1-.365,3.56,24.314,24.314,0,0,0,4.6-1.768,15.376,15.376,0,0,1,2.693-1.4c1.368-.458,3.676.326,4.972.974.073-.916-.614-2.508-.541-3.409a3.735,3.735,0,0,1,.2-1.135,6.752,6.752,0,0,1,.687-1.1,4.485,4.485,0,0,0-.4-5.264,7.259,7.259,0,0,0-4.694-1.992,20.542,20.542,0,0,0-3.282-.112" transform="translate(-210.52 -327.746)" fill="#3f3d56"/><path d="M319.2,552.337l-.185-1.524c1.281.326,2.493-.755,3.311-1.88s1.573-2.435,2.815-2.922c1.514-.57,3.116.341,4.563,1.091a14.282,14.282,0,0,0,5.235,1.734,3.7,3.7,0,0,1,.867.141,3.01,3.01,0,0,1,1.524,2.586,10.144,10.144,0,0,0,.56,3.165c.355.721.974,1.261,1.324,1.948.974,1.914.034,4.534,1.081,6.413l-2.6-2.376c-.239-.219-.575-.448-.833-.263s-.224.487-.312.716a1.359,1.359,0,0,1-1.846.672,5.06,5.06,0,0,1-1.651-1.51,10.088,10.088,0,0,0-4.12-3.121,5.263,5.263,0,0,0-4.358.258c-1.213.687-2.1,2.279-3.584,2.332-2.035.078-2.883-3.711-3.823-5.206a1.845,1.845,0,0,0,.536-2.3C317.847,552.245,319.166,552.1,319.2,552.337Z" transform="translate(-187.934 -303.913)" fill="#464353"/><path d="M674.806,359.105a8.934,8.934,0,0,1-2.542.7,4.455,4.455,0,0,0,1.948-2.435,8.907,8.907,0,0,1-2.815,1.076,4.421,4.421,0,0,0-7.66,3.024,4.331,4.331,0,0,0,.112,1.013,12.539,12.539,0,0,1-9.125-4.636,4.446,4.446,0,0,0,1.373,5.921,4.314,4.314,0,0,1-2.011-.555v.054a4.436,4.436,0,0,0,3.555,4.349,4.6,4.6,0,0,1-1.169.156,4.312,4.312,0,0,1-.833-.083,4.446,4.446,0,0,0,4.139,3.078,8.882,8.882,0,0,1-5.5,1.9,9.55,9.55,0,0,1-1.057-.063,12.582,12.582,0,0,0,19.39-10.616v-.57A9,9,0,0,0,674.806,359.105Z" transform="translate(-360.346 -207.048)" fill="#1c7fc3"/><path d="M664.5,544.387l1.461,3.667,9.539,10.114,3.195-3.009,2.011,2.128,2.128-2.011.122-4.134,2.659-2.513.214-7.241-8.536-9.047Zm19.234-2.026-.122,4.139-3.194,3.009-.122,4.139-2.006-2.128-2.664,2.513-8.556-9.052,10.114-9.539Z" transform="translate(-366.133 -296.991)" fill="#1c7fc3"/><path d="M684.125,547.615l1.6-1.5,4.051,4.29-1.6,1.5ZM680.4,551.13l1.6-1.51,4.046,4.295-1.6,1.5Z" transform="translate(-374.291 -304.055)" fill="#1c7fc3"/><path d="M284.515,676H268.894a.974.974,0,0,0-.974.974V692.6a.974.974,0,0,0,.974.974h7.791v-6.958h-2.1v-2.561h2.138V682.16a3.337,3.337,0,0,1,3.6-3.5c.974,0,2.016.073,2.255.107v2.367h-1.612c-1.1,0-1.315.521-1.315,1.29v1.631h2.625l-.341,2.561h-2.289v6.954h4.869a.974.974,0,0,0,.974-.974V676.974A.974.974,0,0,0,284.515,676Z" transform="translate(-162.667 -370.696)" fill="#1c7fc3"/><path d="M569.387,445.461a3.666,3.666,0,0,1,3.657,3.657v7.3a3.667,3.667,0,0,1-3.657,3.657h-7.3a3.671,3.671,0,0,1-2.586-1.071,3.628,3.628,0,0,1-1.076-2.586v-7.3a3.667,3.667,0,0,1,3.662-3.657h7.3m0-1.461h-7.3a5.137,5.137,0,0,0-5.123,5.123v7.3a5.137,5.137,0,0,0,5.123,5.123h7.3a5.137,5.137,0,0,0,5.123-5.1v-7.3A5.142,5.142,0,0,0,569.387,444Z" transform="translate(-310.96 -251.667)" fill="#1c7fc3"/><path d="M575.121,452.211a1.091,1.091,0,1,1,.776-.319,1.1,1.1,0,0,1-.776.319Zm-4.738.716a2.922,2.922,0,1,1-2.922,2.922,2.922,2.922,0,0,1,2.922-2.922m0-1.461a4.383,4.383,0,1,0,4.382,4.383A4.383,4.383,0,0,0,570.383,451.466Z" transform="translate(-315.598 -254.751)" fill="#1c7fc3"/><path d="M1022.155,609.8a3.558,3.558,0,0,0-3.409-3.711c-2.537-.122-5.118-.166-7.757-.166h-.823c-2.634,0-5.225.044-7.757.166a3.56,3.56,0,0,0-3.379,3.72c-.117,1.631-.166,3.258-.161,4.869s.044,3.258.156,4.87a3.569,3.569,0,0,0,3.379,3.73c2.659.122,5.39.175,8.166.175s5.5-.049,8.171-.175a3.589,3.589,0,0,0,3.409-3.73c.107-1.631.161-3.258.156-4.894s-.044-3.253-.151-4.869Zm-13.8,9.384v-8.989l6.632,4.49Z" transform="translate(-537.683 -334.741)" fill="#1c7fc3"/><path d="M539.128,260a10.226,10.226,0,0,0-4.11,19.629,9.108,9.108,0,0,1,.175-2.352c.2-.833,1.32-5.585,1.32-5.585a3.9,3.9,0,0,1-.331-1.617c0-1.519.881-2.654,1.977-2.654a1.372,1.372,0,0,1,1.383,1.539,22.066,22.066,0,0,1-.906,3.633,1.583,1.583,0,0,0,1.617,1.972c1.948,0,3.248-2.493,3.248-5.449,0-2.245-1.514-3.92-4.261-3.92a4.87,4.87,0,0,0-5.045,4.9,2.947,2.947,0,0,0,.677,2.011.487.487,0,0,1,.146.57c-.049.19-.161.643-.21.823a.355.355,0,0,1-.516.258c-1.432-.584-2.1-2.152-2.1-3.9,0-2.922,2.435-6.4,7.3-6.4,3.9,0,6.486,2.829,6.486,5.868,0,4.017-2.235,7.022-5.532,7.022a2.922,2.922,0,0,1-2.5-1.276s-.6,2.357-.726,2.814a8.445,8.445,0,0,1-1.027,2.2,10.376,10.376,0,0,0,2.922.419,10.255,10.255,0,1,0,0-20.51Z" transform="translate(-296.517 -157.265)" fill="#1c7fc3"/><path d="M697.509,691.535c-.394-1.67-.633-3.131-.633-3.131a6.486,6.486,0,0,0-.726-3.18v-.458h0v-3.36a11.118,11.118,0,0,1,.847-1.758c.6-1.052,0-4.918,0-4.918s-2.24-5.449-1.7-8.906-4.6-15.353-4.6-15.353a15.169,15.169,0,0,1,.487-3.409,2.46,2.46,0,0,0,.063-.711.511.511,0,0,0,0-.088v.029c-.078-2.279-1.88-6.554-1.88-6.554l.243-8.142a23.98,23.98,0,0,0-.726-11.253c-.657-2.25-1.076-4.047-1.344-5.439-.029-.156-.058-.307-.083-.453,3.862-.589,6.817-1.081,6.817-1.081s-2.24-9.374-3.754-11.015-2.722-6.793-2.722-6.793-.789-6.622.487-8.556a12.876,12.876,0,0,0,1.461-5.274s2.922-2.108,3.267-3.048a15.434,15.434,0,0,0,.974-4.159c0-1.115-.365-2.108-.243-2.7s-.847-2.81-.36-3.866a2.828,2.828,0,0,0,.19-1.018.059.059,0,0,0,0-.029h0a14.469,14.469,0,0,0-.258-2.751,7.79,7.79,0,0,0-2.873-1.539l-.063-.248-.166-.657a2.235,2.235,0,0,0-.287-.17v-1.217l.453-2.143c.9-3.715-4.071-4.271-4.071-4.271a2.62,2.62,0,0,0-1.407-1.237c-.974-.351-.165,5.6.3,5.98a19.362,19.362,0,0,1,1.948,3.068h0l.088.151a1.971,1.971,0,0,0-.229.239l.19,1.29.029.2a5.3,5.3,0,0,0-.794,1.349,2.878,2.878,0,0,1,.726,2.113,6.624,6.624,0,0,0,.3,2.576c-.053-.063-.691-.755-1.329-.584s-2.435.7-2.435.7-1.334.234-1.212.526-.906,1.583-.906,1.583l-3.579-3.409c-.039-.1-.073-.2-.107-.307a8.155,8.155,0,0,1-.307-1.461,7.947,7.947,0,0,0,1.139-.365,2.467,2.467,0,0,0,.974-.633,3.862,3.862,0,0,0,.575-1.544,21.425,21.425,0,0,1,1.33-2.961,9.632,9.632,0,0,0,.691-5.283,3.515,3.515,0,0,0-.545-1.558c-.584-.8-1.646-1.13-2.435-1.773s-1.266-1.617-2.167-2.1a4.27,4.27,0,0,0-2.717-.234,14.521,14.521,0,0,0-5.069,1.841,2.605,2.605,0,0,1-1.7.56,2.293,2.293,0,0,1-1.222-.9.254.254,0,0,1,0-.054l-.044-.044a6.411,6.411,0,0,0-.555,2.678v.575a1.183,1.183,0,0,1,0,.127h0a.868.868,0,0,1-.029.19,1.378,1.378,0,0,1-.331.487,2.16,2.16,0,0,0-.292.4.432.432,0,0,1,.049-.146,2.116,2.116,0,0,0-.375,1.125,1.121,1.121,0,0,0,.273.808,3.9,3.9,0,0,0,.579.487,6.812,6.812,0,0,0-.1,1.188,6.924,6.924,0,0,0,3.37,5.907l.122.307a8.515,8.515,0,0,1,.648,3.9.659.659,0,0,1-.044.287l-.127.146h0s-5.912.059-7.3-1.2-3.511,3.078-3.511,3.078-2.118.414-2.542,0-2.922-.058-2.922-.058a5.356,5.356,0,0,0-3.691-1.344,10.843,10.843,0,0,0-2.712-1.509h0l-.068-.024h0a3.027,3.027,0,0,0-1.334-.166,26.338,26.338,0,0,1-3.75-3.691c-.828-1.286-4.869-6.072-4.9-6.1v-.229l-.049-.7a2.718,2.718,0,0,1-.36.034.848.848,0,0,0-.083-.243,13.148,13.148,0,0,0-.857-1.948s0-.876.258-1.1-.107-3.443-.107-3.443-2.62-6.121-4.962-1.553c0,0-4.436,2.956-.716,6.4,0,0,1.461.716,1.695,1.286.141.37.643,1.407.974,2.094l.151.307-.044.034.058.575v.224c-.7.394-1.174.789-1.062,1.091a6.407,6.407,0,0,1,.424,1.583s5.147,6.442,5.814,9.2c0,0,13.8,8.2,18.339,8.789l-.784,4.1a32.417,32.417,0,0,0-.18,3.341c.058.876-.545,4.869-.545,4.869s-.789,5.843-1.461,6.676-.545,4.339-.545,4.339a29.246,29.246,0,0,1-.906,4.977,12.648,12.648,0,0,0-.18,4.981s-2.3,5.274,3.209,1.7c0,0,2.7-.166,5.843-.273v1.6c-.039,3.019-.058,7.182.078,10.333.243,5.566,1.948,16.556,1.948,16.556v5.532a7.741,7.741,0,0,0-.156,1.583,10.255,10.255,0,0,0,1.49,5.541l.423,3.691a15.292,15.292,0,0,1,1.013,3.9,1.915,1.915,0,0,1-.044.351,2.621,2.621,0,0,0-.049.565,31.642,31.642,0,0,0,.974,5.688s.063,4.042.667,4.275c.516.2-.691,2.332-1.052,2.922a1.022,1.022,0,0,1-.024-.117c-.044.078-.073.122-.073.122a2.841,2.841,0,0,0-.19,1.023,1.46,1.46,0,0,0,.672,1.422c1.149.706,1.768,1.291.794,1.524a9.624,9.624,0,0,0-1.067.224c0-.044-.039-.093-.054-.136a.652.652,0,0,0-.38.677,3,3,0,0,0,.365,1.368,14.619,14.619,0,0,0,1.636,2.99l.487-.054a2.3,2.3,0,0,1-.273.487,1.885,1.885,0,0,1-.682.6,2.179,2.179,0,0,1-.828.287,2.308,2.308,0,0,0-1.714.833,1.79,1.79,0,0,0,.209,2.781l4.329,1.49s7.445.974,7.051-.7-.633-3.131-.633-3.131a6.608,6.608,0,0,0-.609-2.966,2.931,2.931,0,0,0-.263-.438l.263-.029s.545-3.691,1.271-4.383c.17-.161.209-.287.166-.385.078-.2-.112-.317-.356-.385l-.054.146a3.653,3.653,0,0,0-.721-.078s-.244-1.948.54-2.639a.744.744,0,0,0,.156-.575,3.31,3.31,0,0,0-.083-.789l-.029.049a28.12,28.12,0,0,0-1.738-4.543,5.617,5.617,0,0,1,.424-2.464c.482-.706-.058-9.549-.058-9.549a28.949,28.949,0,0,0-.365-6.267,7.033,7.033,0,0,1,.667-4.339v-.156s-.029-.263-.073-.677v.044c-.122-1.135-.351-3.185-.521-4.129-.243-1.349.058-7.791.058-7.791l1.091-2.751,1.948,4.743,2.055,6.33a5.382,5.382,0,0,1,1.047,2.688v.2a3.207,3.207,0,0,0,0,.424,3.778,3.778,0,0,0,.628,2.255s.545,2.99,1.393,3.749a3.375,3.375,0,0,1,.847,2.225,37.111,37.111,0,0,0,1.514,5.1,7.48,7.48,0,0,1,.424,2.922h0v.161s.141,1.548.136,2.854v.453a4.543,4.543,0,0,1-.127,1.052v-.156a10.836,10.836,0,0,0-.312,2.7,6.915,6.915,0,0,0,1.154,4.485c1.636,1.875,2.664,1.641,2.664,1.641s-.789,2.342-1.758,2.815a.587.587,0,0,0-.1.063.269.269,0,0,0-.024-.136,1.144,1.144,0,0,0-.282.876,6.271,6.271,0,0,0,1.2,3.472,1.918,1.918,0,0,0,.818.487l-.151.093a3.39,3.39,0,0,1-.336.161,1.586,1.586,0,0,1-.487.127,2.308,2.308,0,0,0-1.714.833,1.79,1.79,0,0,0,.209,2.78l4.329,1.49S697.884,693.23,697.509,691.535Z" transform="translate(-347.657 -305.145)" fill="url(#c)"/><path d="M706.619,839.546l-4.193-1.49a1.821,1.821,0,0,1-.2-2.78,2.205,2.205,0,0,1,1.656-.833,2.05,2.05,0,0,0,.8-.287,1.9,1.9,0,0,0,.662-.6,3.082,3.082,0,0,0,.487-1.622s4.6-1.344,5.843,0a3.437,3.437,0,0,1,.56.818,6.818,6.818,0,0,1,.584,2.965s.234,1.461.614,3.131S706.619,839.546,706.619,839.546Z" transform="translate(-385.205 -450.39)" fill="#2d293d"/><path d="M748.73,835.344l-4.188-1.49a1.813,1.813,0,0,1-.2-2.776,2.2,2.2,0,0,1,1.66-.837,1.514,1.514,0,0,0,.487-.127,2.458,2.458,0,0,0,.321-.161,2.65,2.65,0,0,0,1.144-2.225s4.6-1.349,5.843,0a3.264,3.264,0,0,1,.438.6,6.692,6.692,0,0,1,.706,3.185s.234,1.461.614,3.131S748.73,835.344,748.73,835.344Z" transform="translate(-406.811 -448.233)" fill="#2d293d"/><path d="M715.555,831.929a3.444,3.444,0,0,1,.56.818h0l-6.9.8a3.082,3.082,0,0,0,.487-1.622S714.3,830.585,715.555,831.929Z" transform="translate(-389.077 -450.389)" opacity="0.1"/><path d="M757.072,828.277v1.29c-1.071,1.768-6.257,1.383-7.762.487a2.458,2.458,0,0,0,.321-.161,2.65,2.65,0,0,0,1.144-2.225s4.6-1.349,5.843,0a3.258,3.258,0,0,1,.453.609Z" transform="translate(-409.646 -448.202)" opacity="0.1"/><path d="M730.036,745.985a11.487,11.487,0,0,0-.823,1.758v4.631c-1.169,1.948-7.265,1.29-8.083.234s-1.7-3.808-.765-4.275,1.7-2.815,1.7-2.815-.974.234-2.576-1.641-1.11-6.033-.818-7.031a20.847,20.847,0,0,0,0-4.334,8.727,8.727,0,0,0-.409-3.107,38.719,38.719,0,0,1-1.461-5.1,3.461,3.461,0,0,0-.818-2.225c-.818-.764-1.349-3.75-1.349-3.75a3.842,3.842,0,0,1-.584-2.517,5.125,5.125,0,0,0-1-3.048l-1.992-6.33-1.875-4.748-1.052,2.751s-.3,6.447-.058,7.791.584,4.918.584,4.918a7.216,7.216,0,0,0-.643,4.339,29.63,29.63,0,0,1,.351,6.267s.526,8.848.058,9.554a5.653,5.653,0,0,0-.409,2.435s2.4,5.157,1.636,5.843-.526,2.639-.526,2.639,1.641,0,.94.7-1.232,4.382-1.232,4.382l-7.095.9a15,15,0,0,1-1.587-2.99c-.935-2.167.175-1.948,1.12-2.167s.346-.818-.769-1.524-.487-2.284-.487-2.284,1.7-2.873,1.115-3.107-.648-4.275-.648-4.275-1.169-4.806-.877-6.092-.94-4.383-.94-4.383l-.409-3.691a10.147,10.147,0,0,1-1.266-6.983v-5.7s-1.641-11.015-1.88-16.556c-.146-3.564-.107-8.429-.059-11.468.029-1.7.059-2.829.059-2.829l25.321-2.634a21,21,0,0,0,.462,3.759c.258,1.388.662,3.189,1.3,5.439a24.737,24.737,0,0,1,.706,11.248l-.234,8.142s2.225,5.449,1.758,7.3a15.475,15.475,0,0,0-.487,3.409s4.981,11.9,4.456,15.353,1.646,8.882,1.646,8.882S730.62,744.952,730.036,745.985Z" transform="translate(-381.787 -371.476)" fill="#464353"/><path d="M737.22,754.357l7.684-1.027S740.56,757.781,737.22,754.357Z" transform="translate(-403.443 -410.37)" opacity="0.05"/><path d="M749.272,737.87s.268,2.722-1.4,3.75C747.87,741.62,750.855,741.152,749.272,737.87Z" transform="translate(-408.907 -402.438)" opacity="0.1"/><path d="M740.207,720.06s-6.437,5.3-8.765,4.87S740.207,720.06,740.207,720.06Z" transform="translate(-400.314 -393.301)" opacity="0.1"/><path d="M712.291,760.55s-4.869,1.115-5.035,3.078S712.291,760.55,712.291,760.55Z" transform="translate(-388.068 -414.075)" opacity="0.1"/><path d="M714.228,810.72s-6.91,1.291-4.947,2.172a33.524,33.524,0,0,0,5.186,1.578S716.692,814.586,714.228,810.72Z" transform="translate(-388.928 -439.814)" opacity="0.05"/><g transform="translate(313.197 308.46)" opacity="0.05"><path d="M705.847,816.943a1.368,1.368,0,0,1-.633-1l-.068.127s-.648,1.578.487,2.284c.127.078.248.161.36.239.2-.039.429-.068.638-.122C707.557,818.253,706.962,817.664,705.847,816.943Z" transform="translate(-700.09 -750.952)"/><path d="M724.723,815.808c.19-.175.18-.628.068-1.208a3.267,3.267,0,0,0-.395,1.7A1.3,1.3,0,0,1,724.723,815.808Z" transform="translate(-710.059 -750.265)"/><path d="M722.367,757.22a8.063,8.063,0,0,0-.487,2.152,8.506,8.506,0,0,1,.536-1.461A4.34,4.34,0,0,0,722.367,757.22Z" transform="translate(-708.77 -720.826)"/><path d="M755.257,750.223a2.781,2.781,0,0,0,.063-.643c-.088.438-.146.847-.19,1.2C755.169,750.6,755.208,750.413,755.257,750.223Z" transform="translate(-725.829 -716.906)"/><path d="M722.371,798.63a3.689,3.689,0,0,0,.175-1.3,4.292,4.292,0,0,0-.336,1.641A1.581,1.581,0,0,1,722.371,798.63Z" transform="translate(-708.939 -741.404)"/><path d="M714.915,822.68a23.438,23.438,0,0,0-.8,3.6l-7.085.823a14.677,14.677,0,0,1-1.587-2.99,5.174,5.174,0,0,1-.2-.516c-.424.195-.594.633-.034,1.948a14.507,14.507,0,0,0,1.587,2.985l7.08-.823s.531-3.691,1.232-4.383C715.451,822.948,715.231,822.773,714.915,822.68Z" transform="translate(-700.032 -754.41)"/><path d="M700.48,740.227s.058,4.047.643,4.28h0c.3-.667.487-1.3.229-1.407-.584-.234-.643-4.275-.643-4.275s-1.174-4.806-.877-6.1-.94-4.382-.94-4.382l-.409-3.691a10.168,10.168,0,0,1-1.29-6.973v-5.692s-1.641-11.015-1.875-16.581c-.151-3.564-.107-8.429-.059-11.468V682.48h-.2s-.029,1.125-.059,2.829c-.049,3.034-.092,7.9.059,11.467.234,5.566,1.875,16.581,1.875,16.581v5.683a10.134,10.134,0,0,0,1.32,7.032l.409,3.691s1.232,3.1.935,4.383S700.48,740.227,700.48,740.227Z" transform="translate(-694.956 -682.48)"/><path d="M747.656,825.575a6.817,6.817,0,0,1-1.12-2.785c-.726.653.107,3.19.886,4.193s6.915,1.7,8.088-.239v-1.115C753.923,827.2,748.436,826.574,747.656,825.575Z" transform="translate(-721.277 -754.467)"/><path d="M766.558,814.854a11.723,11.723,0,0,0-.818,1.758v.823c.132-.3.322-.7.584-1.174a3.547,3.547,0,0,0,.258-1.461Z" transform="translate(-731.272 -750.367)"/><path d="M746.337,807.688a11.281,11.281,0,0,0,.58-1.393s-.974.234-2.581-1.641c-1.149-1.364-1.213-3.939-1.052-5.624-.292,1-.765,5.157.818,7.031A4.129,4.129,0,0,0,746.337,807.688Z" transform="translate(-719.597 -742.276)"/><path d="M732.7,756.2a32.153,32.153,0,0,1,.117,3.472c.039-.229.083-.414.117-.545a20.533,20.533,0,0,0,0-4.334,8.716,8.716,0,0,0-.409-3.107,38.512,38.512,0,0,1-1.461-5.1,3.46,3.46,0,0,0-.818-2.225c-.818-.765-1.349-3.75-1.349-3.75a3.842,3.842,0,0,1-.589-2.517,5.136,5.136,0,0,0-.974-3.048l-1.992-6.33-1.9-4.719-1.057,2.751s0,.346-.034.891l.857-2.235,1.875,4.743,1.992,6.33a5.012,5.012,0,0,1,.974,3.043,3.852,3.852,0,0,0,.609,2.493s.526,2.985,1.344,3.749a3.478,3.478,0,0,1,.823,2.225,35.912,35.912,0,0,0,1.461,5.1A8.348,8.348,0,0,1,732.7,756.2Z" transform="translate(-709.011 -703.782)"/></g><path d="M747.624,562.983l-.438,2.142.024.974v.7l-2.435.253-.273-.487h0a20.708,20.708,0,0,0-1.9-3.068c-.453-.38-1.256-6.33-.292-5.975a2.552,2.552,0,0,1,1.363,1.232S748.491,559.262,747.624,562.983Z" transform="translate(-405.822 -309.903)" fill="#ffcdd3"/><path d="M750.037,575.521l-2.435.253-.273-.487h0a2.152,2.152,0,0,1,2.7-.443Z" transform="translate(-408.63 -318.649)" opacity="0.1"/><path d="M750.492,576.9l-3.219.75-.068-.487-.185-1.29a2.216,2.216,0,0,1,3.121-.429l.161.657Z" transform="translate(-408.471 -318.872)" fill="#dce6f2"/><path d="M638.686,558.4l-3.438,1.85-.312-.653c-.331-.687-.818-1.719-.974-2.089-.2-.57-1.641-1.291-1.641-1.291-3.6-3.443.687-6.4.687-6.4,2.274-4.572,4.806,1.549,4.806,1.549s.351,3.228.1,3.443-.248,1.1-.248,1.1a13.394,13.394,0,0,1,.833,1.948C638.633,558.2,638.686,558.4,638.686,558.4Z" transform="translate(-348.885 -305.09)" fill="#ffcdd3"/><path d="M642.959,568.658l-3.438,1.85-.312-.653c.487-.4,2.206-1.8,2.771-1.738a4.036,4.036,0,0,0,.818,0C642.906,568.459,642.959,568.658,642.959,568.658Z" transform="translate(-353.158 -315.345)" opacity="0.1"/><path d="M643.418,569.947l-3.866,1.9-.078-.833-.054-.57s2.24-1.924,2.922-1.85a3.587,3.587,0,0,0,1.013,0l.044.7Z" transform="translate(-353.266 -315.592)" fill="#dce6f2"/><path d="M719.589,584.159s-16.863,1.9-13.712.881a4.231,4.231,0,0,0,3.253-3.657,8.907,8.907,0,0,0-.628-3.9,16.925,16.925,0,0,0-1.51-3.048s12.89-7.09,10.314-.643a10.11,10.11,0,0,0-.731,3.053,8.612,8.612,0,0,0,.326,3.087A9.207,9.207,0,0,0,719.589,584.159Z" transform="translate(-387.161 -316.871)" fill="#ffcdd3"/><path d="M718.894,573.793a10.108,10.108,0,0,0-.73,3.053c-1.217,1.018-2.547.974-4.256.974-1.315,0-2.771.321-3.818-.312a16.927,16.927,0,0,0-1.51-3.048S721.469,567.346,718.894,573.793Z" transform="translate(-388.749 -316.872)" opacity="0.1"/><circle cx="6.973" cy="6.973" r="6.973" transform="translate(317.956 247.431)" fill="#ffcdd3"/><path d="M719.589,592.713s-16.863,1.9-13.712.881a4.231,4.231,0,0,0,3.253-3.657,9.151,9.151,0,0,1,3.608-1.914,5.031,5.031,0,0,1,3.053-.049,4.076,4.076,0,0,1,1.11.487A9.207,9.207,0,0,0,719.589,592.713Z" transform="translate(-387.161 -325.425)" opacity="0.1"/><path d="M750.687,577.959l-3.219.75-.068-.487a2.844,2.844,0,0,1,3.1-1.062Z" transform="translate(-408.666 -319.928)" opacity="0.1"/><path d="M643.474,570.682l-3.866,1.9-.078-.833a28.434,28.434,0,0,1,3.9-1.724Z" transform="translate(-353.323 -316.328)" opacity="0.1"/><path d="M720.932,681.229c-6.53,1.027-15.826,2.371-17.3,1.923-1.222-.375-5.128-.336-8.531-.219.029-1.7.058-2.829.058-2.829l25.321-2.634A20.98,20.98,0,0,0,720.932,681.229Z" transform="translate(-381.833 -371.45)" opacity="0.1"/><path d="M697.858,624.769s-21.5,3.691-23.812,2.985-14.156.063-14.156.063c-5.332,3.569-3.1-1.7-3.1-1.7a12.707,12.707,0,0,1,.175-4.982,30.515,30.515,0,0,0,.876-4.981s-.117-3.516.526-4.334,1.407-6.681,1.407-6.681.589-3.983.531-4.869.175-3.336.175-3.336l.76-4.1c-4.383-.584-17.754-8.789-17.754-8.789-.643-2.751-5.624-9.2-5.624-9.2a6.785,6.785,0,0,0-.409-1.582c-.351-.935,4.923-2.81,4.923-2.81s3.925,4.806,4.743,6.092a26.809,26.809,0,0,0,3.633,3.691,2.841,2.841,0,0,1,1.29.17h.068a10.389,10.389,0,0,1,2.62,1.5,5.079,5.079,0,0,1,3.574,1.349s2.406-.351,2.815.058,2.435,0,2.435,0,2.055-4.334,3.409-3.077,7.066,1.2,7.066,1.2c.765-1.013,2.615-1.738,3.779-2.113a5.029,5.029,0,0,1,3.053-.049,3.779,3.779,0,0,1,1.208.584l3.467,3.409s.974-1.29.881-1.583,1.173-.526,1.173-.526,1.7-.526,2.342-.706,1.237.526,1.286.584a6.861,6.861,0,0,1-.292-2.576,2.922,2.922,0,0,0-.7-2.108c2.07-5.006,6.7-.769,6.7-.769s.526,2.751.058,3.808.487,3.282.351,3.866a26.4,26.4,0,0,0,.234,2.693,16.02,16.02,0,0,1-.935,4.163c-.355.935-3.165,3.043-3.165,3.043a13.213,13.213,0,0,1-1.407,5.274c-1.232,1.933-.487,8.556-.487,8.556s1.169,5.157,2.635,6.817S697.858,624.769,697.858,624.769Z" transform="translate(-352.248 -316.543)" fill="#3f3d56"/><path d="M694.061,599.084s-.643-1.948-1.232-2.113a13.858,13.858,0,0,1-1.7-.76l.38-.721s2.2.6,2.552,1.247A5.087,5.087,0,0,1,694.061,599.084Z" transform="translate(-379.796 -329.39)" opacity="0.1"/><path d="M667.387,592.469c-.117.589-5.327,1.115-5.327,1.115l2.634-2.644h0l.068.024h0A10.392,10.392,0,0,1,667.387,592.469Z" transform="translate(-364.882 -327.055)" opacity="0.1"/><circle cx="0.467" cy="0.467" r="0.467" transform="translate(286.933 256.907)" fill="#575988"/><circle cx="0.467" cy="0.467" r="0.467" transform="translate(287.532 257.846)" fill="#575988"/><circle cx="0.467" cy="0.467" r="0.467" transform="translate(288.121 258.708)" fill="#575988"/><circle cx="0.467" cy="0.467" r="0.467" transform="translate(288.735 259.648)" fill="#575988"/><circle cx="0.38" cy="0.38" r="0.38" transform="translate(344.052 259.682)" fill="#575988"/><circle cx="0.38" cy="0.38" r="0.38" transform="translate(344.11 260.549)" fill="#575988"/><circle cx="0.38" cy="0.38" r="0.38" transform="translate(344.159 261.411)" fill="#575988"/><path d="M697.21,635.47c-.054-.068,13.148,16.61,23.407,6.973C720.617,642.443,704.412,644.639,697.21,635.47Z" transform="translate(-382.915 -349.902)" opacity="0.1"/><path d="M681.63,653.28s7.9.214,8.731,2.488v2.367a1.514,1.514,0,0,1-1.461,0c-.8-.429-5.576-2.858-7.26-1.69Z" transform="translate(-374.922 -359.039)" opacity="0.1"/><path d="M681.93,653.28s7.557.2,8.351,2.371v2.259a1.461,1.461,0,0,1-1.407,0c-.765-.414-5.356-2.727-6.944-1.612Z" transform="translate(-375.076 -359.039)" fill="#3f3d56"/><path d="M690.49,618a25.46,25.46,0,0,0,3.063,5.254,20.523,20.523,0,0,0,4.8,4.636S690.621,619.105,690.49,618Z" transform="translate(-379.468 -340.939)" opacity="0.1"/><path d="M685.18,599.18s1.32,5.692,4.714,7.626Z" transform="translate(-376.743 -331.283)" opacity="0.1"/><path d="M680.875,600.358c-.034-.107-1.174,4.5,4.382,7.051C685.258,607.409,682.911,606.611,680.875,600.358Z" transform="translate(-374.474 -331.887)" opacity="0.1"/><path d="M751.9,592.516a40.825,40.825,0,0,1,3.506,2.634S753.568,592.4,751.9,592.516Z" transform="translate(-410.972 -327.862)" opacity="0.1"/><path d="M709.073,567.857a1.485,1.485,0,0,0,.54.945,1.521,1.521,0,0,0,.657.146,14.242,14.242,0,0,0,6.33-.594,2.356,2.356,0,0,0,.974-.638,3.793,3.793,0,0,0,.516-1.534,23.915,23.915,0,0,1,1.29-2.961,9.948,9.948,0,0,0,.687-5.317,3.56,3.56,0,0,0-.531-1.558c-.565-.8-1.592-1.13-2.337-1.773s-1.227-1.621-2.094-2.1a4.07,4.07,0,0,0-2.629-.234,13.9,13.9,0,0,0-4.909,1.846,2.43,2.43,0,0,1-1.641.56,2.254,2.254,0,0,1-1.208-.925,6.485,6.485,0,0,0-.521,3.034.9.9,0,0,1-.326.945,1.772,1.772,0,0,0-.336,2.187c.229.268.575.414.794.687.394.487.258,1.193.248,1.821a.975.975,0,0,0,.156.618.905.905,0,0,0,.862.2,2.355,2.355,0,0,1,.915-.088,1.543,1.543,0,0,1,.8.613A11.133,11.133,0,0,1,709.073,567.857Z" transform="translate(-386.028 -307.137)" fill="#2d293d"/><g transform="translate(317.2 250.8)" opacity="0.1"><path d="M717.7,573.312a2.3,2.3,0,0,1-.974.633,13.992,13.992,0,0,1-6.3.594,1.432,1.432,0,0,1-.657-.146,1.46,1.46,0,0,1-.545-.94,10.868,10.868,0,0,0-1.777-4.124,1.519,1.519,0,0,0-.8-.614,2.356,2.356,0,0,0-.915.088.906.906,0,0,1-.862-.2.944.944,0,0,1-.151-.618c0-.628.141-1.334-.253-1.821-.219-.273-.565-.419-.794-.687a1.373,1.373,0,0,1-.131-1.4,1.6,1.6,0,0,0-.1,1.87c.229.268.575.414.794.687.394.487.258,1.193.248,1.821a.974.974,0,0,0,.156.618.9.9,0,0,0,.862.2,2.355,2.355,0,0,1,.916-.088,1.543,1.543,0,0,1,.8.613,11.057,11.057,0,0,1,1.777,4.125,1.486,1.486,0,0,0,.54.945,1.524,1.524,0,0,0,.657.146,14.241,14.241,0,0,0,6.33-.594,2.392,2.392,0,0,0,.974-.638,1.856,1.856,0,0,0,.3-.565A.352.352,0,0,1,717.7,573.312Z" transform="translate(-703.176 -564.07)"/></g><path d="M712.62,592.956s8.712,1.154,9.5-.156" transform="translate(-390.822 -328.01)" opacity="0.1"/><path d="M747.4,585.72s4.835,0,5.9,1.821" transform="translate(-408.666 -324.377)" opacity="0.1"/></g></g></svg>