<svg xmlns="http://www.w3.org/2000/svg" width="613.038" height="490.711" viewBox="0 0 613.038 490.711"><path d="M520.4,538.342a179.537,179.537,0,1,1,126.953-52.585A179.537,179.537,0,0,1,520.4,538.342Zm0-357.694c-98.236,0-178.156,79.921-178.156,178.157S422.166,536.961,520.4,536.961,698.558,457.041,698.558,358.8,618.637,180.648,520.4,180.648Z" transform="translate(-213.237 -120.809)" fill="#ccc"/><rect width="180.874" height="134.62" transform="translate(373.829 263.584) rotate(90)" fill="#2f2e41"/><rect width="180.874" height="71.797" transform="translate(216.082 258.061)" fill="#3f3d56"/><rect width="180.874" height="71.797" transform="translate(216.082 338.142)" fill="#3f3d56"/><rect width="180.874" height="71.797" transform="translate(216.082 418.224)" fill="#3f3d56"/><rect width="180.874" height="11.046" transform="translate(216.082 288.503)" fill="#1c7fc3"/><rect width="180.874" height="11.046" transform="translate(216.082 368.585)" fill="#1c7fc3"/><rect width="180.874" height="11.046" transform="translate(216.082 448.666)" fill="#1c7fc3"/><circle cx="4.142" cy="4.142" r="4.142" transform="translate(357.605 264.274)" fill="#1c7fc3"/><circle cx="4.142" cy="4.142" r="4.142" transform="translate(372.103 264.274)" fill="#1c7fc3"/><circle cx="4.142" cy="4.142" r="4.142" transform="translate(386.6 264.274)" fill="#1c7fc3"/><circle cx="4.142" cy="4.142" r="4.142" transform="translate(357.605 342.975)" fill="#1c7fc3"/><circle cx="4.142" cy="4.142" r="4.142" transform="translate(372.103 342.975)" fill="#1c7fc3"/><circle cx="4.142" cy="4.142" r="4.142" transform="translate(386.6 342.975)" fill="#1c7fc3"/><circle cx="4.142" cy="4.142" r="4.142" transform="translate(357.605 421.675)" fill="#1c7fc3"/><circle cx="4.142" cy="4.142" r="4.142" transform="translate(372.103 421.675)" fill="#1c7fc3"/><circle cx="4.142" cy="4.142" r="4.142" transform="translate(386.6 421.675)" fill="#1c7fc3"/><rect width="613.038" height="1.381" transform="translate(0 489.33)" fill="#3f3d56"/><path d="M366.41,361.118v128.4a10.131,10.131,0,0,1-10.127,10.129h-49.9a10.132,10.132,0,0,1-10.133-10.13v-128.4a10.132,10.132,0,0,1,10.133-10.129h6.053a4.817,4.817,0,0,0,4.456,6.632h28.449a4.817,4.817,0,0,0,4.456-6.632h6.484a10.131,10.131,0,0,1,10.129,10.127Z" transform="translate(-199.427 -173.986)" fill="#e6e6e6"/><rect width="63.513" height="88.366" transform="translate(100.146 201.522)" fill="#fff"/><rect width="25.35" height="1.449" transform="translate(118.18 262.286)" fill="#e6e6e6"/><rect width="39.224" height="1.449" transform="translate(118.154 267.605)" fill="#1c7fc3"/><rect width="30.782" height="1.449" transform="translate(118.154 272.615)" fill="#e6e6e6"/><rect width="18.107" height="1.449" transform="translate(118.154 277.627)" fill="#e6e6e6"/><rect width="27.16" height="1.449" transform="translate(118.154 282.637)" fill="#e6e6e6"/><rect width="2.897" height="2.897" transform="translate(106.683 261.869)" fill="#e6e6e6"/><rect width="2.897" height="2.897" transform="translate(106.683 266.88)" fill="#1c7fc3"/><rect width="2.897" height="2.897" transform="translate(106.683 271.891)" fill="#e6e6e6"/><rect width="2.897" height="2.897" transform="translate(106.683 276.903)" fill="#e6e6e6"/><rect width="2.897" height="2.897" transform="translate(106.683 281.913)" fill="#e6e6e6"/><rect width="25.542" height="25.542" transform="translate(119.26 212.568)" fill="#e6e6e6"/><rect width="169.748" height="108.714" transform="translate(221.681 0.096)" fill="#e6e6e6"/><rect width="140.737" height="53.182" transform="translate(234.478 30.511)" fill="#fff"/><rect width="33.777" height="1.93" transform="translate(260.119 39.724)" fill="#e6e6e6"/><rect width="52.264" height="1.93" transform="translate(260.085 46.811)" fill="#1c7fc3"/><rect width="41.015" height="1.93" transform="translate(260.085 53.488)" fill="#e6e6e6"/><rect width="24.126" height="1.93" transform="translate(260.085 60.165)" fill="#e6e6e6"/><rect width="36.19" height="1.93" transform="translate(260.085 66.842)" fill="#e6e6e6"/><rect width="3.86" height="3.86" transform="translate(244.802 39.169)" fill="#e6e6e6"/><rect width="3.86" height="3.86" transform="translate(244.802 45.846)" fill="#1c7fc3"/><rect width="3.86" height="3.86" transform="translate(244.802 52.523)" fill="#e6e6e6"/><rect width="3.86" height="3.86" transform="translate(244.802 59.2)" fill="#e6e6e6"/><rect width="3.86" height="3.86" transform="translate(244.802 65.877)" fill="#e6e6e6"/><rect width="34.558" height="34.558" transform="translate(333.75 37.174)" fill="#e6e6e6"/><rect width="169.748" height="7.211" transform="translate(221.609)" fill="#1c7fc3"/><circle cx="1.448" cy="1.448" r="1.448" transform="translate(225.52 2.239)" fill="#fff"/><circle cx="1.448" cy="1.448" r="1.448" transform="translate(230.593 2.239)" fill="#fff"/><circle cx="1.448" cy="1.448" r="1.448" transform="translate(235.667 2.239)" fill="#fff"/><rect width="41.421" height="21.401" transform="translate(463.677 203.522)" fill="#e6e6e6"/><rect width="41.421" height="21.401" transform="translate(463.677 280.152)" fill="#e6e6e6"/><circle cx="34.518" cy="34.518" r="34.518" transform="translate(449.87 218.02)" fill="#e6e6e6"/><circle cx="26.924" cy="26.924" r="26.924" transform="translate(457.464 225.614)" fill="#fff"/><rect width="20.881" height="1.193" transform="translate(475.572 245.161)" fill="#e2e2e2"/><rect width="32.31" height="1.193" transform="translate(475.55 249.542)" fill="#1c7fc3"/><rect width="25.356" height="1.193" transform="translate(475.55 253.67)" fill="#e2e2e2"/><rect width="14.915" height="1.193" transform="translate(475.55 257.798)" fill="#e2e2e2"/><rect width="22.373" height="1.193" transform="translate(475.55 261.925)" fill="#e2e2e2"/><rect width="2.386" height="2.386" transform="translate(466.102 244.818)" fill="#e2e2e2"/><rect width="2.386" height="2.386" transform="translate(466.102 248.946)" fill="#1c7fc3"/><rect width="2.386" height="2.386" transform="translate(466.102 253.073)" fill="#e2e2e2"/><rect width="2.386" height="2.386" transform="translate(466.102 257.201)" fill="#e2e2e2"/><rect width="2.386" height="2.386" transform="translate(466.102 261.329)" fill="#e2e2e2"/></svg>