<svg xmlns="http://www.w3.org/2000/svg" width="703.438" height="458.182" viewBox="0 0 703.438 458.182"><g transform="translate(-0.006 0.023)"><path d="M169.152,417.939l-3.888-2.417c-.371-.229-.736-.476-1.107-.711a37,37,0,0,0,3.74-72.1l.192,15.25-8.376-16.586h-.117a37,37,0,0,0-38.685,35.236c-.037.7,0,1.4,0,2.1a44.258,44.258,0,0,1-7.313-10.8c-3.542-7.906-3.61-16.87-3.332-27.756.556-21.581,1.49-43.322,2.7-65a37,37,0,0,0,32.862-35.014c.049-1.131.031-2.25,0-3.357a5.276,5.276,0,0,0-.043-.828c-.074-1.076-.173-2.139-.34-3.19a2.816,2.816,0,0,0-.093-.507c-.148-.89-.334-1.768-.544-2.64-.08-.321-.161-.618-.247-.971-.26-.94-.544-1.855-.878-2.788-.111-.3-.241-.618-.359-.9-.26-.674-.544-1.341-.847-2-.161-.346-.315-.692-.482-1.032-.049-.087-.08-.179-.13-.266h0A36.967,36.967,0,0,0,98.4,202.919l.247,19.843-8.284-16.394A36.825,36.825,0,0,0,72.71,246.278h-.037c.056.266.136.513.2.779.117.488.241.971.377,1.453.173.618.371,1.236.575,1.855.155.451.3.909.476,1.36.253.655.538,1.292.822,1.929.167.371.315.754.495,1.119q.7,1.44,1.533,2.8c.192.321.408.618.618.933.4.618.791,1.236,1.236,1.811.266.365.55.711.828,1.069.408.513.822,1.02,1.236,1.508.3.352.618.686.933,1.026.457.476.921.94,1.4,1.4.315.3.618.618.971.9.544.482,1.113.946,1.688,1.4.291.223.575.464.872.686q1.317.927,2.714,1.855c.173.111.365.2.538.3.785.457,1.576.89,2.392,1.292.352.173.711.321,1.069.482.668.3,1.341.618,2.034.853.4.155.81.3,1.236.439.68.229,1.372.439,2.071.618.408.111.822.229,1.236.328.754.179,1.527.328,2.306.464l.148.031q-.76,13.711-1.36,27.441a36.973,36.973,0,0,0-51.352-16.073l6.54,17.927-13.47-12.982A36.88,36.88,0,0,0,31.082,316.83a36.12,36.12,0,0,0,.94,10.194,36.992,36.992,0,0,0,68.036,10.082c0,.927-.062,1.855-.087,2.788-.247,9.606-.556,21.562,4.235,32.238,3.245,7.233,8.463,13.105,13.6,18.372,3.357,3.431,6.837,6.744,10.4,9.953a37.023,37.023,0,0,0,13.365,11.127c5.86,4.519,11.931,8.766,18.205,12.685l3.919,2.436c3.524,2.182,7.134,4.426,10.67,6.757-.618-.062-1.236-.13-1.855-.161a37.023,37.023,0,0,0-36.435,24.109l23.12,18.811-25.432-5.9a37.023,37.023,0,0,0,53.052,33.326q-.853,1.076-1.719,2.139-1.706,2.12-3.369,4.216c-15.046,19.052-19.231,37.146-11.782,50.938l9.062-4.9c-7.251-13.421,3.653-30.606,10.8-39.656q1.632-2.071,3.313-4.142c9.625-11.974,20.517-25.5,20.251-42.116C212.974,445.1,188.649,430.043,169.152,417.939Z" transform="translate(-31.03 -126.002)" fill="#f2f2f2"/><path d="M806.151,295.94l3.888-2.417c.371-.229.736-.476,1.107-.711a37,37,0,0,1-3.709-72.1l-.192,15.25,8.376-16.586h.105a37,37,0,0,1,38.685,35.236c.037.7,0,1.4,0,2.1a44.259,44.259,0,0,0,7.313-10.8c3.542-7.906,3.61-16.87,3.332-27.756-.556-21.581-1.49-43.322-2.7-65a37,37,0,0,1-32.862-35.014c-.049-1.131-.031-2.25,0-3.357a5.276,5.276,0,0,1,.043-.828c.074-1.076.173-2.139.34-3.19a2.811,2.811,0,0,1,.093-.507c.148-.89.334-1.768.544-2.64.08-.321.161-.618.247-.971.26-.94.544-1.855.878-2.788.111-.3.241-.618.359-.9.26-.674.544-1.341.847-2,.161-.346.315-.692.488-1.032.043-.087.074-.179.124-.266h0A36.967,36.967,0,0,1,876.9,80.914l-.247,19.843,8.284-16.394a36.825,36.825,0,0,1,17.655,39.916h.037c-.056.266-.136.513-.2.779-.117.488-.241.971-.377,1.453-.173.618-.371,1.236-.575,1.855-.155.451-.3.909-.476,1.36-.253.655-.538,1.292-.822,1.929-.167.371-.315.754-.495,1.119q-.7,1.44-1.533,2.8c-.192.321-.408.618-.618.933-.4.618-.791,1.236-1.236,1.811-.266.365-.55.711-.828,1.069-.408.513-.822,1.02-1.236,1.508-.3.352-.618.686-.933,1.026-.451.476-.921.94-1.4,1.4-.315.3-.618.618-.971.9-.544.482-1.113.946-1.688,1.4-.291.223-.575.464-.872.686-.878.618-1.78,1.236-2.714,1.824-.173.111-.365.2-.538.3-.785.457-1.576.89-2.392,1.292-.352.173-.711.321-1.069.482-.668.3-1.341.618-2.034.853-.4.155-.81.3-1.236.439-.68.229-1.372.439-2.071.618-.408.111-.822.229-1.236.328-.754.179-1.527.328-2.306.464h-.148q.76,13.717,1.36,27.441a36.973,36.973,0,0,1,51.352-16.073L918.8,182.2l13.458-12.92a36.88,36.88,0,0,1,11.956,25.549,36.118,36.118,0,0,1-.94,10.194,36.992,36.992,0,0,1-68.036,10.082c0,.927.068,1.854.087,2.788.247,9.606.556,21.562-4.234,32.238-3.245,7.233-8.463,13.105-13.6,18.372-3.357,3.431-6.837,6.744-10.4,9.953a37.022,37.022,0,0,1-13.365,11.127c-5.86,4.519-11.931,8.766-18.205,12.685l-3.919,2.436c-3.524,2.182-7.134,4.426-10.67,6.757.618-.062,1.236-.13,1.854-.161a37.023,37.023,0,0,1,36.435,24.109l-23.12,18.811,25.432-5.9a37.023,37.023,0,0,1-53.052,33.326q.853,1.076,1.719,2.139,1.706,2.12,3.369,4.216c15.046,19.052,19.231,37.146,11.782,50.938l-9.062-4.9c7.251-13.421-3.653-30.606-10.8-39.656q-1.632-2.071-3.313-4.142c-9.613-11.943-20.5-25.481-20.239-42.085C762.329,323.1,786.629,308.044,806.151,295.94Z" transform="translate(-310.1 -79.42)" fill="#f2f2f2"/><ellipse cx="306.109" cy="20.4" rx="306.109" ry="20.4" transform="translate(91.227 417.359)" fill="#f2f2f2"/><path d="M591.343,677.759,481.19,676.349l.321-2.825,5.329-46.6h96.738l7.115,46.6.544,3.53Z" transform="translate(-183.727 -239.382)" fill="#2f2e41"/><path d="M591.238,705.84H536.263l-55.073-.7.321-2.825H590.694Z" transform="translate(-183.727 -268.167)" opacity="0.1"/><rect width="146.168" height="3.53" transform="translate(279.103 434.847)" fill="#3f3d56"/><path d="M681.142,247.826a9.192,9.192,0,0,0-9.149-9.236H263.8a9.192,9.192,0,0,0-9.149,9.236V495.257H681.142Z" transform="translate(-116.411 -140.204)" fill="#3f3d56"/><path d="M254.65,649.8v28.98a9.149,9.149,0,0,0,9.149,9.149H671.993a9.149,9.149,0,0,0,9.149-9.149V649.8Z" transform="translate(-116.411 -297.213)" fill="#3f3d56"/><rect width="393.302" height="222.426" transform="translate(155.888 113.921)" fill="#2f2e41"/><path d="M597.124,681.924a9.52,9.52,0,0,0,7.5-3.641h0a9.432,9.432,0,0,0,.742-1.094l-5.23-.859,5.656.043a9.582,9.582,0,0,0,.185-7.554l-7.591,3.938,7-5.143a9.532,9.532,0,1,0-15.745,10.67h0a9.52,9.52,0,0,0,7.486,3.641Z" transform="translate(-243.544 -302.205)" fill="#1c7fc3"/><path d="M587.42,632.06l43.946,44.132-6.744-44.132Z" transform="translate(-224.288 -241.344)" opacity="0.1"/><path d="M783.966,747.227,795.8,740.3a28.663,28.663,0,0,0-6.052-7.239l-22.322,6.942,17.488-10.286a28.436,28.436,0,0,0-42.1,24.943c0,15.708,12.734,16.252,28.436,16.252s28.436-.544,28.436-16.252a28.375,28.375,0,0,0-2.436-11.535Z" transform="translate(-302.806 -326.394)" fill="#57b894"/><path d="M786.967,773.732a22.384,22.384,0,0,0-4.2-3.295,19.57,19.57,0,0,0-6.905-3.369c-2.219-.427-4.519-.068-6.8-.192a15.856,15.856,0,0,1-10.392-4.766c-1.62-1.669-2.887-3.709-4.834-5a10.609,10.609,0,0,0-7.233-1.329,19.44,19.44,0,0,0-2.145.445,28.312,28.312,0,0,0-1.681,9.644c0,15.708,12.734,16.252,28.436,16.252,7.622,0,14.546-.13,19.652-2.059l-.853-1.595a22.306,22.306,0,0,0-3.048-4.735Z" transform="translate(-302.791 -337.63)" opacity="0.1"/><rect width="13.074" height="3.969" transform="translate(173.358 199.73)" fill="#1c7fc3" opacity="0.3"/><rect width="13.074" height="3.969" transform="translate(522.225 199.848)" fill="#1c7fc3" opacity="0.3"/><rect width="13.074" height="3.969" transform="translate(173.475 227.629)" fill="#1c7fc3" opacity="0.3"/><rect width="13.074" height="3.969" transform="translate(173.592 255.527)" fill="#1c7fc3" opacity="0.3"/><rect width="13.074" height="3.969" transform="translate(173.71 283.419)" fill="#1c7fc3" opacity="0.3"/><g transform="translate(186.432 201.64)" opacity="0.2"><rect width="3.709" height="0.155" fill="#f2f2f2"/><path d="M663.968,405.775h-7.288v-.155h7.288Zm-14.583,0H642.1v-.155h7.288Zm-14.583,0h-7.294v-.155H634.8Zm-14.583,0h-7.294v-.155h7.294Zm-14.583,0h-7.294v-.155h7.294Zm-14.589,0h-7.288v-.155h7.288Zm-14.583,0H569.17v-.155h7.294Zm-14.583,0h-7.294v-.155h7.294Zm-14.583,0H540v-.155H547.3Zm-14.589,0h-7.288v-.155h7.288Zm-14.583,0h-7.294v-.155h7.294Zm-14.583,0H496.25v-.155h7.294Zm-14.583,0h-7.294v-.155h7.294Zm-14.589,0h-7.288v-.155h7.288Zm-14.583,0H452.5v-.155h7.288Zm-14.583,0h-7.27v-.155h7.294Zm-14.583,0H423.33v-.155h7.294Zm-14.589,0h-7.288v-.155h7.288Zm-14.583,0h-7.288v-.155h7.3Zm-14.583,0h-7.294v-.155h7.294Zm-14.583,0h-7.294v-.155h7.295Zm-14.589,0H350.41v-.155H357.7Z" transform="translate(-339.406 -405.62)" fill="#f2f2f2"/><rect width="3.709" height="0.155" transform="translate(331.856)" fill="#f2f2f2"/><rect width="3.709" height="0.155" fill="#f2f2f2"/><path d="M663.968,405.775h-7.288v-.155h7.288Zm-14.583,0H642.1v-.155h7.288Zm-14.583,0h-7.294v-.155H634.8Zm-14.583,0h-7.294v-.155h7.294Zm-14.583,0h-7.294v-.155h7.294Zm-14.589,0h-7.288v-.155h7.288Zm-14.583,0H569.17v-.155h7.294Zm-14.583,0h-7.294v-.155h7.294Zm-14.583,0H540v-.155H547.3Zm-14.589,0h-7.288v-.155h7.288Zm-14.583,0h-7.294v-.155h7.294Zm-14.583,0H496.25v-.155h7.294Zm-14.583,0h-7.294v-.155h7.294Zm-14.589,0h-7.288v-.155h7.288Zm-14.583,0H452.5v-.155h7.288Zm-14.583,0h-7.27v-.155h7.294Zm-14.583,0H423.33v-.155h7.294Zm-14.589,0h-7.288v-.155h7.288Zm-14.583,0h-7.288v-.155h7.3Zm-14.583,0h-7.294v-.155h7.294Zm-14.583,0h-7.294v-.155h7.295Zm-14.589,0H350.41v-.155H357.7Z" transform="translate(-339.406 -405.62)" fill="#f2f2f2"/><rect width="3.709" height="0.155" transform="translate(331.856)" fill="#f2f2f2"/></g><rect width="13.074" height="3.969" transform="translate(173.358 171.912)" fill="#1c7fc3" opacity="0.3"/><rect width="13.074" height="3.969" transform="translate(522.225 172.03)" fill="#1c7fc3" opacity="0.3"/><g transform="translate(186.432 173.822)" opacity="0.2"><rect width="3.709" height="0.155" fill="#f2f2f2"/><path d="M663.968,360.775h-7.288v-.155h7.288Zm-14.583,0H642.1v-.155h7.288Zm-14.583,0h-7.294v-.155H634.8Zm-14.583,0h-7.294v-.155h7.294Zm-14.583,0h-7.294v-.155h7.294Zm-14.589,0h-7.288v-.155h7.288Zm-14.583,0H569.17v-.155h7.294Zm-14.583,0h-7.294v-.155h7.294Zm-14.583,0H540v-.155H547.3Zm-14.589,0h-7.288v-.155h7.288Zm-14.583,0h-7.294v-.155h7.294Zm-14.583,0H496.25v-.155h7.294Zm-14.583,0h-7.294v-.155h7.294Zm-14.589,0h-7.288v-.155h7.288Zm-14.583,0H452.5v-.155h7.288Zm-14.583,0h-7.27v-.155h7.294Zm-14.583,0H423.33v-.155h7.294Zm-14.589,0h-7.288v-.155h7.288Zm-14.583,0h-7.288v-.155h7.3Zm-14.583,0h-7.294v-.155h7.294Zm-14.583,0h-7.294v-.155h7.295Zm-14.589,0H350.41v-.155H357.7Z" transform="translate(-339.406 -360.62)" fill="#f2f2f2"/><rect width="3.709" height="0.155" transform="translate(331.856)" fill="#f2f2f2"/></g><rect width="13.074" height="3.969" transform="translate(522.225 227.629)" fill="#1c7fc3" opacity="0.3"/><g transform="translate(186.432 229.415)" opacity="0.2"><rect width="3.709" height="0.155" transform="translate(0 0.006)" fill="#f2f2f2"/><path d="M663.968,450.7h-7.288v-.155h7.288Zm-14.583,0H642.1v-.155h7.288Zm-14.583,0h-7.294v-.155H634.8Zm-14.583,0h-7.294v-.155h7.294Zm-14.583,0h-7.294v-.155h7.294Zm-14.589,0h-7.288v-.155h7.288Zm-14.583,0H569.17v-.155h7.294Zm-14.583,0h-7.294v-.155h7.294Zm-14.583,0H540v-.155H547.3Zm-14.589,0h-7.288v-.155h7.288Zm-14.583,0h-7.294v-.155h7.294Zm-14.583,0H496.25v-.155h7.294Zm-14.583,0h-7.294v-.155h7.294Zm-14.589,0h-7.288v-.155h7.288Zm-14.583,0H452.5v-.155h7.288Zm-14.583,0h-7.27v-.155h7.294Zm-14.583,0H423.33v-.155h7.294Zm-14.589,0h-7.288v-.155h7.288Zm-14.583,0h-7.288v-.155h7.3Zm-14.583,0h-7.294v-.155h7.294Zm-14.583,0h-7.294v-.155h7.295Zm-14.589,0H350.41v-.155H357.7Z" transform="translate(-339.406 -450.55)" fill="#f2f2f2"/><rect width="3.709" height="0.155" transform="translate(331.856 0.006)" fill="#f2f2f2"/><rect width="3.709" height="0.155" transform="translate(0 0.006)" fill="#f2f2f2"/><path d="M663.968,450.7h-7.288v-.155h7.288Zm-14.583,0H642.1v-.155h7.288Zm-14.583,0h-7.294v-.155H634.8Zm-14.583,0h-7.294v-.155h7.294Zm-14.583,0h-7.294v-.155h7.294Zm-14.589,0h-7.288v-.155h7.288Zm-14.583,0H569.17v-.155h7.294Zm-14.583,0h-7.294v-.155h7.294Zm-14.583,0H540v-.155H547.3Zm-14.589,0h-7.288v-.155h7.288Zm-14.583,0h-7.294v-.155h7.294Zm-14.583,0H496.25v-.155h7.294Zm-14.583,0h-7.294v-.155h7.294Zm-14.589,0h-7.288v-.155h7.288Zm-14.583,0H452.5v-.155h7.288Zm-14.583,0h-7.27v-.155h7.294Zm-14.583,0H423.33v-.155h7.294Zm-14.589,0h-7.288v-.155h7.288Zm-14.583,0h-7.288v-.155h7.3Zm-14.583,0h-7.294v-.155h7.294Zm-14.583,0h-7.294v-.155h7.295Zm-14.589,0H350.41v-.155H357.7Z" transform="translate(-339.406 -450.55)" fill="#f2f2f2"/><rect width="3.709" height="0.155" transform="translate(331.856 0.006)" fill="#f2f2f2"/></g><rect width="13.074" height="3.969" transform="translate(522.225 255.409)" fill="#1c7fc3" opacity="0.3"/><g transform="translate(186.432 257.196)" opacity="0.2"><rect width="3.709" height="0.155" fill="#f2f2f2"/><path d="M663.968,495.645h-7.288v-.155h7.288Zm-14.583,0H642.1v-.155h7.288Zm-14.583,0h-7.294v-.155H634.8Zm-14.583,0h-7.294v-.155h7.294Zm-14.583,0h-7.294v-.155h7.294Zm-14.589,0h-7.288v-.155h7.288Zm-14.583,0H569.17v-.155h7.294Zm-14.583,0h-7.294v-.155h7.294Zm-14.583,0H540v-.155H547.3Zm-14.589,0h-7.288v-.155h7.288Zm-14.583,0h-7.294v-.155h7.294Zm-14.583,0H496.25v-.155h7.294Zm-14.583,0h-7.294v-.155h7.294Zm-14.589,0h-7.288v-.155h7.288Zm-14.583,0H452.5v-.155h7.288Zm-14.583,0h-7.27v-.155h7.294Zm-14.583,0H423.33v-.155h7.294Zm-14.589,0h-7.288v-.155h7.288Zm-14.583,0h-7.288v-.155h7.3Zm-14.583,0h-7.294v-.155h7.294Zm-14.583,0h-7.294v-.155h7.295Zm-14.589,0H350.41v-.155H357.7Z" transform="translate(-339.406 -495.49)" fill="#f2f2f2"/><rect width="3.709" height="0.155" transform="translate(331.856)" fill="#f2f2f2"/><rect width="3.709" height="0.155" fill="#f2f2f2"/><path d="M663.968,495.645h-7.288v-.155h7.288Zm-14.583,0H642.1v-.155h7.288Zm-14.583,0h-7.294v-.155H634.8Zm-14.583,0h-7.294v-.155h7.294Zm-14.583,0h-7.294v-.155h7.294Zm-14.589,0h-7.288v-.155h7.288Zm-14.583,0H569.17v-.155h7.294Zm-14.583,0h-7.294v-.155h7.294Zm-14.583,0H540v-.155H547.3Zm-14.589,0h-7.288v-.155h7.288Zm-14.583,0h-7.294v-.155h7.294Zm-14.583,0H496.25v-.155h7.294Zm-14.583,0h-7.294v-.155h7.294Zm-14.589,0h-7.288v-.155h7.288Zm-14.583,0H452.5v-.155h7.288Zm-14.583,0h-7.27v-.155h7.294Zm-14.583,0H423.33v-.155h7.294Zm-14.589,0h-7.288v-.155h7.288Zm-14.583,0h-7.288v-.155h7.3Zm-14.583,0h-7.294v-.155h7.294Zm-14.583,0h-7.294v-.155h7.295Zm-14.589,0H350.41v-.155H357.7Z" transform="translate(-339.406 -495.49)" fill="#f2f2f2"/><rect width="3.709" height="0.155" transform="translate(331.856)" fill="#f2f2f2"/></g><rect width="13.074" height="3.969" transform="translate(522.225 283.184)" fill="#1c7fc3" opacity="0.3"/><g transform="translate(186.432 284.977)" opacity="0.2"><rect width="3.709" height="0.155" fill="#f2f2f2"/><path d="M663.968,540.585h-7.288v-.155h7.288Zm-14.583,0H642.1v-.155h7.288Zm-14.583,0h-7.294v-.155H634.8Zm-14.583,0h-7.294v-.155h7.294Zm-14.583,0h-7.294v-.155h7.294Zm-14.589,0h-7.288v-.155h7.288Zm-14.583,0H569.17v-.155h7.294Zm-14.583,0h-7.294v-.155h7.294Zm-14.583,0H540v-.155H547.3Zm-14.589,0h-7.288v-.155h7.288Zm-14.583,0h-7.294v-.155h7.294Zm-14.583,0H496.25v-.155h7.294Zm-14.583,0h-7.294v-.155h7.294Zm-14.589,0h-7.288v-.155h7.288Zm-14.583,0H452.5v-.155h7.288Zm-14.583,0h-7.27v-.155h7.294Zm-14.583,0H423.33v-.155h7.294Zm-14.589,0h-7.288v-.155h7.288Zm-14.583,0h-7.288v-.155h7.3Zm-14.583,0h-7.294v-.155h7.294Zm-14.583,0h-7.294v-.155h7.295Zm-14.589,0H350.41v-.155H357.7Z" transform="translate(-339.406 -540.43)" fill="#f2f2f2"/><rect width="3.709" height="0.155" transform="translate(331.856)" fill="#f2f2f2"/><rect width="3.709" height="0.155" fill="#f2f2f2"/><path d="M663.968,540.585h-7.288v-.155h7.288Zm-14.583,0H642.1v-.155h7.288Zm-14.583,0h-7.294v-.155H634.8Zm-14.583,0h-7.294v-.155h7.294Zm-14.583,0h-7.294v-.155h7.294Zm-14.589,0h-7.288v-.155h7.288Zm-14.583,0H569.17v-.155h7.294Zm-14.583,0h-7.294v-.155h7.294Zm-14.583,0H540v-.155H547.3Zm-14.589,0h-7.288v-.155h7.288Zm-14.583,0h-7.294v-.155h7.294Zm-14.583,0H496.25v-.155h7.294Zm-14.583,0h-7.294v-.155h7.294Zm-14.589,0h-7.288v-.155h7.288Zm-14.583,0H452.5v-.155h7.288Zm-14.583,0h-7.27v-.155h7.294Zm-14.583,0H423.33v-.155h7.294Zm-14.589,0h-7.288v-.155h7.288Zm-14.583,0h-7.288v-.155h7.3Zm-14.583,0h-7.294v-.155h7.294Zm-14.583,0h-7.294v-.155h7.295Zm-14.589,0H350.41v-.155H357.7Z" transform="translate(-339.406 -540.43)" fill="#f2f2f2"/><rect width="3.709" height="0.155" transform="translate(331.856)" fill="#f2f2f2"/></g><line y2="111.389" transform="translate(229.055 174.014)" fill="none" stroke="#f2f2f2" stroke-miterlimit="10" stroke-width="0.1"/><line y2="111.389" transform="translate(274.182 174.014)" fill="none" stroke="#f2f2f2" stroke-miterlimit="10" stroke-width="0.1"/><line y2="111.389" transform="translate(319.309 174.014)" fill="none" stroke="#f2f2f2" stroke-miterlimit="10" stroke-width="0.1"/><line y2="111.389" transform="translate(364.436 174.014)" fill="none" stroke="#f2f2f2" stroke-miterlimit="10" stroke-width="0.1"/><line y2="111.389" transform="translate(409.563 174.014)" fill="none" stroke="#f2f2f2" stroke-miterlimit="10" stroke-width="0.1"/><line y2="111.389" transform="translate(454.69 174.014)" fill="none" stroke="#f2f2f2" stroke-miterlimit="10" stroke-width="0.1"/><line y2="111.389" transform="translate(499.816 174.014)" fill="none" stroke="#f2f2f2" stroke-miterlimit="10" stroke-width="0.1"/><path d="M659,348.493l-5.162,5.378a1.577,1.577,0,0,0-.26.377l-3.2,6.6a1.459,1.459,0,0,1-1.428.822l-1.026-.08a1.459,1.459,0,0,1-1.3-1.051l-.989-3.425a1.465,1.465,0,0,0-2.794-.068l-1.663,4.871a1.465,1.465,0,0,1-1.391,1h-6.349a1.471,1.471,0,0,1-1.447-1.236l-1.793-11.22a1.465,1.465,0,0,0-2.757-.433l-9.192,18.143a1.465,1.465,0,0,1-2.151.538l-5.465-3.857a1.477,1.477,0,0,0-1.96.235l-2.071,2.392a1.394,1.394,0,0,0-.161.229l-5.526,9.563a1.453,1.453,0,0,1-1.416.723l-3.369-.334a1.478,1.478,0,0,0-.692.1l-3.017,1.205a1.465,1.465,0,0,1-1.854-.773l-.661-1.515a1.471,1.471,0,0,0-1.409-.878l-3.449.161a1.446,1.446,0,0,0-1.094.575l-.977,1.273a1.465,1.465,0,0,1-2.547-.408l-1.236-3.493a1.465,1.465,0,0,0-2.263-.686l-5.873,4.4-6.491,5.236a1.471,1.471,0,0,1-1.595.161l-5.038-2.615a1.478,1.478,0,0,0-.878-.148l-10.206,1.428a1.471,1.471,0,0,0-1.236,1.125l-1.811,7.869a1.465,1.465,0,0,1-2.38.785h0a1.471,1.471,0,0,0-2.269.457l-1.391,2.788a1.484,1.484,0,0,1-1.069.791l-3.159.525a1.472,1.472,0,0,0-.569.229l-4.976,3.313a1.452,1.452,0,0,1-.81.247h-2.331a1.465,1.465,0,0,1-1.348-.884l-.618-1.477a1.465,1.465,0,0,0-1.966-.736l-5.4,2.528a1.471,1.471,0,0,1-1.379-.068l-2.473-1.49a1.477,1.477,0,0,0-.754-.21h-5.458a1.465,1.465,0,0,0-.81.247l-5.446,3.616a1.465,1.465,0,0,1-1.434.105l-2.473-1.168a1.465,1.465,0,0,0-1.725.365l-1.175,1.341a1.459,1.459,0,0,1-2.38-.247l-.352-.618a1.465,1.465,0,0,0-2.028-.544l-4.284,2.541a1.465,1.465,0,0,1-1.459,0l-1.768-.983a1.453,1.453,0,0,0-1.317-.056l-1.681.767a1.477,1.477,0,0,1-2.009-.89l-1.088-3.239a1.453,1.453,0,0,0-1.4-1.02h-1.583a1.434,1.434,0,0,1-.711-.185l-6.077-3.332a1.471,1.471,0,0,0-1.583.117l-4.457,3.338a1.453,1.453,0,0,1-.878.291h-5.607a1.452,1.452,0,0,0-.81.247l-1.051.7a1.465,1.465,0,0,1-2.127-.563l-.253-.5a1.459,1.459,0,0,0-1.311-.816h-2.813a1.465,1.465,0,0,0-1.156.569l-1.743,2.232a1.465,1.465,0,0,1-2.392-.117l-.495-.773a1.459,1.459,0,0,0-1.991-.47l-1.446.865a1.471,1.471,0,0,1-1.613-.068L426.7,395a1.772,1.772,0,0,0-.334-.185l-4.556-1.749a1.465,1.465,0,0,0-1.855.816l-3.171,7.727a1.321,1.321,0,0,0-.093.34l-1.026,6.961a1.472,1.472,0,0,1-.383.785l-2.17,2.33a1.477,1.477,0,0,1-1.786.278l-3.765-2.089a1.465,1.465,0,0,0-2.1.8l-2.386,6.979a1.4,1.4,0,0,0-.08.476v4.4a1.465,1.465,0,0,1-.884,1.341l-3.826,1.694a1.465,1.465,0,0,1-1.329-.087l-2.881-1.694a1.465,1.465,0,0,0-.952-.185l-5.05.723a1.459,1.459,0,0,1-1.471-.717l-.853-1.459a1.453,1.453,0,0,0-.828-.655l-2.293-.717a1.459,1.459,0,0,0-1.527.414l-3.184,3.536a1.484,1.484,0,0,1-.971.482l-4.7.4a1.385,1.385,0,0,0-.618.185l-8.191,4.711a1.471,1.471,0,0,1-1.644-.13l-2.324-1.854a1.484,1.484,0,0,0-.915-.321h-8.8a1.453,1.453,0,0,1-1.144-.55l-2.219-2.769a1.465,1.465,0,0,0-2.232-.062l-2.671,2.967a1.465,1.465,0,0,0-.377.977v36.868a1.465,1.465,0,0,0,1.465,1.465H660.151a1.465,1.465,0,0,0,1.465-1.471l-.087-116.421A1.471,1.471,0,0,0,659,348.493Z" transform="translate(-149.424 -181.996)" fill="#1c7fc3" opacity="0.3"/><path d="M658.724,425.813,653.94,429a1.855,1.855,0,0,0-.439.414l-2.973,3.925a1.855,1.855,0,0,1-1.533.717l-.971-.049a1.817,1.817,0,0,1-1.564-1.063l-.618-1.317a1.805,1.805,0,0,0-3.245-.105l-1.236,2.368a1.8,1.8,0,0,1-1.6.958h-6.132a1.8,1.8,0,0,1-1.756-1.372l-1.471-5.891a1.811,1.811,0,0,0-3.177-.686l-8.84,11.177a1.8,1.8,0,0,1-2.164.525l-5.681-2.565a1.811,1.811,0,0,0-1.854.192l-2.034,1.5a1.681,1.681,0,0,0-.266.247l-5.366,5.941a1.811,1.811,0,0,1-1.459.618l-3.505-.223a1.957,1.957,0,0,0-.569.049l-3.159.81a1.805,1.805,0,0,1-1.947-.729l-.359-.532a1.811,1.811,0,0,0-1.545-.785l-3.524.105a1.743,1.743,0,0,0-1.107.42l-.865.723a1.811,1.811,0,0,1-2.751-.513l-.915-1.657a1.811,1.811,0,0,0-2.368-.76l-5.928,2.85-6.559,3.388a1.8,1.8,0,0,1-1.4.105l-5.224-1.731a1.854,1.854,0,0,0-.729-.086L547,446.831a1.854,1.854,0,0,0-1.545,1.193l-1.465,4.092a1.811,1.811,0,0,1-2.572.977l-.062-.031a1.8,1.8,0,0,0-2.294.47L537.908,455a1.854,1.854,0,0,1-1.236.686l-3.165.34a1.854,1.854,0,0,0-.519.13l-5.013,2.145a1.89,1.89,0,0,1-.711.142h-2.411a1.811,1.811,0,0,1-1.5-.791l-.346-.507a1.811,1.811,0,0,0-2.015-.711l-5.619,1.7a1.817,1.817,0,0,1-1.175-.043l-2.609-1a1.779,1.779,0,0,0-.618-.124h-5.6a1.737,1.737,0,0,0-.7.148l-5.564,2.361a1.793,1.793,0,0,1-1.236.068l-2.751-.822a1.818,1.818,0,0,0-1.589.272l-1.205.884a1.811,1.811,0,0,1-2.429-.266l-.179-.2a1.811,1.811,0,0,0-2-.5l-4.482,1.712a1.8,1.8,0,0,1-1.236,0l-1.966-.7a1.855,1.855,0,0,0-1.113-.031l-1.855.538a1.811,1.811,0,0,1-2.12-.927l-.692-1.391a1.817,1.817,0,0,0-1.62-1h-1.607a1.793,1.793,0,0,1-.618-.1l-6.237-2.188a1.793,1.793,0,0,0-1.385.074l-4.556,2.188a1.854,1.854,0,0,1-.785.179h-5.755a1.891,1.891,0,0,0-.711.142l-1.175.507a1.818,1.818,0,0,1-2.139-.55h0a1.805,1.805,0,0,0-1.428-.7h-2.905a1.817,1.817,0,0,0-1.15.408l-1.688,1.385a1.8,1.8,0,0,1-2.429-.124l-.383-.383a1.811,1.811,0,0,0-1.935-.414l-1.681.649a1.855,1.855,0,0,1-1.416-.049l-5.916-2.745a1.466,1.466,0,0,0-.328-.111l-4.643-1.144a1.8,1.8,0,0,0-1.953.779l-2.918,4.55a1.854,1.854,0,0,0-.241.569l-.884,3.864a1.855,1.855,0,0,1-.742,1.088l-1.929,1.323a1.793,1.793,0,0,1-1.626.21L407.5,465.1a1.811,1.811,0,0,0-2.219.89l-2.089,3.907a1.854,1.854,0,0,0-.21.853v1.762a1.817,1.817,0,0,1-1.329,1.743l-3.474.964a1.78,1.78,0,0,1-1.119-.049l-3.029-1.144a1.78,1.78,0,0,0-.8-.111L388,474.4a1.793,1.793,0,0,1-1.5-.581l-.618-.686a1.756,1.756,0,0,0-.983-.556l-2.38-.482a1.854,1.854,0,0,0-1.409.3l-3.134,2.232a1.854,1.854,0,0,1-.952.334l-4.8.253a1.893,1.893,0,0,0-.532.111l-8.339,3.091a1.768,1.768,0,0,1-1.447-.087l-2.411-1.236a1.812,1.812,0,0,0-.822-.2H349.7a1.811,1.811,0,0,1-1.137-.4l-2.17-1.737a1.811,1.811,0,0,0-2.182-.062l-2.324,1.657a1.818,1.818,0,0,0-.76,1.477V495.2a1.811,1.811,0,0,0,1.811,1.811H659.812a1.811,1.811,0,0,0,1.811-1.811l-.087-67.857a1.811,1.811,0,0,0-2.813-1.533Z" transform="translate(-149.431 -211.575)" fill="#1c7fc3" opacity="0.3"/><circle cx="4.327" cy="4.327" r="4.327" transform="translate(506.245 209.454)" fill="#1c7fc3"/><path d="M659.718,494.469l-5.879,1.96a1.536,1.536,0,0,0-.321.155l-3.227,2.133a1.372,1.372,0,0,1-.791.223l-2.009-.049a1.372,1.372,0,0,1-.989-.451l-1.236-1.36A1.379,1.379,0,0,0,643.3,497l-2.083,1.953a1.36,1.36,0,0,1-.94.377h-7.22a1.366,1.366,0,0,1-1.236-.767l-1.651-3.295a1.379,1.379,0,0,0-1.966-.55l-10.218,6.472a1.391,1.391,0,0,1-1.039.179l-7-1.576a1.341,1.341,0,0,0-.779.049l-2.553.946a.869.869,0,0,0-.192.087L600.781,504a1.422,1.422,0,0,1-.711.173l-4.179-.136a1.238,1.238,0,0,0-.216,0l-4.018.513a1.4,1.4,0,0,1-.989-.253l-.816-.618a1.359,1.359,0,0,0-.834-.266l-4.408.062a1.31,1.31,0,0,0-.513.105l-1.978.835a1.385,1.385,0,0,1-1.459-.253l-1.62-1.434a1.372,1.372,0,0,0-1.236-.315l-6.763,1.632-6.955,1.8a1.354,1.354,0,0,1-.569,0l-5.873-.977a2.188,2.188,0,0,0-.284,0l-10.861.488a1.372,1.372,0,0,0-1.057.575l-1.638,2.256a1.372,1.372,0,0,1-1.484.525l-1.749-.482a1.4,1.4,0,0,0-1.107.173l-1.749,1.119a1.416,1.416,0,0,1-.668.21l-3.709.2a1.227,1.227,0,0,0-.21,0l-5.353,1.144a1.544,1.544,0,0,1-.291.031h-3.14a1.366,1.366,0,0,1-.81-.266l-.816-.618a1.353,1.353,0,0,0-1.014-.253l-6.682,1a1.459,1.459,0,0,1-.464,0l-3.14-.618a1.243,1.243,0,0,0-.26,0h-6.027a1.483,1.483,0,0,0-.284,0l-6.114,1.3a1.329,1.329,0,0,1-.494,0l-3.641-.55a1.415,1.415,0,0,0-.68.074l-2.337.853a1.354,1.354,0,0,1-1.156-.1l-1.107-.618a1.335,1.335,0,0,0-.933-.161l-5.564,1.057a1.368,1.368,0,0,1-.5,0l-2.677-.476a1.5,1.5,0,0,0-.439,0l-2.955.427a1.36,1.36,0,0,1-1.168-.383l-.977-.933a1.41,1.41,0,0,0-.977-.4h-2.343a1.458,1.458,0,0,1-.235,0l-6.837-1.2a1.33,1.33,0,0,0-.563,0l-5.168,1.236a1.382,1.382,0,0,1-.321.037h-6.225a1.424,1.424,0,0,0-.284,0l-2.108.451a1.41,1.41,0,0,1-1.057-.124l-.581-.377a1.384,1.384,0,0,0-.742-.216H442.9a1.367,1.367,0,0,0-.519.105l-2.633,1.076a1.354,1.354,0,0,1-1.137-.043l-1.4-.7a1.391,1.391,0,0,0-.878-.124l-2.757.532a1.362,1.362,0,0,1-.569,0l-6.392-1.484h-.142l-5.434-.674a1.4,1.4,0,0,0-1.014.284l-3.091,2.4a1.347,1.347,0,0,0-.4.507l-.692,1.539a1.391,1.391,0,0,1-.8.729l-2.374.81a1.3,1.3,0,0,1-.686.056l-5.279-.94a1.385,1.385,0,0,0-1.181.352l-2.1,1.96a1.372,1.372,0,0,0-.433,1.008h0A1.372,1.372,0,0,1,401.8,519l-3.962.55a1.348,1.348,0,0,1-.445,0l-3.585-.68a1.381,1.381,0,0,0-.321,0l-5.99.272a1.416,1.416,0,0,1-.723-.167l-1.051-.575a1.31,1.31,0,0,0-.525-.167l-3.147-.315a1.409,1.409,0,0,0-.618.074l-3.709,1.317a1.413,1.413,0,0,1-.427.08l-5.273.142a1.275,1.275,0,0,0-.216,0l-8.933,1.65a1.447,1.447,0,0,1-.587,0l-3.041-.779a1.61,1.61,0,0,0-.346-.043h-9.588a1.309,1.309,0,0,1-.513-.1l-3-1.2a1.366,1.366,0,0,0-.977,0l-2.794,1a1.366,1.366,0,0,0-.915,1.292v.618a1.372,1.372,0,0,0,1.372,1.379H660.225a1.372,1.372,0,0,0,1.372-1.379l-.08-26.13a1.379,1.379,0,0,0-1.8-1.366Z" transform="translate(-149.424 -237.879)" fill="#1c7fc3" opacity="0.3"/><circle cx="4.327" cy="4.327" r="4.327" transform="translate(268.248 238.508)" fill="#1c7fc3"/><circle cx="4.327" cy="4.327" r="4.327" transform="translate(475.955 211.309)" fill="#1c7fc3"/><circle cx="4.327" cy="4.327" r="4.327" transform="translate(368.392 240.363)" fill="#1c7fc3"/><circle cx="4.327" cy="4.327" r="4.327" transform="translate(424.646 224.909)" fill="#1c7fc3"/><path d="M662.537,427.306a1.811,1.811,0,0,0-2.813-1.5l-4.785,3.19a1.854,1.854,0,0,0-.439.414l-2.973,3.925a1.854,1.854,0,0,1-1.533.717l-.971-.049a1.817,1.817,0,0,1-1.564-1.063l-.618-1.317a1.805,1.805,0,0,0-3.245-.105l-1.236,2.368a1.805,1.805,0,0,1-1.6.958h-6.132a1.8,1.8,0,0,1-1.756-1.372l-1.471-5.891a1.811,1.811,0,0,0-3.177-.686l-8.84,11.177a1.8,1.8,0,0,1-2.164.525l-5.681-2.565a1.811,1.811,0,0,0-1.854.192l-2.034,1.5a1.679,1.679,0,0,0-.266.247l-5.366,5.941a1.812,1.812,0,0,1-1.459.618l-3.505-.223a1.953,1.953,0,0,0-.569.049l-3.159.81a1.805,1.805,0,0,1-1.947-.729l-.359-.532a1.811,1.811,0,0,0-1.545-.785l-3.524.105a1.743,1.743,0,0,0-1.107.42l-.865.723a1.811,1.811,0,0,1-2.751-.513l-.915-1.657a1.811,1.811,0,0,0-2.368-.76l-5.928,2.85-6.559,3.388a1.8,1.8,0,0,1-1.4.105l-5.224-1.731a1.855,1.855,0,0,0-.729-.087L548,446.828a1.855,1.855,0,0,0-1.545,1.193l-1.465,4.092a1.811,1.811,0,0,1-2.572.977l-.062-.031a1.8,1.8,0,0,0-2.293.47L538.908,455a1.854,1.854,0,0,1-1.236.686l-3.165.34a1.857,1.857,0,0,0-.519.13l-5.013,2.145a1.892,1.892,0,0,1-.711.142h-2.411a1.811,1.811,0,0,1-1.5-.791l-.346-.507a1.811,1.811,0,0,0-2.015-.711l-5.619,1.7a1.817,1.817,0,0,1-1.174-.043l-2.609-1a1.781,1.781,0,0,0-.618-.124h-5.6a1.737,1.737,0,0,0-.7.148l-5.564,2.361a1.793,1.793,0,0,1-1.236.068l-2.751-.822a1.818,1.818,0,0,0-1.589.272l-1.205.884a1.811,1.811,0,0,1-2.429-.266l-.179-.2a1.811,1.811,0,0,0-2-.5l-4.482,1.712a1.805,1.805,0,0,1-1.236,0l-1.966-.7a1.855,1.855,0,0,0-1.113-.031l-1.855.538a1.811,1.811,0,0,1-2.12-.927l-.692-1.391a1.817,1.817,0,0,0-1.62-1h-1.607a1.793,1.793,0,0,1-.618-.1l-6.237-2.188a1.793,1.793,0,0,0-1.385.074l-4.556,2.188a1.854,1.854,0,0,1-.785.179h-5.755a1.892,1.892,0,0,0-.711.142l-1.175.507a1.817,1.817,0,0,1-2.139-.55h0a1.805,1.805,0,0,0-1.428-.7h-2.905a1.818,1.818,0,0,0-1.15.408l-1.688,1.385a1.8,1.8,0,0,1-2.429-.124l-.383-.383a1.811,1.811,0,0,0-1.935-.414l-1.681.649a1.854,1.854,0,0,1-1.416-.049l-5.916-2.745a1.465,1.465,0,0,0-.328-.111l-4.643-1.144a1.8,1.8,0,0,0-1.953.779l-2.918,4.55a1.853,1.853,0,0,0-.241.569l-.884,3.864a1.855,1.855,0,0,1-.742,1.088l-1.929,1.323a1.793,1.793,0,0,1-1.626.21L408.5,465.1a1.811,1.811,0,0,0-2.219.89l-2.089,3.907a1.855,1.855,0,0,0-.21.853v1.762a1.817,1.817,0,0,1-1.329,1.743l-3.474.964a1.78,1.78,0,0,1-1.119-.049l-3.029-1.144a1.78,1.78,0,0,0-.8-.111l-5.224.476a1.793,1.793,0,0,1-1.5-.581l-.618-.686a1.755,1.755,0,0,0-.983-.556l-2.38-.482a1.854,1.854,0,0,0-1.409.3l-3.134,2.232a1.854,1.854,0,0,1-.952.334l-4.8.253a1.894,1.894,0,0,0-.532.111l-8.339,3.091a1.768,1.768,0,0,1-1.447-.087l-2.411-1.236a1.811,1.811,0,0,0-.822-.2H350.7a1.811,1.811,0,0,1-1.137-.4l-2.17-1.737a1.811,1.811,0,0,0-2.182-.062l-2.324,1.657a1.817,1.817,0,0,0-.76,1.477" transform="translate(-149.813 -211.571)" fill="none" stroke="#1c7fc3" stroke-miterlimit="10" stroke-width="1"/><rect width="361.633" height="0.062" transform="translate(173.667 310.804)" fill="#f2f2f2" opacity="0.2"/><circle cx="3.091" cy="3.091" r="3.091" transform="translate(226.212 307.744)" fill="#1c7fc3" opacity="0.3"/><circle cx="3.091" cy="3.091" r="3.091" transform="translate(271.338 307.744)" fill="#1c7fc3" opacity="0.3"/><circle cx="3.091" cy="3.091" r="3.091" transform="translate(316.465 307.744)" fill="#1c7fc3" opacity="0.3"/><circle cx="3.091" cy="3.091" r="3.091" transform="translate(361.592 307.744)" fill="#1c7fc3" opacity="0.3"/><circle cx="3.091" cy="3.091" r="3.091" transform="translate(406.719 307.744)" fill="#1c7fc3" opacity="0.3"/><circle cx="3.091" cy="3.091" r="3.091" transform="translate(451.846 307.744)" fill="#1c7fc3" opacity="0.3"/><circle cx="3.091" cy="3.091" r="3.091" transform="translate(496.973 307.744)" fill="#1c7fc3" opacity="0.3"/><path d="M260.669,728.75c-1.855-3.406.247-7.579,2.652-10.614s5.322-6.182,5.261-10.07c-.093-5.563-6-8.852-10.713-11.8a51.928,51.928,0,0,1-9.619-7.746,14.218,14.218,0,0,1-2.955-3.956c-.977-2.176-.952-4.649-.89-7.029q.315-11.918,1.181-23.794" transform="translate(-112.489 -298.718)" fill="none" stroke="#3f3d56" stroke-miterlimit="10" stroke-width="4"/><path d="M231.811,647.95a8.655,8.655,0,0,1,4.327-7.109l1.941,3.839-.062-4.649a8.79,8.79,0,0,1,2.862-.346,8.654,8.654,0,1,1-9.075,8.265Z" transform="translate(-107.685 -293.348)" fill="#57b894"/><path d="M256.254,740.253a8.654,8.654,0,1,0-.42-6.985l5.421,4.408L255.29,736.3A8.654,8.654,0,0,0,256.254,740.253Z" transform="translate(-116.655 -326.931)" fill="#57b894"/><path d="M258.687,710.087a8.654,8.654,0,0,0,2.751-17.018l.049,3.573-1.966-3.888h0a8.655,8.655,0,0,0-9.069,8.259,8.556,8.556,0,0,0,.371,2.961A8.654,8.654,0,0,0,258.687,710.087Z" transform="translate(-114.804 -313.61)" fill="#57b894"/><path d="M224.6,687.443a8.654,8.654,0,1,0-3.839-16.24l1.533,4.2-3.153-3.029a8.655,8.655,0,0,0-2.8,5.99,8.525,8.525,0,0,0,.216,2.392A8.685,8.685,0,0,0,224.6,687.443Z" transform="translate(-101.78 -304.979)" fill="#57b894"/><path d="M233.1,653.2c2,.216,3.95.841,5.959.964s4.216-.359,5.489-1.916a27.486,27.486,0,0,0,1.6-2.825,6.181,6.181,0,0,1,2.188-2.059,8.654,8.654,0,1,1-16.221,5.761Q232.615,653.14,233.1,653.2Z" transform="translate(-107.809 -296.282)" opacity="0.1"/><path d="M224.754,690.494a8.654,8.654,0,0,0,8.253-12.364,6.411,6.411,0,0,0-1.743,1.743,29.092,29.092,0,0,1-1.719,2.868c-1.354,1.589-3.66,2.108-5.755,2.015s-4.117-.692-6.182-.884c-.291,0-.581-.043-.878-.049A8.685,8.685,0,0,0,224.754,690.494Z" transform="translate(-101.932 -308.03)" opacity="0.1"/><path d="M258.912,713.24A8.654,8.654,0,0,0,267.232,701a7.1,7.1,0,0,0-1.855,1.762c-.674.952-1.094,2.046-1.855,2.924-1.465,1.632-3.925,2.207-6.138,2.151s-4.222-.569-6.355-.736A8.654,8.654,0,0,0,258.912,713.24Z" transform="translate(-115.029 -316.763)" opacity="0.1"/><path d="M256.85,743.678a8.665,8.665,0,0,0,15.819-7.078,8.533,8.533,0,0,0-1.9,1.694,35.7,35.7,0,0,1-2.324,3.091c-1.774,1.743-4.636,2.473-7.189,2.528a38.434,38.434,0,0,1-4.4-.235Z" transform="translate(-117.251 -330.356)" opacity="0.1"/><path d="M276.159,766.455s-6.849-.21-8.914-1.681-10.509-3.221-11.041-.865-10.293,11.745-2.565,11.782,17.964-1.205,20.029-2.473S276.159,766.455,276.159,766.455Z" transform="translate(-114.893 -340.342)" fill="#656380"/><path d="M253.519,777.138c7.733.062,17.964-1.2,20.023-2.473,1.57-.958,2.195-4.389,2.4-5.965h.229s-.433,5.52-2.473,6.8-12.3,2.522-20.029,2.473c-2.232,0-3-.81-2.955-1.984C251.009,776.681,251.856,777.126,253.519,777.138Z" transform="translate(-114.909 -342.612)" opacity="0.2"/><path d="M989.668,641.286a9.651,9.651,0,0,0-.5,4.024,8.307,8.307,0,0,0,1.854,3.672,3.493,3.493,0,0,0,2,1.5,2.367,2.367,0,0,0,2.207-1.07,5.25,5.25,0,0,0,.8-2.429,27.7,27.7,0,0,0-.34-6.886,46.132,46.132,0,0,0-.835-5.86c-1.311,0-2.825-.241-3.555,1.008C990.372,636.872,990.15,639.468,989.668,641.286Z" transform="translate(-396.853 -291.264)" fill="#ffc0c6"/><path d="M997.694,588.214c-.321.909-.773,1.774-1.069,2.7a18.83,18.83,0,0,0-.618,2.93,160.163,160.163,0,0,1-3.709,17.272,18.546,18.546,0,0,0-.927,5.168l3.536-.124a1.329,1.329,0,0,1,.952.21c.3.272.507.872.89.717a89.05,89.05,0,0,0,1.391-10.28c.142-2.473.074-4.9.235-7.338.309-4.865,1.756-10.41-.136-15.114a10.13,10.13,0,0,1-.544,3.864Z" transform="translate(-397.708 -272.223)" fill="#3f3d56"/><path d="M997.694,588.214c-.321.909-.773,1.774-1.069,2.7a18.83,18.83,0,0,0-.618,2.93,160.163,160.163,0,0,1-3.709,17.272,18.546,18.546,0,0,0-.927,5.168l3.536-.124a1.329,1.329,0,0,1,.952.21c.3.272.507.872.89.717a89.05,89.05,0,0,0,1.391-10.28c.142-2.473.074-4.9.235-7.338.309-4.865,1.756-10.41-.136-15.114a10.13,10.13,0,0,1-.544,3.864Z" transform="translate(-397.708 -272.223)" opacity="0.1"/><path d="M1004.528,542.778a5.405,5.405,0,0,0-1.416,3.041l-2.052,9.038c-.47,2.065-.94,4.129-1.236,6.225-1.3,8.753.2,17.754-1.236,26.483a41.619,41.619,0,0,0-.828,5.9c-.062,3.635,1.341,7.251.76,10.837a3.331,3.331,0,0,0,0,1.953c.3.618,1.3.816,1.576.216a1.105,1.105,0,0,0,.093-.346l2.139-13.495a36.581,36.581,0,0,0,.668-9.7c-.241-2.2-.884-4.4-.532-6.59a21.389,21.389,0,0,1,.946-3.184c2.065-6.182,1.78-12.9.618-19.293a8.037,8.037,0,0,1-.2-2.844c.284-1.564,1.5-2.763,2.312-4.123.618-1.026,1.681-3.283,1.236-4.519C1006.92,540.935,1005.4,542.03,1004.528,542.778Z" transform="translate(-400.147 -255.928)" fill="#3f3d56"/><path d="M1005.818,754.782a1.509,1.509,0,0,0-.828.148,1.458,1.458,0,0,0-.488.618c-.686,1.416-1.168,3.054-2.473,3.969a6.88,6.88,0,0,1-2.133.878l-5.811,1.657c-.748.21-1.6.519-1.855,1.236a1.886,1.886,0,0,0,.989,2.015,6.571,6.571,0,0,0,3.338.618l8.413.124a6.967,6.967,0,0,0,2.374-.241c.983-.346,1.811-1.131,2.844-1.236a7.664,7.664,0,0,1,2.473.457,11.324,11.324,0,0,0,5.187-.433,1.49,1.49,0,0,0,.822-.4,1.453,1.453,0,0,0,.253-.915c.068-1.44.093-2.875.087-4.327,0-1.3-.155-2.819-1.236-3.536a3.876,3.876,0,0,0-1.626-.5C1012.7,754.479,1009.293,754.806,1005.818,754.782Z" transform="translate(-398.013 -337.262)" fill="#575a88"/><path d="M1045.64,782.747a8.043,8.043,0,0,1-.9,1.589L1041.2,789.7c-1.447,2.182-2.943,4.519-3.041,7.134a16.838,16.838,0,0,0,7.418,1.069,6.8,6.8,0,0,0,3.548-1.107c1.521-1.119,2.12-3.091,2.615-4.9a1.009,1.009,0,0,1,.34-.618c.315-.216.742,0,1.125-.08.785-.1,1.057-1.088,1.113-1.855a24.684,24.684,0,0,0-.618-7.282,1.5,1.5,0,0,0-.377-.8,1.54,1.54,0,0,0-.81-.3c-1.768-.3-3.536-.655-5.31-.915C1044.861,779.674,1046.3,781.059,1045.64,782.747Z" transform="translate(-415.574 -346.923)" fill="#575a88"/><path d="M1001.611,626.62a11.765,11.765,0,0,0-2.133,7.845,45,45,0,0,0,1.527,8.154,103.209,103.209,0,0,1,2.263,13.322,17.6,17.6,0,0,0,.618,3.709c.3.94.773,1.818,1.045,2.763.334,1.15.365,2.374.674,3.53a21.017,21.017,0,0,0,1.595,3.6c2.825,5.774,3.431,12.364,3.48,18.793,0,1.737,0,3.468.161,5.193.359,3.5,1.44,7.418-.655,10.237.532,1.916,3.091,2.281,5.044,2.028A24.951,24.951,0,0,0,1021.9,704c-.618-1.311-1.521-2.837-1.477-4.327a12.363,12.363,0,0,1,.878-3.388,35.79,35.79,0,0,0,1.3-10.614,29.635,29.635,0,0,0-.049-3.313,27.9,27.9,0,0,0-.495-3.029l-2.392-11.986a18.81,18.81,0,0,1-.167-6.392,23.78,23.78,0,0,1,2.528-7.2c2.862-5.78,3.851-12.3,4.414-18.725.3-3.511.377-7.418-1.855-10.144a9.366,9.366,0,0,0-5.3-3.029,21.929,21.929,0,0,0-6.182-.241C1008.962,621.965,1004.177,623.368,1001.611,626.62Z" transform="translate(-400.797 -286.409)" fill="#3f3d56"/><path d="M1003.637,628.46c-.791,2.658,1.175,5.248,2.188,7.832a22.644,22.644,0,0,0,1.762,4.445c1.1,1.651,2.992,2.627,4.185,4.216s1.539,3.449,2.473,5.1,2.473,3.023,3.338,4.741c1.31,2.565,1.119,5.644,2.04,8.376.655,1.96,1.885,3.709,2.361,5.73.21.909.266,1.855.5,2.745.55,2.126,2.059,3.981,2.213,6.182.1,1.44-.383,3.023.377,4.247.457.748,1.286,1.187,1.854,1.854a5.962,5.962,0,0,1,.884,2l1.236,4.049c1.193,3.932,1.329,7.993,2.473,11.943s1.953,8.222.618,12.116c-.538,1.613-1.434,3.27-.983,4.908a4.192,4.192,0,0,0,2.423,2.572,10.153,10.153,0,0,0,3.573.674,7.765,7.765,0,0,0,4.754-.909,93.533,93.533,0,0,1-.791-14.985c.154-3.264.618-6.516.618-9.786a50.393,50.393,0,0,0-.587-6.182,49.753,49.753,0,0,0-1.953-9.025,33.3,33.3,0,0,1-1.3-4.03c-.2-.934-.26-1.892-.4-2.837s-.34-1.855-.544-2.825l-.828-3.82a14.659,14.659,0,0,1-.729-2.436l-.253-5.564c-.408-9.112-.8-18.372,1.391-27.2-1.28-3.8-3.437-7.8-7.115-9.384a12.724,12.724,0,0,0-4.76-.909C1017.15,622.068,1010.424,625.288,1003.637,628.46Z" transform="translate(-402.322 -286.71)" fill="#3f3d56"/><path d="M1010.906,526.089a5.279,5.279,0,0,1,.964.81,4.943,4.943,0,0,1,.8,1.4,16.778,16.778,0,0,1,1.236,5.316,66.946,66.946,0,0,0,11-9.687,3.953,3.953,0,0,1-3.542-2.244,11.585,11.585,0,0,1-1.051-4.278c-.037-.278-3.851,1.341-4.16,1.508-1.36.742-2.633,1.626-3.963,2.417a21.666,21.666,0,0,1-1.972,1.07,11.146,11.146,0,0,0-2.108.822C1006.752,524.328,1010.066,525.5,1010.906,526.089Z" transform="translate(-403.979 -246.652)" fill="#ffc0c6"/><path d="M1007.683,533.82c-.155,1.193.049,2.411-.13,3.6a17.69,17.69,0,0,1-1.978,4.772c-2.028,4.408-1.854,9.458-1.947,14.3-.093,5.3-.532,10.589-.977,15.875l-.81,9.674a44.026,44.026,0,0,1-.618,5,8.27,8.27,0,0,0-.253,2.127,7.418,7.418,0,0,0,.754,2.473,7.5,7.5,0,0,0,1.725,2.745,2.59,2.59,0,0,0,3.01.439l.729-2.195a3.505,3.505,0,0,0,3.313,3.394,6.918,6.918,0,0,0,1.854-.321l5.718-1.552a17.3,17.3,0,0,0,3.586-1.236,11.137,11.137,0,0,0,5.02-6.435,29.148,29.148,0,0,0,1.175-8.24,77.334,77.334,0,0,0-1.3-19.163c-.569-2.627-1.348-5.211-1.817-7.857a69.827,69.827,0,0,1-.8-10.787l-.2-8.939a7.684,7.684,0,0,0-.55-3.245,2.627,2.627,0,0,0-2.646-1.576c-1.712.321-2.114,2.528-3.042,4.006a9.616,9.616,0,0,1-3.4,2.856c-.841.507-1.892,1.026-2.757.556s-.859-1.984-1.749-2.374C1008.406,531.081,1007.788,532.9,1007.683,533.82Z" transform="translate(-401.373 -250.197)" fill="#f2f2f2"/><path d="M1022.324,536.233a70.9,70.9,0,0,0-3.289,12.914c-.859,4.717-1.632,9.557-.847,14.286,1.484,8.945,8.271,16.171,10.583,24.937a42.836,42.836,0,0,0,1.236,4.562,25.944,25.944,0,0,0,4.037,6.658c.841,1.119,2.083,2.374,3.406,1.922.983-.34,1.416-1.459,2.164-2.188a5.43,5.43,0,0,1,4.1-1.131,15.921,15.921,0,0,0,4.37,0,3.19,3.19,0,0,0,2.621-3.091,6.1,6.1,0,0,0-1.236-2.473,18.078,18.078,0,0,1-2.38-7.239c-2.38-14.583-1.317-29.574-3.845-44.132a12.865,12.865,0,0,0-1.755-5.23,21.7,21.7,0,0,1-1.428-2.021,15.416,15.416,0,0,0-1.088-2.331,6.109,6.109,0,0,0-3.184-1.719,30.447,30.447,0,0,1-4.618-1.922c-1.125-.581-2.72-2.188-3.857-1.422s-2,3.443-2.609,4.605A49.07,49.07,0,0,0,1022.324,536.233Z" transform="translate(-407.824 -250.101)" fill="#3f3d56"/><path d="M1029.245,637.65c-.878.2-1.811-.074-2.7.124-1.453.334-2.287,1.811-2.943,3.146a3.331,3.331,0,0,0-.439,1.348,1.119,1.119,0,0,0,.7,1.119,1.348,1.348,0,0,0,1.292-.55,5.977,5.977,0,0,1,.989-1.094c1.026-.686,2.423.043,3.221.983s1.4,2.12,2.473,2.683a5.671,5.671,0,0,0,1.972.482,6.652,6.652,0,0,0,2.157,0,2.293,2.293,0,0,0,1.688-1.236,3.362,3.362,0,0,0,.2-1.335l.105-6.182a1.713,1.713,0,0,0-.21-1.045,1.664,1.664,0,0,0-.822-.519c-1.15-.439-3.641-1.929-4.8-1.181C1030.852,635.307,1031.1,637.224,1029.245,637.65Z" transform="translate(-409.848 -291.251)" fill="#ffc0c6"/><circle cx="10.954" cy="10.954" r="10.954" transform="translate(596.567 257.431)" fill="#ffc0c6"/><path d="M1005.188,501.591a2.188,2.188,0,0,0-1.57-1.663,7.042,7.042,0,0,1-.9-.13c-1.032-.352-1.008-1.929-1.892-2.559a2.353,2.353,0,0,0-2.337.13,4.916,4.916,0,0,1-2.293.8,2.411,2.411,0,0,1-2.065-1.978,4.587,4.587,0,0,1,.556-2.961c1.644-3.227,5.088-5.075,8.42-6.485a16.9,16.9,0,0,1,4.55-1.379,6.621,6.621,0,0,1,4.556.971c.427.3.8.655,1.236.933a12.92,12.92,0,0,0,1.335.686,11.262,11.262,0,0,1,5.489,12.524c-.42,1.663-1.236,3.227-1.49,4.914a3.839,3.839,0,0,1-.346,1.323c-.563.989-1.929,1.082-3.091,1.051a1.447,1.447,0,0,1-.884-.21,1.545,1.545,0,0,1-.439-.9,8.775,8.775,0,0,0-2.677-4.945c-.8-.618-2.1-.94-2.757-.154a5.729,5.729,0,0,0-.618,1.329,2.252,2.252,0,0,1-2.108,1.236C1004.743,503.86,1005.454,502.624,1005.188,501.591Z" transform="translate(-398.742 -234.4)" fill="#3f3d56"/><path d="M1047.13,535.318c-1.317-.155-1.57,6.744-2.9,6.75-.377,0-.309-1.453-.618-1.236s.8,4.945.618,5.316c-.674,1.391.668-4.519,0-3.128-.884,1.817-.482,2.411-.94,4.383-1.014,4.327-6.064,7.468-5.038,11.782a106.941,106.941,0,0,1,2.609,14.36,23.43,23.43,0,0,1,.08,4.655c-.352,3.363-1.892,6.472-3.443,9.483-1.36,2.633-2.745,5.255-3.851,8a3.252,3.252,0,0,0-.309,2.176c.457,1.391,2.3,1.539,3.709,1.941,2.887.822,5.353,3.709,8.284,3.035,1.311-3.981,1.156-8.178,2.3-12.215,1.175-4.136,3.919-7.733,4.809-11.937a28.856,28.856,0,0,0,.445-5.267l.433-19.5a21.014,21.014,0,0,0-.117-3.474,21.428,21.428,0,0,0-.933-3.48l-2.263-6.8C1049.411,538.341,1048.991,535.541,1047.13,535.318Z" transform="translate(-413.707 -253.501)" opacity="0.1"/><path d="M1048.649,535.169a32.817,32.817,0,0,0-3.975-.223,1.576,1.576,0,0,0-1.786,1.156l-2.021,4.16a27.816,27.816,0,0,0-2.232,5.625c-1.014,4.327.111,8.821,1.137,13.136a106.919,106.919,0,0,1,2.609,14.36,23.43,23.43,0,0,1,.08,4.655c-.352,3.363-1.892,6.472-3.443,9.483-1.36,2.633-2.745,5.255-3.851,8a3.215,3.215,0,0,0-.309,2.176c.457,1.391,2.3,1.539,3.709,1.941,2.887.822,5.353,3.709,8.284,3.035,1.311-3.981,1.156-8.179,2.3-12.215,1.175-4.136,3.919-7.733,4.809-11.937a28.844,28.844,0,0,0,.445-5.267l.426-19.5a19.785,19.785,0,0,0-.117-3.474,20.786,20.786,0,0,0-.927-3.48l-2.263-6.8C1050.93,538.192,1050.509,535.392,1048.649,535.169Z" transform="translate(-414.286 -253.351)" fill="#3f3d56"/></g></svg>