<svg xmlns="http://www.w3.org/2000/svg" xmlns:xlink="http://www.w3.org/1999/xlink" width="636" height="636" viewBox="0 0 636 636"><defs><linearGradient id="a" y1="0.5" x2="1" y2="0.5" gradientUnits="objectBoundingBox"><stop offset="0" stop-color="#3864fa" stop-opacity="0.102"/><stop offset="1" stop-color="#8fffff" stop-opacity="0.102"/><stop offset="1" stop-color="#bebebe" stop-opacity="0"/></linearGradient></defs><path d="M790.24,269.72c-175.627,0-318,142.373-318,318s142.374,318,318,318,318-142.374,318-318c0-175.611-142.364-317.986-317.987-318ZM942.906,719.493H912.821a27.474,27.474,0,1,1,0-26.093h30.354A40.621,40.621,0,0,0,984.1,654.973a40.008,40.008,0,0,0-39.943-41.511,40.767,40.767,0,0,0-5.749.408,13.073,13.073,0,0,1-13.706-7.431,13.723,13.723,0,0,1-.817-8.579A119.638,119.638,0,1,0,689.9,547.822a12.938,12.938,0,0,1-14.875,9.908,69.117,69.117,0,0,0-11.476-.96,68.4,68.4,0,0,0-68.3,69.978,69.177,69.177,0,0,0,69.578,66.681h106.15V683.3a9.172,9.172,0,0,1,13.751-7.909l40.094,23.123a9.172,9.172,0,0,1,0,15.884l-40.094,23.123a9.171,9.171,0,0,1-13.751-7.909v-10.1H665.11a94.422,94.422,0,1,1-1.581-188.838q1.953.007,3.906.083A145.733,145.733,0,0,1,952.4,573.777c0,4.678-.225,9.364-.67,14a66.182,66.182,0,0,1,58.49,64.606A67.126,67.126,0,0,1,942.91,719.5Z" transform="translate(-472.24 -269.72)" fill="url(#a)"/></svg>