<svg xmlns="http://www.w3.org/2000/svg" width="675.275" height="675.275" viewBox="0 0 675.275 675.275"><path d="M338.274,0C151.8,0,.636,151.187.636,337.637S151.823,675.275,338.274,675.275,675.911,524.089,675.911,337.637,524.75,0,338.274,0ZM500.366,477.55H468.423a29.17,29.17,0,1,1,0-27.705h32.228c22.981,0,42.578-17.838,43.45-40.8a42.48,42.48,0,0,0-42.41-44.076,43.128,43.128,0,0,0-6.1.439,13.873,13.873,0,0,1-14.55-7.89,14.571,14.571,0,0,1-.886-9.123,127.071,127.071,0,0,0-124.425-152.57c-59.085,0-111.258,41.829-124,99.441a13.736,13.736,0,0,1-15.8,10.519,73.361,73.361,0,0,0-12.185-1.022,72.622,72.622,0,0,0-72.518,74.3c.937,39.579,34.269,70.8,73.875,70.8H317.8V439.107a9.737,9.737,0,0,1,14.6-8.4l42.572,24.551a9.738,9.738,0,0,1,0,16.864L332.4,496.674a9.737,9.737,0,0,1-14.6-8.4V477.55H205.417c-54.918,0-100.869-43.425-101.909-98.311a100.345,100.345,0,0,1,100.23-102.187q2.072,0,4.148.084a154.775,154.775,0,0,1,147.84-109.029c85.285,0,154.721,69.4,154.721,154.715,0,4.968-.239,9.942-.711,14.86a70.25,70.25,0,0,1,62.1,68.6c.594,39.206-32.292,71.266-71.465,71.266Z" transform="translate(-0.636)" fill="rgba(28,127,195,0.06)"/></svg>